  0
SECTION
  2
HEADER
  9
$ACADVER
  1
AC1027
  9
$ACADMAINTVER
 70
105
  9
$DWGCODEPAGE
  3
ANSI_1252
  9
$LASTSAVEDBY
  1
ezdxf
  9
$REQUIREDVERSIONS
160
0
  9
$INSBASE
 10
0.0
 20
0.0
 30
0.0
  9
$EXTMIN
 10
1e+20
 20
1e+20
 30
1e+20
  9
$EXTMAX
 10
-1e+20
 20
-1e+20
 30
-1e+20
  9
$LIMMIN
 10
0.0
 20
0.0
  9
$LIMMAX
 10
420.0
 20
297.0
  9
$ORTHOMODE
 70
0
  9
$REGENMODE
 70
1
  9
$FILLMODE
 70
1
  9
$QTEXTMODE
 70
0
  9
$MIRRTEXT
 70
1
  9
$LTSCALE
 40
1.0
  9
$ATTMODE
 70
1
  9
$TEXTSIZE
 40
2.5
  9
$TRACEWID
 40
1.0
  9
$TEXTSTYLE
  7
Standard
  9
$CLAYER
  8
0
  9
$CELTYPE
  6
ByLayer
  9
$CECOLOR
 62
256
  9
$CELTSCALE
 40
1.0
  9
$DISPSILH
 70
0
  9
$DIMSCALE
 40
1.0
  9
$DIMASZ
 40
2.5
  9
$DIMEXO
 40
0.625
  9
$DIMDLI
 40
3.75
  9
$DIMRND
 40
0.0
  9
$DIMDLE
 40
0.0
  9
$DIMEXE
 40
1.25
  9
$DIMTP
 40
0.0
  9
$DIMTM
 40
0.0
  9
$DIMTXT
 40
2.5
  9
$DIMCEN
 40
2.5
  9
$DIMTSZ
 40
0.0
  9
$DIMTOL
 70
0
  9
$DIMLIM
 70
0
  9
$DIMTIH
 70
0
  9
$DIMTOH
 70
0
  9
$DIMSE1
 70
0
  9
$DIMSE2
 70
0
  9
$DIMTAD
 70
1
  9
$DIMZIN
 70
8
  9
$DIMBLK
  1

  9
$DIMASO
 70
1
  9
$DIMSHO
 70
1
  9
$DIMPOST
  1

  9
$DIMAPOST
  1

  9
$DIMALT
 70
0
  9
$DIMALTD
 70
3
  9
$DIMALTF
 40
0.03937007874
  9
$DIMLFAC
 40
1.0
  9
$DIMTOFL
 70
1
  9
$DIMTVP
 40
0.0
  9
$DIMTIX
 70
0
  9
$DIMSOXD
 70
0
  9
$DIMSAH
 70
0
  9
$DIMBLK1
  1

  9
$DIMBLK2
  1

  9
$DIMSTYLE
  2
ISO-25
  9
$DIMCLRD
 70
0
  9
$DIMCLRE
 70
0
  9
$DIMCLRT
 70
0
  9
$DIMTFAC
 40
1.0
  9
$DIMGAP
 40
0.625
  9
$DIMJUST
 70
0
  9
$DIMSD1
 70
0
  9
$DIMSD2
 70
0
  9
$DIMTOLJ
 70
0
  9
$DIMTZIN
 70
8
  9
$DIMALTZ
 70
0
  9
$DIMALTTZ
 70
0
  9
$DIMUPT
 70
0
  9
$DIMDEC
 70
2
  9
$DIMTDEC
 70
2
  9
$DIMALTU
 70
2
  9
$DIMALTTD
 70
3
  9
$DIMTXSTY
  7
Standard
  9
$DIMAUNIT
 70
0
  9
$DIMADEC
 70
0
  9
$DIMALTRND
 40
0.0
  9
$DIMAZIN
 70
0
  9
$DIMDSEP
 70
44
  9
$DIMATFIT
 70
3
  9
$DIMFRAC
 70
0
  9
$DIMLDRBLK
  1

  9
$DIMLUNIT
 70
2
  9
$DIMLWD
 70
-2
  9
$DIMLWE
 70
-2
  9
$DIMTMOVE
 70
0
  9
$DIMFXL
 40
1.0
  9
$DIMFXLON
 70
0
  9
$DIMJOGANG
 40
0.785398163397
  9
$DIMTFILL
 70
0
  9
$DIMTFILLCLR
 70
0
  9
$DIMARCSYM
 70
0
  9
$DIMLTYPE
  6

  9
$DIMLTEX1
  6

  9
$DIMLTEX2
  6

  9
$DIMTXTDIRECTION
 70
0
  9
$LUNITS
 70
2
  9
$LUPREC
 70
4
  9
$SKETCHINC
 40
1.0
  9
$FILLETRAD
 40
10.0
  9
$AUNITS
 70
0
  9
$AUPREC
 70
2
  9
$MENU
  1
.
  9
$ELEVATION
 40
0.0
  9
$PELEVATION
 40
0.0
  9
$THICKNESS
 40
0.0
  9
$LIMCHECK
 70
0
  9
$CHAMFERA
 40
0.0
  9
$CHAMFERB
 40
0.0
  9
$CHAMFERC
 40
0.0
  9
$CHAMFERD
 40
0.0
  9
$SKPOLY
 70
0
  9
$TDCREATE
 40
2461254.955150463
  9
$TDUCREATE
 40
2458532.153996898
  9
$TDUPDATE
 40
2461254.955162037
  9
$TDUUPDATE
 40
2458532.1544311
  9
$TDINDWG
 40
0.0
  9
$TDUSRTIMER
 40
0.0
  9
$USRTIMER
 70
1
  9
$ANGBASE
 50
0.0
  9
$ANGDIR
 70
0
  9
$PDMODE
 70
0
  9
$PDSIZE
 40
0.0
  9
$PLINEWID
 40
0.0
  9
$SPLFRAME
 70
0
  9
$SPLINETYPE
 70
6
  9
$SPLINESEGS
 70
8
  9
$HANDSEED
  5
12D
  9
$SURFTAB1
 70
6
  9
$SURFTAB2
 70
6
  9
$SURFTYPE
 70
6
  9
$SURFU
 70
6
  9
$SURFV
 70
6
  9
$UCSBASE
  2

  9
$UCSNAME
  2

  9
$UCSORG
 10
0.0
 20
0.0
 30
0.0
  9
$UCSXDIR
 10
1.0
 20
0.0
 30
0.0
  9
$UCSYDIR
 10
0.0
 20
1.0
 30
0.0
  9
$UCSORTHOREF
  2

  9
$UCSORTHOVIEW
 70
0
  9
$UCSORGTOP
 10
0.0
 20
0.0
 30
0.0
  9
$UCSORGBOTTOM
 10
0.0
 20
0.0
 30
0.0
  9
$UCSORGLEFT
 10
0.0
 20
0.0
 30
0.0
  9
$UCSORGRIGHT
 10
0.0
 20
0.0
 30
0.0
  9
$UCSORGFRONT
 10
0.0
 20
0.0
 30
0.0
  9
$UCSORGBACK
 10
0.0
 20
0.0
 30
0.0
  9
$PUCSBASE
  2

  9
$PUCSNAME
  2

  9
$PUCSORG
 10
0.0
 20
0.0
 30
0.0
  9
$PUCSXDIR
 10
1.0
 20
0.0
 30
0.0
  9
$PUCSYDIR
 10
0.0
 20
1.0
 30
0.0
  9
$PUCSORTHOREF
  2

  9
$PUCSORTHOVIEW
 70
0
  9
$PUCSORGTOP
 10
0.0
 20
0.0
 30
0.0
  9
$PUCSORGBOTTOM
 10
0.0
 20
0.0
 30
0.0
  9
$PUCSORGLEFT
 10
0.0
 20
0.0
 30
0.0
  9
$PUCSORGRIGHT
 10
0.0
 20
0.0
 30
0.0
  9
$PUCSORGFRONT
 10
0.0
 20
0.0
 30
0.0
  9
$PUCSORGBACK
 10
0.0
 20
0.0
 30
0.0
  9
$USERI1
 70
0
  9
$USERI2
 70
0
  9
$USERI3
 70
0
  9
$USERI4
 70
0
  9
$USERI5
 70
0
  9
$USERR1
 40
0.0
  9
$USERR2
 40
0.0
  9
$USERR3
 40
0.0
  9
$USERR4
 40
0.0
  9
$USERR5
 40
0.0
  9
$WORLDVIEW
 70
1
  9
$SHADEDGE
 70
3
  9
$SHADEDIF
 70
70
  9
$TILEMODE
 70
1
  9
$MAXACTVP
 70
64
  9
$PINSBASE
 10
0.0
 20
0.0
 30
0.0
  9
$PLIMCHECK
 70
0
  9
$PEXTMIN
 10
1e+20
 20
1e+20
 30
1e+20
  9
$PEXTMAX
 10
-1e+20
 20
-1e+20
 30
-1e+20
  9
$PLIMMIN
 10
0.0
 20
0.0
  9
$PLIMMAX
 10
420.0
 20
297.0
  9
$UNITMODE
 70
0
  9
$VISRETAIN
 70
1
  9
$PLINEGEN
 70
0
  9
$PSLTSCALE
 70
1
  9
$TREEDEPTH
 70
3020
  9
$CMLSTYLE
  2
Standard
  9
$CMLJUST
 70
0
  9
$CMLSCALE
 40
20.0
  9
$PROXYGRAPHICS
 70
1
  9
$MEASUREMENT
 70
1
  9
$CELWEIGHT
370
-1
  9
$ENDCAPS
280
0
  9
$JOINSTYLE
280
0
  9
$LWDISPLAY
290
0
  9
$INSUNITS
 70
4
  9
$HYPERLINKBASE
  1

  9
$STYLESHEET
  1

  9
$XEDIT
290
1
  9
$CEPSNTYPE
380
0
  9
$PSTYLEMODE
290
1
  9
$FINGERPRINTGUID
  2
{D55CBC4D-D986-43AC-B573-0F43DF751D62}
  9
$VERSIONGUID
  2
{21E83675-4D2E-43BC-8DCB-C80EC5AF1FD5}
  9
$EXTNAMES
290
1
  9
$PSVPSCALE
 40
0.0
  9
$OLESTARTUP
290
0
  9
$SORTENTS
280
127
  9
$INDEXCTL
280
0
  9
$HIDETEXT
280
1
  9
$XCLIPFRAME
280
1
  9
$HALOGAP
280
0
  9
$OBSCOLOR
 70
257
  9
$OBSLTYPE
280
0
  9
$INTERSECTIONDISPLAY
280
0
  9
$INTERSECTIONCOLOR
 70
257
  9
$DIMASSOC
280
2
  9
$PROJECTNAME
  1

  9
$CAMERADISPLAY
290
0
  9
$LENSLENGTH
 40
50.0
  9
$CAMERAHEIGHT
 40
0.0
  9
$STEPSPERSEC
 40
24.0
  9
$STEPSIZE
 40
100.0
  9
$3DDWFPREC
 40
2.0
  9
$PSOLWIDTH
 40
0.005
  9
$PSOLHEIGHT
 40
0.08
  9
$LOFTANG1
 40
1.570796326795
  9
$LOFTANG2
 40
1.570796326795
  9
$LOFTMAG1
 40
0.0
  9
$LOFTMAG2
 40
0.0
  9
$LOFTPARAM
 70
7
  9
$LOFTNORMALS
280
1
  9
$LATITUDE
 40
37.795
  9
$LONGITUDE
 40
-122.394
  9
$NORTHDIRECTION
 40
0.0
  9
$TIMEZONE
 70
-8000
  9
$LIGHTGLYPHDISPLAY
280
1
  9
$TILEMODELIGHTSYNCH
280
1
  9
$CMATERIAL
347
20
  9
$SOLIDHIST
280
0
  9
$SHOWHIST
280
1
  9
$DWFFRAME
280
2
  9
$DGNFRAME
280
2
  9
$REALWORLDSCALE
290
1
  9
$INTERFERECOLOR
 62
256
  9
$CSHADOW
280
0
  9
$SHADOWPLANELOCATION
 40
0.0
  0
ENDSEC
  0
SECTION
  2
CLASSES
  0
CLASS
  1
ACDBDICTIONARYWDFLT
  2
AcDbDictionaryWithDefault
  3
ObjectDBX Classes
 90
0
 91
0
280
0
281
0
  0
CLASS
  1
SUN
  2
AcDbSun
  3
SCENEOE
 90
1153
 91
0
280
0
281
0
  0
CLASS
  1
VISUALSTYLE
  2
AcDbVisualStyle
  3
ObjectDBX Classes
 90
4095
 91
0
280
0
281
0
  0
CLASS
  1
MATERIAL
  2
AcDbMaterial
  3
ObjectDBX Classes
 90
1153
 91
0
280
0
281
0
  0
CLASS
  1
SCALE
  2
AcDbScale
  3
ObjectDBX Classes
 90
1153
 91
0
280
0
281
0
  0
CLASS
  1
TABLESTYLE
  2
AcDbTableStyle
  3
ObjectDBX Classes
 90
4095
 91
0
280
0
281
0
  0
CLASS
  1
MLEADERSTYLE
  2
AcDbMLeaderStyle
  3
ACDB_MLEADERSTYLE_CLASS
 90
4095
 91
0
280
0
281
0
  0
CLASS
  1
DICTIONARYVAR
  2
AcDbDictionaryVar
  3
ObjectDBX Classes
 90
0
 91
0
280
0
281
0
  0
CLASS
  1
CELLSTYLEMAP
  2
AcDbCellStyleMap
  3
ObjectDBX Classes
 90
1152
 91
0
280
0
281
0
  0
CLASS
  1
MENTALRAYRENDERSETTINGS
  2
AcDbMentalRayRenderSettings
  3
SCENEOE
 90
1024
 91
0
280
0
281
0
  0
CLASS
  1
ACDBDETAILVIEWSTYLE
  2
AcDbDetailViewStyle
  3
ObjectDBX Classes
 90
1025
 91
0
280
0
281
0
  0
CLASS
  1
ACDBSECTIONVIEWSTYLE
  2
AcDbSectionViewStyle
  3
ObjectDBX Classes
 90
1025
 91
0
280
0
281
0
  0
CLASS
  1
RASTERVARIABLES
  2
AcDbRasterVariables
  3
ISM
 90
0
 91
0
280
0
281
0
  0
CLASS
  1
ACDBPLACEHOLDER
  2
AcDbPlaceHolder
  3
ObjectDBX Classes
 90
0
 91
0
280
0
281
0
  0
CLASS
  1
LAYOUT
  2
AcDbLayout
  3
ObjectDBX Classes
 90
0
 91
0
280
0
281
0
  0
ENDSEC
  0
SECTION
  2
TABLES
  0
TABLE
  2
VPORT
  5
8
330
0
100
AcDbSymbolTable
 70
1
  0
VPORT
  5
23
330
8
100
AcDbSymbolTableRecord
100
AcDbViewportTableRecord
  2
*Active
 70
0
 10
0.0
 20
0.0
 11
1.0
 21
1.0
 12
0.0
 22
0.0
 13
0.0
 23
0.0
 14
0.5
 24
0.5
 15
0.5
 25
0.5
 16
0.0
 26
0.0
 36
1.0
 17
0.0
 27
0.0
 37
0.0
 40
1000.0
 41
1.34
 42
50.0
 43
0.0
 44
0.0
 50
0.0
 51
0.0
 71
0
 72
1000
 73
1
 74
3
 75
0
 76
0
 77
0
 78
0
281
0
 65
0
146
0.0
  0
ENDTAB
  0
TABLE
  2
LTYPE
  5
2
330
0
100
AcDbSymbolTable
 70
3
  0
LTYPE
  5
24
330
2
100
AcDbSymbolTableRecord
100
AcDbLinetypeTableRecord
  2
ByBlock
 70
0
  3

 72
65
 73
0
 40
0.0
  0
LTYPE
  5
25
330
2
100
AcDbSymbolTableRecord
100
AcDbLinetypeTableRecord
  2
ByLayer
 70
0
  3

 72
65
 73
0
 40
0.0
  0
LTYPE
  5
26
330
2
100
AcDbSymbolTableRecord
100
AcDbLinetypeTableRecord
  2
Continuous
 70
0
  3

 72
65
 73
0
 40
0.0
  0
ENDTAB
  0
TABLE
  2
LAYER
  5
1
330
0
100
AcDbSymbolTable
 70
3
  0
LAYER
  5
27
330
1
100
AcDbSymbolTableRecord
100
AcDbLayerTableRecord
  2
0
 70
0
 62
7
  6
Continuous
370
-3
390
13
347
21
  0
LAYER
  5
28
330
1
100
AcDbSymbolTableRecord
100
AcDbLayerTableRecord
  2
Defpoints
 70
0
 62
7
  6
Continuous
290
0
370
-3
390
13
347
21
  0
LAYER
  5
2F
330
1
100
AcDbSymbolTableRecord
100
AcDbLayerTableRecord
  2
NESTED_RESULT
 70
0
 62
7
  6
Continuous
370
-3
390
13
347
21
  0
ENDTAB
  0
TABLE
  2
STYLE
  5
5
330
0
100
AcDbSymbolTable
 70
1
  0
STYLE
  5
29
330
5
100
AcDbSymbolTableRecord
100
AcDbTextStyleTableRecord
  2
Standard
 70
0
 40
0.0
 41
1.0
 50
0.0
 71
0
 42
2.5
  3
txt
  4

  0
ENDTAB
  0
TABLE
  2
VIEW
  5
7
330
0
100
AcDbSymbolTable
 70
0
  0
ENDTAB
  0
TABLE
  2
UCS
  5
6
330
0
100
AcDbSymbolTable
 70
0
  0
ENDTAB
  0
TABLE
  2
APPID
  5
3
330
0
100
AcDbSymbolTable
 70
3
  0
APPID
  5
2A
330
3
100
AcDbSymbolTableRecord
100
AcDbRegAppTableRecord
  2
ACAD
 70
0
  0
APPID
  5
12A
330
3
100
AcDbSymbolTableRecord
100
AcDbRegAppTableRecord
  2
HATCHBACKGROUNDCOLOR
 70
0
  0
APPID
  5
12B
330
3
100
AcDbSymbolTableRecord
100
AcDbRegAppTableRecord
  2
EZDXF
 70
0
  0
ENDTAB
  0
TABLE
  2
DIMSTYLE
  5
4
330
0
100
AcDbSymbolTable
 70
1
100
AcDbDimStyleTable
  0
DIMSTYLE
105
2B
330
4
100
AcDbSymbolTableRecord
100
AcDbDimStyleTableRecord
  2
Standard
 70
0
 40
1.0
 41
2.5
 42
0.625
 43
3.75
 44
1.25
 45
0.0
 46
0.0
 47
0.0
 48
0.0
 49
2.5
140
2.5
141
2.5
142
0.0
143
0.03937007874
144
1.0
145
0.0
146
1.0
147
0.625
148
0.0
 69
0
 70
0
 71
0
 72
0
 73
0
 74
0
 75
0
 76
0
 77
1
 78
8
 79
3
170
0
171
3
172
1
173
0
174
0
175
0
176
0
177
0
178
0
179
2
271
2
272
2
273
2
274
3
275
0
276
0
277
2
278
44
279
0
280
0
281
0
282
0
283
0
284
8
285
0
286
0
288
0
289
3
290
0
371
-2
372
-2
  0
ENDTAB
  0
TABLE
  2
BLOCK_RECORD
  5
9
330
0
100
AcDbSymbolTable
 70
2
  0
BLOCK_RECORD
  5
17
330
9
100
AcDbSymbolTableRecord
100
AcDbBlockTableRecord
  2
*Model_Space
340
1A
 70
0
280
1
281
0
  0
BLOCK_RECORD
  5
1B
330
9
100
AcDbSymbolTableRecord
100
AcDbBlockTableRecord
  2
*Paper_Space
340
1E
 70
0
280
1
281
0
  0
ENDTAB
  0
ENDSEC
  0
SECTION
  2
BLOCKS
  0
BLOCK
  5
18
330
17
100
AcDbEntity
  8
0
100
AcDbBlockBegin
  2
*Model_Space
 70
0
 10
0.0
 20
0.0
 30
0.0
  3
*Model_Space
  1

  0
ENDBLK
  5
19
330
17
100
AcDbEntity
  8
0
100
AcDbBlockEnd
  0
BLOCK
  5
1C
330
1B
100
AcDbEntity
  8
0
100
AcDbBlockBegin
  2
*Paper_Space
 70
0
 10
0.0
 20
0.0
 30
0.0
  3
*Paper_Space
  1

  0
ENDBLK
  5
1D
330
1B
100
AcDbEntity
  8
0
100
AcDbBlockEnd
  0
ENDSEC
  0
SECTION
  2
ENTITIES
  0
LWPOLYLINE
  5
30
330
17
100
AcDbEntity
  8
NESTED_RESULT
 62
1
100
AcDbPolyline
 90
5
 70
0
 10
0.0
 20
0.0
 10
3200.0
 20
0.0
 10
3200.0
 20
1800.0
 10
0.0
 20
1800.0
 10
0.0
 20
0.0
  0
TEXT
  5
31
330
17
100
AcDbEntity
  8
NESTED_RESULT
 62
1
100
AcDbText
 10
0.0
 20
1830.0
 30
0.0
 40
50.0
  1
Sheet_1
 11
0.0
 21
1830.0
 31
0.0
100
AcDbText
 73
1
  0
LWPOLYLINE
  5
32
330
17
100
AcDbEntity
  8
NESTED_RESULT
100
AcDbPolyline
 90
7
 70
0
 10
2441.575000000026
 20
1203.3250000000044
 10
0.0
 20
1203.3250000000044
 10
0.0
 20
555.625
 10
1793.8750000000146
 20
555.625
 10
1793.8750000000146
 20
0.0
 10
2441.575000000026
 20
0.0
 10
2441.575000000026
 20
1203.3250000000044
  0
TEXT
  5
33
330
17
100
AcDbEntity
  8
NESTED_RESULT
100
AcDbText
 10
2061.867169189475
 20
824.0031921386764
 30
0.0
 40
80.0
  1
P-0003
 72
1
 11
2061.867169189475
 21
824.0031921386764
 31
0.0
100
AcDbText
 73
2
  0
LWPOLYLINE
  5
34
330
17
100
AcDbEntity
  8
NESTED_RESULT
100
AcDbPolyline
 90
5
 70
0
 10
2441.575000000026
 20
0.0
 10
2441.575000000026
 20
1716.0869999999995
 10
3092.450000000026
 20
1716.0869999999995
 10
3092.450000000026
 20
0.0
 10
2441.575000000026
 20
0.0
  0
TEXT
  5
35
330
17
100
AcDbEntity
  8
NESTED_RESULT
100
AcDbText
 10
2767.012500000026
 20
858.0434999999998
 30
0.0
 40
80.0
  1
207-B
 72
1
 11
2767.012500000026
 21
858.0434999999998
 31
0.0
100
AcDbText
 73
2
  0
LWPOLYLINE
  5
36
330
17
100
AcDbEntity
  8
NESTED_RESULT
100
AcDbPolyline
 90
5
 70
0
 10
0.0
 20
1793.8749999999927
 10
1692.2750000000087
 20
1793.8749999999927
 10
1692.2750000000087
 20
1203.3250000000044
 10
0.0
 20
1203.3250000000044
 10
0.0
 20
1793.8749999999927
  0
TEXT
  5
37
330
17
100
AcDbEntity
  8
NESTED_RESULT
100
AcDbText
 10
846.1375000000044
 20
1498.5999999999985
 30
0.0
 40
80.0
  1
207-E
 72
1
 11
846.1375000000044
 21
1498.5999999999985
 31
0.0
100
AcDbText
 73
2
  0
LWPOLYLINE
  5
38
330
17
100
AcDbEntity
  8
NESTED_RESULT
100
AcDbPolyline
 90
5
 70
0
 10
0.0
 20
552.4500000000116
 10
654.0499999999884
 20
552.4500000000116
 10
654.0499999999884
 20
0.0
 10
0.0
 20
0.0
 10
0.0
 20
552.4500000000116
  0
TEXT
  5
39
330
17
100
AcDbEntity
  8
NESTED_RESULT
100
AcDbText
 10
327.0249999999942
 20
276.2250000000058
 30
0.0
 40
80.0
  1
205-C
 72
1
 11
327.0249999999942
 21
276.2250000000058
 31
0.0
100
AcDbText
 73
2
  0
LWPOLYLINE
  5
3A
330
17
100
AcDbEntity
  8
NESTED_RESULT
100
AcDbPolyline
 90
5
 70
0
 10
654.0499999999884
 20
552.4499999999898
 10
1301.7499999999854
 20
552.4499999999898
 10
1301.7499999999854
 20
0.0
 10
654.0499999999884
 20
0.0
 10
654.0499999999884
 20
552.4499999999898
  0
TEXT
  5
3B
330
17
100
AcDbEntity
  8
NESTED_RESULT
100
AcDbText
 10
977.8999999999869
 20
276.2249999999949
 30
0.0
 40
80.0
  1
219-D
 72
1
 11
977.8999999999869
 21
276.2249999999949
 31
0.0
100
AcDbText
 73
2
  0
LWPOLYLINE
  5
3C
330
17
100
AcDbEntity
  8
NESTED_RESULT
100
AcDbPolyline
 90
5
 70
0
 10
1692.2750000000087
 20
1203.3250000000044
 10
1692.2750000000087
 20
1705.0750000000044
 10
2343.150000000016
 20
1705.0750000000044
 10
2343.150000000016
 20
1203.3250000000044
 10
1692.2750000000087
 20
1203.3250000000044
  0
TEXT
  5
3D
330
17
100
AcDbEntity
  8
NESTED_RESULT
100
AcDbText
 10
2017.7125000000124
 20
1454.2000000000044
 30
0.0
 40
80.0
  1
201-A
 72
1
 11
2017.7125000000124
 21
1454.2000000000044
 31
0.0
100
AcDbText
 73
2
  0
LWPOLYLINE
  5
3E
330
17
100
AcDbEntity
  8
NESTED_RESULT
 62
1
100
AcDbPolyline
 90
5
 70
0
 10
3400.0
 20
0.0
 10
6600.0
 20
0.0
 10
6600.0
 20
1800.0
 10
3400.0
 20
1800.0
 10
3400.0
 20
0.0
  0
TEXT
  5
3F
330
17
100
AcDbEntity
  8
NESTED_RESULT
 62
1
100
AcDbText
 10
3400.0
 20
1830.0
 30
0.0
 40
50.0
  1
Sheet_2
 11
3400.0
 21
1830.0
 31
0.0
100
AcDbText
 73
1
  0
LWPOLYLINE
  5
40
330
17
100
AcDbEntity
  8
NESTED_RESULT
100
AcDbPolyline
 90
7
 70
0
 10
5832.049999999988
 20
1203.3250000000044
 10
3400.0
 20
1203.3250000000044
 10
3400.0
 20
0.0
 10
4047.699999999997
 20
0.0
 10
4047.699999999997
 20
555.6249999999927
 10
5832.049999999988
 20
555.6249999999927
 10
5832.049999999988
 20
1203.3250000000044
  0
TEXT
  5
41
330
17
100
AcDbEntity
  8
NESTED_RESULT
100
AcDbText
 10
3779.7109313964825
 20
824.0264465332043
 30
0.0
 40
80.0
  1
P-0004
 72
1
 11
3779.7109313964825
 21
824.0264465332043
 31
0.0
100
AcDbText
 73
2
  0
LWPOLYLINE
  5
42
330
17
100
AcDbEntity
  8
NESTED_RESULT
100
AcDbPolyline
 90
5
 70
0
 10
5832.049999999988
 20
0.0
 10
5832.049999999988
 20
1676.3999999999942
 10
6422.599999999984
 20
1676.3999999999942
 10
6422.599999999984
 20
0.0
 10
5832.049999999988
 20
0.0
  0
TEXT
  5
43
330
17
100
AcDbEntity
  8
NESTED_RESULT
100
AcDbText
 10
6127.324999999986
 20
838.1999999999971
 30
0.0
 40
80.0
  1
202-E
 72
1
 11
6127.324999999986
 21
838.1999999999971
 31
0.0
100
AcDbText
 73
2
  0
LWPOLYLINE
  5
44
330
17
100
AcDbEntity
  8
NESTED_RESULT
100
AcDbPolyline
 90
5
 70
0
 10
3400.0
 20
1793.8750000000146
 10
5070.050000000003
 20
1793.8750000000146
 10
5070.050000000003
 20
1203.3250000000044
 10
3400.0
 20
1203.3250000000044
 10
3400.0
 20
1793.8750000000146
  0
TEXT
  5
45
330
17
100
AcDbEntity
  8
NESTED_RESULT
100
AcDbText
 10
4235.0250000000015
 20
1498.6000000000095
 30
0.0
 40
80.0
  1
222-E
 72
1
 11
4235.0250000000015
 21
1498.6000000000095
 31
0.0
100
AcDbText
 73
2
  0
LWPOLYLINE
  5
46
330
17
100
AcDbEntity
  8
NESTED_RESULT
100
AcDbPolyline
 90
5
 70
0
 10
4048.050000000003
 20
0.0
 10
4048.050000000003
 20
501.650000000016
 10
4695.750000000007
 20
501.650000000016
 10
4695.750000000007
 20
0.0
 10
4048.050000000003
 20
0.0
  0
TEXT
  5
47
330
17
100
AcDbEntity
  8
NESTED_RESULT
100
AcDbText
 10
4371.900000000005
 20
250.825000000008
 30
0.0
 40
80.0
  1
223-B
 72
1
 11
4371.900000000005
 21
250.825000000008
 31
0.0
100
AcDbText
 73
2
  0
LWPOLYLINE
  5
48
330
17
100
AcDbEntity
  8
NESTED_RESULT
100
AcDbPolyline
 90
5
 70
0
 10
4695.750000000007
 20
452.4375
 10
5343.450000000019
 20
452.4375
 10
5343.450000000019
 20
0.0
 10
4695.750000000007
 20
0.0
 10
4695.750000000007
 20
452.4375
  0
TEXT
  5
49
330
17
100
AcDbEntity
  8
NESTED_RESULT
100
AcDbText
 10
5019.600000000013
 20
226.21875
 30
0.0
 40
80.0
  1
220-D
 72
1
 11
5019.600000000013
 21
226.21875
 31
0.0
100
AcDbText
 73
2
  0
LWPOLYLINE
  5
4A
330
17
100
AcDbEntity
  8
NESTED_RESULT
100
AcDbPolyline
 90
5
 70
0
 10
5070.050000000003
 20
1654.1749999999956
 10
5717.75
 20
1654.1749999999956
 10
5717.75
 20
1203.3250000000044
 10
5070.050000000003
 20
1203.3250000000044
 10
5070.050000000003
 20
1654.1749999999956
  0
TEXT
  5
4B
330
17
100
AcDbEntity
  8
NESTED_RESULT
100
AcDbText
 10
5393.9000000000015
 20
1428.75
 30
0.0
 40
80.0
  1
204-C
 72
1
 11
5393.9000000000015
 21
1428.75
 31
0.0
100
AcDbText
 73
2
  0
LWPOLYLINE
  5
4C
330
17
100
AcDbEntity
  8
NESTED_RESULT
 62
1
100
AcDbPolyline
 90
5
 70
0
 10
6800.0
 20
0.0
 10
10000.0
 20
0.0
 10
10000.0
 20
1800.0
 10
6800.0
 20
1800.0
 10
6800.0
 20
0.0
  0
TEXT
  5
4D
330
17
100
AcDbEntity
  8
NESTED_RESULT
 62
1
100
AcDbText
 10
6800.0
 20
1830.0
 30
0.0
 40
50.0
  1
Sheet_3
 11
6800.0
 21
1830.0
 31
0.0
100
AcDbText
 73
1
  0
LWPOLYLINE
  5
4E
330
17
100
AcDbEntity
  8
NESTED_RESULT
100
AcDbPolyline
 90
5
 70
0
 10
6800.0
 20
952.3000000000029
 10
8692.300000000017
 20
952.3000000000029
 10
8692.300000000017
 20
0.0
 10
6800.0
 20
0.0
 10
6800.0
 20
952.3000000000029
  0
TEXT
  5
4F
330
17
100
AcDbEntity
  8
NESTED_RESULT
100
AcDbText
 10
7746.150000000009
 20
476.15000000000146
 30
0.0
 40
80.0
  1
222-D
 72
1
 11
7746.150000000009
 21
476.15000000000146
 31
0.0
100
AcDbText
 73
2
  0
LWPOLYLINE
  5
50
330
17
100
AcDbEntity
  8
NESTED_RESULT
100
AcDbPolyline
 90
5
 70
0
 10
8692.300000000017
 20
0.0
 10
8692.300000000017
 20
1790.699999999997
 10
9644.600000000013
 20
1790.699999999997
 10
9644.600000000013
 20
0.0
 10
8692.300000000017
 20
0.0
  0
TEXT
  5
51
330
17
100
AcDbEntity
  8
NESTED_RESULT
100
AcDbText
 10
9168.450000000015
 20
895.3499999999985
 30
0.0
 40
80.0
  1
220-C
 72
1
 11
9168.450000000015
 21
895.3499999999985
 31
0.0
100
AcDbText
 73
2
  0
LWPOLYLINE
  5
52
330
17
100
AcDbEntity
  8
NESTED_RESULT
100
AcDbPolyline
 90
5
 70
0
 10
6800.0
 20
1603.175000000003
 10
8668.487999999998
 20
1603.175000000003
 10
8668.487999999998
 20
952.3000000000029
 10
6800.0
 20
952.3000000000029
 10
6800.0
 20
1603.175000000003
  0
TEXT
  5
53
330
17
100
AcDbEntity
  8
NESTED_RESULT
100
AcDbText
 10
7734.243999999999
 20
1277.737500000003
 30
0.0
 40
80.0
  1
217-B
 72
1
 11
7734.243999999999
 21
1277.737500000003
 31
0.0
100
AcDbText
 73
2
  0
LWPOLYLINE
  5
54
330
17
100
AcDbEntity
  8
NESTED_RESULT
 62
1
100
AcDbPolyline
 90
5
 70
0
 10
10200.0
 20
0.0
 10
13400.0
 20
0.0
 10
13400.0
 20
1800.0
 10
10200.0
 20
1800.0
 10
10200.0
 20
0.0
  0
TEXT
  5
55
330
17
100
AcDbEntity
  8
NESTED_RESULT
 62
1
100
AcDbText
 10
10200.0
 20
1830.0
 30
0.0
 40
50.0
  1
Sheet_4
 11
10200.0
 21
1830.0
 31
0.0
100
AcDbText
 73
1
  0
LWPOLYLINE
  5
56
330
17
100
AcDbEntity
  8
NESTED_RESULT
100
AcDbPolyline
 90
5
 70
0
 10
10200.0
 20
952.3000000000029
 10
12092.30000000001
 20
952.3000000000029
 10
12092.30000000001
 20
0.0
 10
10200.0
 20
0.0
 10
10200.0
 20
952.3000000000029
  0
TEXT
  5
57
330
17
100
AcDbEntity
  8
NESTED_RESULT
100
AcDbText
 10
11146.150000000005
 20
476.15000000000146
 30
0.0
 40
80.0
  1
221-D
 72
1
 11
11146.150000000005
 21
476.15000000000146
 31
0.0
100
AcDbText
 73
2
  0
LWPOLYLINE
  5
58
330
17
100
AcDbEntity
  8
NESTED_RESULT
100
AcDbPolyline
 90
5
 70
0
 10
12092.30000000001
 20
1790.699999999997
 10
12092.30000000001
 20
0.0
 10
13044.600000000006
 20
0.0
 10
13044.600000000006
 20
1790.699999999997
 10
12092.30000000001
 20
1790.699999999997
  0
TEXT
  5
59
330
17
100
AcDbEntity
  8
NESTED_RESULT
100
AcDbText
 10
12568.450000000008
 20
895.3499999999985
 30
0.0
 40
80.0
  1
204-D
 72
1
 11
12568.450000000008
 21
895.3499999999985
 31
0.0
100
AcDbText
 73
2
  0
LWPOLYLINE
  5
5A
330
17
100
AcDbEntity
  8
NESTED_RESULT
100
AcDbPolyline
 90
5
 70
0
 10
10200.0
 20
1603.1750000000102
 10
12065.31300000001
 20
1603.1750000000102
 10
12065.31300000001
 20
952.3000000000029
 10
10200.0
 20
952.3000000000029
 10
10200.0
 20
1603.1750000000102
  0
TEXT
  5
5B
330
17
100
AcDbEntity
  8
NESTED_RESULT
100
AcDbText
 10
11132.656500000005
 20
1277.7375000000065
 30
0.0
 40
80.0
  1
215-A
 72
1
 11
11132.656500000005
 21
1277.7375000000065
 31
0.0
100
AcDbText
 73
2
  0
LWPOLYLINE
  5
5C
330
17
100
AcDbEntity
  8
NESTED_RESULT
 62
1
100
AcDbPolyline
 90
5
 70
0
 10
13600.0
 20
0.0
 10
16800.0
 20
0.0
 10
16800.0
 20
1800.0
 10
13600.0
 20
1800.0
 10
13600.0
 20
0.0
  0
TEXT
  5
5D
330
17
100
AcDbEntity
  8
NESTED_RESULT
 62
1
100
AcDbText
 10
13600.0
 20
1830.0
 30
0.0
 40
50.0
  1
Sheet_5
 11
13600.0
 21
1830.0
 31
0.0
100
AcDbText
 73
1
  0
LWPOLYLINE
  5
5E
330
17
100
AcDbEntity
  8
NESTED_RESULT
100
AcDbPolyline
 90
5
 70
0
 10
13600.0
 20
952.3000000000029
 10
15492.299999999996
 20
952.3000000000029
 10
15492.299999999996
 20
0.0
 10
13600.0
 20
0.0
 10
13600.0
 20
952.3000000000029
  0
TEXT
  5
5F
330
17
100
AcDbEntity
  8
NESTED_RESULT
100
AcDbText
 10
14546.149999999998
 20
476.15000000000146
 30
0.0
 40
80.0
  1
223-C
 72
1
 11
14546.149999999998
 21
476.15000000000146
 31
0.0
100
AcDbText
 73
2
  0
LWPOLYLINE
  5
60
330
17
100
AcDbEntity
  8
NESTED_RESULT
100
AcDbPolyline
 90
5
 70
0
 10
15492.299999999996
 20
0.0
 10
15492.299999999996
 20
1790.7000000000116
 10
16441.42500000001
 20
1790.7000000000116
 10
16441.42500000001
 20
0.0
 10
15492.299999999996
 20
0.0
  0
TEXT
  5
61
330
17
100
AcDbEntity
  8
NESTED_RESULT
100
AcDbText
 10
15966.862500000003
 20
895.3500000000058
 30
0.0
 40
80.0
  1
209-D
 72
1
 11
15966.862500000003
 21
895.3500000000058
 31
0.0
100
AcDbText
 73
2
  0
LWPOLYLINE
  5
62
330
17
100
AcDbEntity
  8
NESTED_RESULT
100
AcDbPolyline
 90
5
 70
0
 10
13600.0
 20
1603.175000000003
 10
15465.312999999995
 20
1603.175000000003
 10
15465.312999999995
 20
952.3000000000029
 10
13600.0
 20
952.3000000000029
 10
13600.0
 20
1603.175000000003
  0
TEXT
  5
63
330
17
100
AcDbEntity
  8
NESTED_RESULT
100
AcDbText
 10
14532.656499999997
 20
1277.737500000003
 30
0.0
 40
80.0
  1
218-A
 72
1
 11
14532.656499999997
 21
1277.737500000003
 31
0.0
100
AcDbText
 73
2
  0
LWPOLYLINE
  5
64
330
17
100
AcDbEntity
  8
NESTED_RESULT
 62
1
100
AcDbPolyline
 90
5
 70
0
 10
17000.0
 20
0.0
 10
20200.0
 20
0.0
 10
20200.0
 20
1800.0
 10
17000.0
 20
1800.0
 10
17000.0
 20
0.0
  0
TEXT
  5
65
330
17
100
AcDbEntity
  8
NESTED_RESULT
 62
1
100
AcDbText
 10
17000.0
 20
1830.0
 30
0.0
 40
50.0
  1
Sheet_6
 11
17000.0
 21
1830.0
 31
0.0
100
AcDbText
 73
1
  0
LWPOLYLINE
  5
66
330
17
100
AcDbEntity
  8
NESTED_RESULT
100
AcDbPolyline
 90
5
 70
0
 10
17000.0
 20
584.2000000000044
 10
18663.699999999983
 20
584.2000000000044
 10
18663.699999999983
 20
0.0
 10
17000.0
 20
0.0
 10
17000.0
 20
584.2000000000044
  0
TEXT
  5
67
330
17
100
AcDbEntity
  8
NESTED_RESULT
100
AcDbText
 10
17831.84999999999
 20
292.1000000000022
 30
0.0
 40
80.0
  1
213-D
 72
1
 11
17831.84999999999
 21
292.1000000000022
 31
0.0
100
AcDbText
 73
2
  0
LWPOLYLINE
  5
68
330
17
100
AcDbEntity
  8
NESTED_RESULT
100
AcDbPolyline
 90
5
 70
0
 10
17000.0
 20
1168.4000000000015
 10
18663.699999999997
 20
1168.4000000000015
 10
18663.699999999997
 20
584.2000000000044
 10
17000.0
 20
584.2000000000044
 10
17000.0
 20
1168.4000000000015
  0
TEXT
  5
69
330
17
100
AcDbEntity
  8
NESTED_RESULT
100
AcDbText
 10
17831.85
 20
876.3000000000029
 30
0.0
 40
80.0
  1
214-D
 72
1
 11
17831.85
 21
876.3000000000029
 31
0.0
100
AcDbText
 73
2
  0
LWPOLYLINE
  5
6A
330
17
100
AcDbEntity
  8
NESTED_RESULT
100
AcDbPolyline
 90
5
 70
0
 10
18663.699999999997
 20
0.0
 10
18663.699999999997
 20
1654.1749999999884
 10
19251.075000000004
 20
1654.1749999999884
 10
19251.075000000004
 20
0.0
 10
18663.699999999997
 20
0.0
  0
TEXT
  5
6B
330
17
100
AcDbEntity
  8
NESTED_RESULT
100
AcDbText
 10
18957.3875
 20
827.0874999999942
 30
0.0
 40
80.0
  1
212-D
 72
1
 11
18957.3875
 21
827.0874999999942
 31
0.0
100
AcDbText
 73
2
  0
LWPOLYLINE
  5
6C
330
17
100
AcDbEntity
  8
NESTED_RESULT
100
AcDbPolyline
 90
5
 70
0
 10
19251.075000000004
 20
0.0
 10
19251.075000000004
 20
1654.175000000003
 10
19838.449999999997
 20
1654.175000000003
 10
19838.449999999997
 20
0.0
 10
19251.075000000004
 20
0.0
  0
TEXT
  5
6D
330
17
100
AcDbEntity
  8
NESTED_RESULT
100
AcDbText
 10
19544.7625
 20
827.0875000000015
 30
0.0
 40
80.0
  1
218-D
 72
1
 11
19544.7625
 21
827.0875000000015
 31
0.0
100
AcDbText
 73
2
  0
LWPOLYLINE
  5
6E
330
17
100
AcDbEntity
  8
NESTED_RESULT
100
AcDbPolyline
 90
5
 70
0
 10
17000.0
 20
1752.5999999999985
 10
18657.350000000006
 20
1752.5999999999985
 10
18657.350000000006
 20
1168.4000000000015
 10
17000.0
 20
1168.4000000000015
 10
17000.0
 20
1752.5999999999985
  0
TEXT
  5
6F
330
17
100
AcDbEntity
  8
NESTED_RESULT
100
AcDbText
 10
17828.675000000003
 20
1460.5
 30
0.0
 40
80.0
  1
206-D
 72
1
 11
17828.675000000003
 21
1460.5
 31
0.0
100
AcDbText
 73
2
  0
LWPOLYLINE
  5
70
330
17
100
AcDbEntity
  8
NESTED_RESULT
 62
1
100
AcDbPolyline
 90
5
 70
0
 10
0.0
 20
2000.0
 10
3200.0
 20
2000.0
 10
3200.0
 20
3800.0
 10
0.0
 20
3800.0
 10
0.0
 20
2000.0
  0
TEXT
  5
71
330
17
100
AcDbEntity
  8
NESTED_RESULT
 62
1
100
AcDbText
 10
0.0
 20
3830.0
 30
0.0
 40
50.0
  1
Sheet_7
 11
0.0
 21
3830.0
 31
0.0
100
AcDbText
 73
1
  0
LWPOLYLINE
  5
72
330
17
100
AcDbEntity
  8
NESTED_RESULT
100
AcDbPolyline
 90
5
 70
0
 10
0.0
 20
2584.2000000000044
 10
1657.3499999999767
 20
2584.2000000000044
 10
1657.3499999999767
 20
2000.0
 10
0.0
 20
2000.0
 10
0.0
 20
2584.2000000000044
  0
TEXT
  5
73
330
17
100
AcDbEntity
  8
NESTED_RESULT
100
AcDbText
 10
828.6749999999884
 20
2292.100000000002
 30
0.0
 40
80.0
  1
211-D
 72
1
 11
828.6749999999884
 21
2292.100000000002
 31
0.0
100
AcDbText
 73
2
  0
LWPOLYLINE
  5
74
330
17
100
AcDbEntity
  8
NESTED_RESULT
100
AcDbPolyline
 90
5
 70
0
 10
1657.3499999999767
 20
2587.375
 10
3162.299999999974
 20
2587.375
 10
3162.299999999974
 20
2000.0
 10
1657.3499999999767
 20
2000.0
 10
1657.3499999999767
 20
2587.375
  0
TEXT
  5
75
330
17
100
AcDbEntity
  8
NESTED_RESULT
100
AcDbText
 10
2409.8249999999753
 20
2293.6875
 30
0.0
 40
80.0
  1
203-C
 72
1
 11
2409.8249999999753
 21
2293.6875
 31
0.0
100
AcDbText
 73
2
  0
LWPOLYLINE
  5
76
330
17
100
AcDbEntity
  8
NESTED_RESULT
100
AcDbPolyline
 90
5
 70
0
 10
0.0
 20
3174.75
 10
1473.1999999999825
 20
3174.75
 10
1473.1999999999825
 20
2584.2000000000044
 10
0.0
 20
2584.2000000000044
 10
0.0
 20
3174.75
  0
TEXT
  5
77
330
17
100
AcDbEntity
  8
NESTED_RESULT
100
AcDbText
 10
736.5999999999913
 20
2879.475000000002
 30
0.0
 40
80.0
  1
222-C
 72
1
 11
736.5999999999913
 21
2879.475000000002
 31
0.0
100
AcDbText
 73
2
  0
LWPOLYLINE
  5
78
330
17
100
AcDbEntity
  8
NESTED_RESULT
100
AcDbPolyline
 90
5
 70
0
 10
1473.1999999999825
 20
3177.9249999999884
 10
2946.3999999999796
 20
3177.9249999999884
 10
2946.3999999999796
 20
2587.375
 10
1473.1999999999825
 20
2587.375
 10
1473.1999999999825
 20
3177.9249999999884
  0
TEXT
  5
79
330
17
100
AcDbEntity
  8
NESTED_RESULT
100
AcDbText
 10
2209.799999999981
 20
2882.649999999994
 30
0.0
 40
80.0
  1
202-C
 72
1
 11
2209.799999999981
 21
2882.649999999994
 31
0.0
100
AcDbText
 73
2
  0
LWPOLYLINE
  5
7A
330
17
100
AcDbEntity
  8
NESTED_RESULT
100
AcDbPolyline
 90
5
 70
0
 10
0.0
 20
3758.9500000000044
 10
1460.5
 20
3758.9500000000044
 10
1460.5
 20
3174.75
 10
0.0
 20
3174.75
 10
0.0
 20
3758.9500000000044
  0
TEXT
  5
7B
330
17
100
AcDbEntity
  8
NESTED_RESULT
100
AcDbText
 10
730.25
 20
3466.850000000002
 30
0.0
 40
80.0
  1
205-E
 72
1
 11
730.25
 21
3466.850000000002
 31
0.0
100
AcDbText
 73
2
  0
LWPOLYLINE
  5
7C
330
17
100
AcDbEntity
  8
NESTED_RESULT
100
AcDbPolyline
 90
5
 70
0
 10
1460.5
 20
3762.124999999978
 10
2920.9999999999927
 20
3762.124999999978
 10
2920.9999999999927
 20
3177.9249999999884
 10
1460.5
 20
3177.9249999999884
 10
1460.5
 20
3762.124999999978
  0
TEXT
  5
7D
330
17
100
AcDbEntity
  8
NESTED_RESULT
100
AcDbText
 10
2190.7499999999964
 20
3470.0249999999833
 30
0.0
 40
80.0
  1
221-C
 72
1
 11
2190.7499999999964
 21
3470.0249999999833
 31
0.0
100
AcDbText
 73
2
  0
LWPOLYLINE
  5
7E
330
17
100
AcDbEntity
  8
NESTED_RESULT
 62
1
100
AcDbPolyline
 90
5
 70
0
 10
3400.0
 20
2000.0
 10
6600.0
 20
2000.0
 10
6600.0
 20
3800.0
 10
3400.0
 20
3800.0
 10
3400.0
 20
2000.0
  0
TEXT
  5
7F
330
17
100
AcDbEntity
  8
NESTED_RESULT
 62
1
100
AcDbText
 10
3400.0
 20
3830.0
 30
0.0
 40
50.0
  1
Sheet_8
 11
3400.0
 21
3830.0
 31
0.0
100
AcDbText
 73
1
  0
LWPOLYLINE
  5
80
330
17
100
AcDbEntity
  8
NESTED_RESULT
100
AcDbPolyline
 90
5
 70
0
 10
3400.0
 20
2650.875
 10
5244.675000000032
 20
2650.875
 10
5244.675000000032
 20
2000.0
 10
3400.0
 20
2000.0
 10
3400.0
 20
2650.875
  0
TEXT
  5
81
330
17
100
AcDbEntity
  8
NESTED_RESULT
100
AcDbText
 10
4322.337500000016
 20
2325.4375
 30
0.0
 40
80.0
  1
213-B
 72
1
 11
4322.337500000016
 21
2325.4375
 31
0.0
100
AcDbText
 73
2
  0
LWPOLYLINE
  5
82
330
17
100
AcDbEntity
  8
NESTED_RESULT
100
AcDbPolyline
 90
5
 70
0
 10
3400.0
 20
3600.0
 10
5190.6999999999825
 20
3600.0
 10
5190.6999999999825
 20
2650.875
 10
3400.0
 20
2650.875
 10
3400.0
 20
3600.0
  0
TEXT
  5
83
330
17
100
AcDbEntity
  8
NESTED_RESULT
100
AcDbText
 10
4295.349999999991
 20
3125.4375
 30
0.0
 40
80.0
  1
213-C
 72
1
 11
4295.349999999991
 21
3125.4375
 31
0.0
100
AcDbText
 73
2
  0
LWPOLYLINE
  5
84
330
17
100
AcDbEntity
  8
NESTED_RESULT
100
AcDbPolyline
 90
5
 70
0
 10
5244.675000000032
 20
2000.0
 10
5244.675000000032
 20
3663.699999999997
 10
5832.050000000039
 20
3663.699999999997
 10
5832.050000000039
 20
2000.0
 10
5244.675000000032
 20
2000.0
  0
TEXT
  5
85
330
17
100
AcDbEntity
  8
NESTED_RESULT
100
AcDbText
 10
5538.362500000036
 20
2831.8499999999985
 30
0.0
 40
80.0
  1
217-D
 72
1
 11
5538.362500000036
 21
2831.8499999999985
 31
0.0
100
AcDbText
 73
2
  0
LWPOLYLINE
  5
86
330
17
100
AcDbEntity
  8
NESTED_RESULT
100
AcDbPolyline
 90
5
 70
0
 10
5832.050000000039
 20
2000.0
 10
5832.050000000039
 20
3663.699999999997
 10
6416.250000000051
 20
3663.699999999997
 10
6416.250000000051
 20
2000.0
 10
5832.050000000039
 20
2000.0
  0
TEXT
  5
87
330
17
100
AcDbEntity
  8
NESTED_RESULT
100
AcDbText
 10
6124.150000000045
 20
2831.8499999999985
 30
0.0
 40
80.0
  1
210-D
 72
1
 11
6124.150000000045
 21
2831.8499999999985
 31
0.0
100
AcDbText
 73
2
  0
LWPOLYLINE
  5
88
330
17
100
AcDbEntity
  8
NESTED_RESULT
 62
1
100
AcDbPolyline
 90
5
 70
0
 10
6800.0
 20
2000.0
 10
10000.0
 20
2000.0
 10
10000.0
 20
3800.0
 10
6800.0
 20
3800.0
 10
6800.0
 20
2000.0
  0
TEXT
  5
89
330
17
100
AcDbEntity
  8
NESTED_RESULT
 62
1
100
AcDbText
 10
6800.0
 20
3830.0
 30
0.0
 40
50.0
  1
Sheet_9
 11
6800.0
 21
3830.0
 31
0.0
100
AcDbText
 73
1
  0
LWPOLYLINE
  5
8A
330
17
100
AcDbEntity
  8
NESTED_RESULT
100
AcDbPolyline
 90
5
 70
0
 10
6800.0
 20
2587.375
 10
8457.350000000006
 20
2587.375
 10
8457.350000000006
 20
2000.0
 10
6800.0
 20
2000.0
 10
6800.0
 20
2587.375
  0
TEXT
  5
8B
330
17
100
AcDbEntity
  8
NESTED_RESULT
100
AcDbText
 10
7628.675000000003
 20
2293.6875
 30
0.0
 40
80.0
  1
216-D
 72
1
 11
7628.675000000003
 21
2293.6875
 31
0.0
100
AcDbText
 73
2
  0
LWPOLYLINE
  5
8C
330
17
100
AcDbEntity
  8
NESTED_RESULT
100
AcDbPolyline
 90
5
 70
0
 10
6800.0
 20
3174.75
 10
8457.349999999991
 20
3174.75
 10
8457.349999999991
 20
2587.375
 10
6800.0
 20
2587.375
 10
6800.0
 20
3174.75
  0
TEXT
  5
8D
330
17
100
AcDbEntity
  8
NESTED_RESULT
100
AcDbText
 10
7628.674999999996
 20
2881.0625
 30
0.0
 40
80.0
  1
209-C
 72
1
 11
7628.674999999996
 21
2881.0625
 31
0.0
100
AcDbText
 73
2
  0
LWPOLYLINE
  5
8E
330
17
100
AcDbEntity
  8
NESTED_RESULT
100
AcDbPolyline
 90
5
 70
0
 10
8457.350000000006
 20
2584.199999999997
 10
9914.675000000003
 20
2584.199999999997
 10
9914.675000000003
 20
2000.0
 10
8457.350000000006
 20
2000.0
 10
8457.350000000006
 20
2584.199999999997
  0
TEXT
  5
8F
330
17
100
AcDbEntity
  8
NESTED_RESULT
100
AcDbText
 10
9186.012500000004
 20
2292.0999999999985
 30
0.0
 40
80.0
  1
219-E
 72
1
 11
9186.012500000004
 21
2292.0999999999985
 31
0.0
100
AcDbText
 73
2
  0
LWPOLYLINE
  5
90
330
17
100
AcDbEntity
  8
NESTED_RESULT
100
AcDbPolyline
 90
5
 70
0
 10
9908.325000000012
 20
3168.4000000000087
 10
8457.350000000006
 20
3168.4000000000087
 10
8457.350000000006
 20
2584.199999999997
 10
9908.325000000012
 20
2584.199999999997
 10
9908.325000000012
 20
3168.4000000000087
  0
TEXT
  5
91
330
17
100
AcDbEntity
  8
NESTED_RESULT
100
AcDbText
 10
9182.837500000009
 20
2876.300000000003
 30
0.0
 40
80.0
  1
203-E
 72
1
 11
9182.837500000009
 21
2876.300000000003
 31
0.0
100
AcDbText
 73
2
  0
LWPOLYLINE
  5
92
330
17
100
AcDbEntity
  8
NESTED_RESULT
100
AcDbPolyline
 90
5
 70
0
 10
8457.349999999991
 20
3755.7750000000233
 10
9717.824999999997
 20
3755.7750000000233
 10
9717.824999999997
 20
3168.4000000000087
 10
8457.349999999991
 20
3168.4000000000087
 10
8457.349999999991
 20
3755.7750000000233
  0
TEXT
  5
93
330
17
100
AcDbEntity
  8
NESTED_RESULT
100
AcDbText
 10
9087.587499999994
 20
3462.087500000016
 30
0.0
 40
80.0
  1
204-B
 72
1
 11
9087.587499999994
 21
3462.087500000016
 31
0.0
100
AcDbText
 73
2
  0
LWPOLYLINE
  5
94
330
17
100
AcDbEntity
  8
NESTED_RESULT
100
AcDbPolyline
 90
5
 70
0
 10
6800.0
 20
3765.30000000001
 10
8054.125000000007
 20
3765.30000000001
 10
8054.125000000007
 20
3174.75
 10
6800.0
 20
3174.75
 10
6800.0
 20
3765.30000000001
  0
TEXT
  5
95
330
17
100
AcDbEntity
  8
NESTED_RESULT
100
AcDbText
 10
7427.062500000004
 20
3470.025000000005
 30
0.0
 40
80.0
  1
220-B
 72
1
 11
7427.062500000004
 21
3470.025000000005
 31
0.0
100
AcDbText
 73
2
  0
LWPOLYLINE
  5
96
330
17
100
AcDbEntity
  8
NESTED_RESULT
 62
1
100
AcDbPolyline
 90
5
 70
0
 10
10200.0
 20
2000.0
 10
13400.0
 20
2000.0
 10
13400.0
 20
3800.0
 10
10200.0
 20
3800.0
 10
10200.0
 20
2000.0
  0
TEXT
  5
97
330
17
100
AcDbEntity
  8
NESTED_RESULT
 62
1
100
AcDbText
 10
10200.0
 20
3830.0
 30
0.0
 40
50.0
  1
Sheet_10
 11
10200.0
 21
3830.0
 31
0.0
100
AcDbText
 73
1
  0
LWPOLYLINE
  5
98
330
17
100
AcDbEntity
  8
NESTED_RESULT
100
AcDbPolyline
 90
5
 70
0
 10
10200.0
 20
2949.1249999999854
 10
11990.699999999997
 20
2949.1249999999854
 10
11990.699999999997
 20
2000.0
 10
10200.0
 20
2000.0
 10
10200.0
 20
2949.1249999999854
  0
TEXT
  5
99
330
17
100
AcDbEntity
  8
NESTED_RESULT
100
AcDbText
 10
11095.349999999999
 20
2474.5624999999927
 30
0.0
 40
80.0
  1
214-C
 72
1
 11
11095.349999999999
 21
2474.5624999999927
 31
0.0
100
AcDbText
 73
2
  0
LWPOLYLINE
  5
9A
330
17
100
AcDbEntity
  8
NESTED_RESULT
100
AcDbPolyline
 90
5
 70
0
 10
10200.0
 20
3600.0
 10
12139.925000000003
 20
3600.0
 10
12139.925000000003
 20
2949.1250000000146
 10
10200.0
 20
2949.1250000000146
 10
10200.0
 20
3600.0
  0
TEXT
  5
9B
330
17
100
AcDbEntity
  8
NESTED_RESULT
100
AcDbText
 10
11169.962500000001
 20
3274.5625000000073
 30
0.0
 40
80.0
  1
202-B
 72
1
 11
11169.962500000001
 21
3274.5625000000073
 31
0.0
100
AcDbText
 73
2
  0
LWPOLYLINE
  5
9C
330
17
100
AcDbEntity
  8
NESTED_RESULT
100
AcDbPolyline
 90
7
 70
0
 10
11990.699999999997
 20
2900.1129999999976
 10
11990.699999999997
 20
2000.0
 10
13290.862999999983
 20
2000.0
 10
13290.862999999983
 20
2650.875
 10
12641.574999999997
 20
2650.875
 10
12641.574999999997
 20
2900.1129999999976
 10
11990.699999999997
 20
2900.1129999999976
  0
TEXT
  5
9D
330
17
100
AcDbEntity
  8
NESTED_RESULT
100
AcDbText
 10
12371.924551513664
 20
2381.1757941894525
 30
0.0
 40
80.0
  1
P-0007
 72
1
 11
12371.924551513664
 21
2381.1757941894525
 31
0.0
100
AcDbText
 73
2
  0
LWPOLYLINE
  5
9E
330
17
100
AcDbEntity
  8
NESTED_RESULT
100
AcDbPolyline
 90
7
 70
0
 10
12139.925000000003
 20
3798.6379999999917
 10
12139.925000000003
 20
2900.1129999999976
 10
12790.800000000003
 20
2900.1129999999976
 10
12790.800000000003
 20
3147.7629999999917
 10
13387.700000000012
 20
3147.7629999999917
 10
13387.700000000012
 20
3798.6379999999917
 10
12139.925000000003
 20
3798.6379999999917
  0
TEXT
  5
9F
330
17
100
AcDbEntity
  8
NESTED_RESULT
100
AcDbText
 10
12521.020343017584
 20
3417.3085627441355
 30
0.0
 40
80.0
  1
P-0017
 72
1
 11
12521.020343017584
 21
3417.3085627441355
 31
0.0
100
AcDbText
 73
2
  0
LWPOLYLINE
  5
A0
330
17
100
AcDbEntity
  8
NESTED_RESULT
 62
1
100
AcDbPolyline
 90
5
 70
0
 10
13600.0
 20
2000.0
 10
16800.0
 20
2000.0
 10
16800.0
 20
3800.0
 10
13600.0
 20
3800.0
 10
13600.0
 20
2000.0
  0
TEXT
  5
A1
330
17
100
AcDbEntity
  8
NESTED_RESULT
 62
1
100
AcDbText
 10
13600.0
 20
3830.0
 30
0.0
 40
50.0
  1
Sheet_11
 11
13600.0
 21
3830.0
 31
0.0
100
AcDbText
 73
1
  0
LWPOLYLINE
  5
A2
330
17
100
AcDbEntity
  8
NESTED_RESULT
100
AcDbPolyline
 90
5
 70
0
 10
13600.0
 20
2949.125
 10
15390.699999999983
 20
2949.125
 10
15390.699999999983
 20
2000.0
 10
13600.0
 20
2000.0
 10
13600.0
 20
2949.125
  0
TEXT
  5
A3
330
17
100
AcDbEntity
  8
NESTED_RESULT
100
AcDbText
 10
14495.349999999991
 20
2474.5625
 30
0.0
 40
80.0
  1
212-C
 72
1
 11
14495.349999999991
 21
2474.5625
 31
0.0
100
AcDbText
 73
2
  0
LWPOLYLINE
  5
A4
330
17
100
AcDbEntity
  8
NESTED_RESULT
100
AcDbPolyline
 90
5
 70
0
 10
13600.0
 20
3597.0
 10
15538.337500000023
 20
3597.0
 10
15538.337500000023
 20
2949.300000000003
 10
13600.0
 20
2949.300000000003
 10
13600.0
 20
3597.0
  0
TEXT
  5
A5
330
17
100
AcDbEntity
  8
NESTED_RESULT
100
AcDbText
 10
14569.168750000012
 20
3273.1500000000015
 30
0.0
 40
80.0
  1
222-A
 72
1
 11
14569.168750000012
 21
3273.1500000000015
 31
0.0
100
AcDbText
 73
2
  0
LWPOLYLINE
  5
A6
330
17
100
AcDbEntity
  8
NESTED_RESULT
100
AcDbPolyline
 90
7
 70
0
 10
15390.699999999983
 20
2900.113000000012
 10
15390.699999999983
 20
2000.0
 10
16041.574999999983
 20
2000.0
 10
16041.574999999983
 20
2249.2380000000267
 10
16690.862999999983
 20
2249.2380000000267
 10
16690.862999999983
 20
2900.113000000012
 10
15390.699999999983
 20
2900.113000000012
  0
TEXT
  5
A7
330
17
100
AcDbEntity
  8
NESTED_RESULT
100
AcDbText
 10
15771.924551513654
 20
2518.9372058105528
 30
0.0
 40
80.0
  1
P-0006
 72
1
 11
15771.924551513654
 21
2518.9372058105528
 31
0.0
100
AcDbText
 73
2
  0
LWPOLYLINE
  5
A8
330
17
100
AcDbEntity
  8
NESTED_RESULT
100
AcDbPolyline
 90
7
 70
0
 10
15538.337500000023
 20
3798.638000000021
 10
15538.337500000023
 20
2900.113000000012
 10
16789.287500000028
 20
2900.113000000012
 10
16789.287500000028
 20
3550.4880000000267
 10
16189.212500000023
 20
3550.4880000000267
 10
16189.212500000023
 20
3798.638000000021
 10
15538.337500000023
 20
3798.638000000021
  0
TEXT
  5
A9
330
17
100
AcDbEntity
  8
NESTED_RESULT
100
AcDbText
 10
15919.486328125025
 20
3280.9641718750163
 30
0.0
 40
80.0
  1
P-0016
 72
1
 11
15919.486328125025
 21
3280.9641718750163
 31
0.0
100
AcDbText
 73
2
  0
LWPOLYLINE
  5
AA
330
17
100
AcDbEntity
  8
NESTED_RESULT
 62
1
100
AcDbPolyline
 90
5
 70
0
 10
17000.0
 20
2000.0
 10
20200.0
 20
2000.0
 10
20200.0
 20
3800.0
 10
17000.0
 20
3800.0
 10
17000.0
 20
2000.0
  0
TEXT
  5
AB
330
17
100
AcDbEntity
  8
NESTED_RESULT
 62
1
100
AcDbText
 10
17000.0
 20
3830.0
 30
0.0
 40
50.0
  1
Sheet_12
 11
17000.0
 21
3830.0
 31
0.0
100
AcDbText
 73
1
  0
LWPOLYLINE
  5
AC
330
17
100
AcDbEntity
  8
NESTED_RESULT
100
AcDbPolyline
 90
5
 70
0
 10
17000.0
 20
2000.0
 10
17000.0
 20
3790.699999999997
 10
17949.125
 20
3790.699999999997
 10
17949.125
 20
2000.0
 10
17000.0
 20
2000.0
  0
TEXT
  5
AD
330
17
100
AcDbEntity
  8
NESTED_RESULT
100
AcDbText
 10
17474.5625
 20
2895.3499999999985
 30
0.0
 40
80.0
  1
215-C
 72
1
 11
17474.5625
 21
2895.3499999999985
 31
0.0
100
AcDbText
 73
2
  0
LWPOLYLINE
  5
AE
330
17
100
AcDbEntity
  8
NESTED_RESULT
100
AcDbPolyline
 90
5
 70
0
 10
17949.125
 20
2000.0
 10
17949.125
 20
3790.6999999998943
 10
18898.25
 20
3790.6999999998943
 10
18898.25
 20
2000.0
 10
17949.125
 20
2000.0
  0
TEXT
  5
AF
330
17
100
AcDbEntity
  8
NESTED_RESULT
100
AcDbText
 10
18423.6875
 20
2895.349999999947
 30
0.0
 40
80.0
  1
208-C
 72
1
 11
18423.6875
 21
2895.349999999947
 31
0.0
100
AcDbText
 73
2
  0
LWPOLYLINE
  5
B0
330
17
100
AcDbEntity
  8
NESTED_RESULT
100
AcDbPolyline
 90
5
 70
0
 10
19549.125
 20
2650.875
 10
18898.25
 20
2650.875
 10
18898.25
 20
2000.0
 10
19549.125
 20
2000.0
 10
19549.125
 20
2650.875
  0
TEXT
  5
B1
330
17
100
AcDbEntity
  8
NESTED_RESULT
100
AcDbText
 10
19223.6875
 20
2325.4375
 30
0.0
 40
80.0
  1
203-A
 72
1
 11
19223.6875
 21
2325.4375
 31
0.0
100
AcDbText
 73
2
  0
LWPOLYLINE
  5
B2
330
17
100
AcDbEntity
  8
NESTED_RESULT
100
AcDbPolyline
 90
5
 70
0
 10
18898.25
 20
2650.875
 10
18898.25
 20
3481.137499999997
 10
19549.124999999985
 20
3481.137499999997
 10
19549.124999999985
 20
2650.875
 10
18898.25
 20
2650.875
  0
TEXT
  5
B3
330
17
100
AcDbEntity
  8
NESTED_RESULT
100
AcDbText
 10
19223.687499999993
 20
3066.0062499999985
 30
0.0
 40
80.0
  1
202-A
 72
1
 11
19223.687499999993
 21
3066.0062499999985
 31
0.0
100
AcDbText
 73
2
  0
LWPOLYLINE
  5
B4
330
17
100
AcDbEntity
  8
NESTED_RESULT
100
AcDbPolyline
 90
5
 70
0
 10
19549.124999999985
 20
2650.875
 10
19549.124999999985
 20
3479.550000000003
 10
20196.824999999983
 20
3479.550000000003
 10
20196.824999999983
 20
2650.875
 10
19549.124999999985
 20
2650.875
  0
TEXT
  5
B5
330
17
100
AcDbEntity
  8
NESTED_RESULT
100
AcDbText
 10
19872.974999999984
 20
3065.2125000000015
 30
0.0
 40
80.0
  1
222-B
 72
1
 11
19872.974999999984
 21
3065.2125000000015
 31
0.0
100
AcDbText
 73
2
  0
LWPOLYLINE
  5
B6
330
17
100
AcDbEntity
  8
NESTED_RESULT
 62
1
100
AcDbPolyline
 90
5
 70
0
 10
0.0
 20
4000.0
 10
3200.0
 20
4000.0
 10
3200.0
 20
5800.0
 10
0.0
 20
5800.0
 10
0.0
 20
4000.0
  0
TEXT
  5
B7
330
17
100
AcDbEntity
  8
NESTED_RESULT
 62
1
100
AcDbText
 10
0.0
 20
5830.0
 30
0.0
 40
50.0
  1
Sheet_13
 11
0.0
 21
5830.0
 31
0.0
100
AcDbText
 73
1
  0
LWPOLYLINE
  5
B8
330
17
100
AcDbEntity
  8
NESTED_RESULT
100
AcDbPolyline
 90
5
 70
0
 10
0.0
 20
4650.875
 10
1844.6749999999884
 20
4650.875
 10
1844.6749999999884
 20
4000.0
 10
0.0
 20
4000.0
 10
0.0
 20
4650.875
  0
TEXT
  5
B9
330
17
100
AcDbEntity
  8
NESTED_RESULT
100
AcDbText
 10
922.3374999999942
 20
4325.4375
 30
0.0
 40
80.0
  1
209-B
 72
1
 11
922.3374999999942
 21
4325.4375
 31
0.0
100
AcDbText
 73
2
  0
LWPOLYLINE
  5
BA
330
17
100
AcDbEntity
  8
NESTED_RESULT
100
AcDbPolyline
 90
5
 70
0
 10
0.0
 20
5600.0
 10
1790.699999999997
 20
5600.0
 10
1790.699999999997
 20
4650.875
 10
0.0
 20
4650.875
 10
0.0
 20
5600.0
  0
TEXT
  5
BB
330
17
100
AcDbEntity
  8
NESTED_RESULT
100
AcDbText
 10
895.3499999999985
 20
5125.4375
 30
0.0
 40
80.0
  1
218-C
 72
1
 11
895.3499999999985
 21
5125.4375
 31
0.0
100
AcDbText
 73
2
  0
LWPOLYLINE
  5
BC
330
17
100
AcDbEntity
  8
NESTED_RESULT
100
AcDbPolyline
 90
5
 70
0
 10
1845.125
 20
4000.0
 10
1845.125
 20
5657.350000000006
 10
2432.5
 20
5657.350000000006
 10
2432.5
 20
4000.0
 10
1845.125
 20
4000.0
  0
TEXT
  5
BD
330
17
100
AcDbEntity
  8
NESTED_RESULT
100
AcDbText
 10
2138.8125
 20
4828.675000000003
 30
0.0
 40
80.0
  1
215-D
 72
1
 11
2138.8125
 21
4828.675000000003
 31
0.0
100
AcDbText
 73
2
  0
LWPOLYLINE
  5
BE
330
17
100
AcDbEntity
  8
NESTED_RESULT
100
AcDbPolyline
 90
5
 70
0
 10
2432.5
 20
4000.0
 10
2432.5
 20
5657.349999999991
 10
3026.2249999999985
 20
5657.349999999991
 10
3026.2249999999985
 20
4000.0
 10
2432.5
 20
4000.0
  0
TEXT
  5
BF
330
17
100
AcDbEntity
  8
NESTED_RESULT
100
AcDbText
 10
2729.3624999999993
 20
4828.674999999996
 30
0.0
 40
80.0
  1
208-D
 72
1
 11
2729.3624999999993
 21
4828.674999999996
 31
0.0
100
AcDbText
 73
2
  0
LWPOLYLINE
  5
C0
330
17
100
AcDbEntity
  8
NESTED_RESULT
 62
1
100
AcDbPolyline
 90
5
 70
0
 10
3400.0
 20
4000.0
 10
6600.0
 20
4000.0
 10
6600.0
 20
5800.0
 10
3400.0
 20
5800.0
 10
3400.0
 20
4000.0
  0
TEXT
  5
C1
330
17
100
AcDbEntity
  8
NESTED_RESULT
 62
1
100
AcDbText
 10
3400.0
 20
5830.0
 30
0.0
 40
50.0
  1
Sheet_14
 11
3400.0
 21
5830.0
 31
0.0
100
AcDbText
 73
1
  0
LWPOLYLINE
  5
C2
330
17
100
AcDbEntity
  8
NESTED_RESULT
100
AcDbPolyline
 90
5
 70
0
 10
3400.0
 20
4949.125000000007
 10
5292.300000000003
 20
4949.125000000007
 10
5292.300000000003
 20
4000.0
 10
3400.0
 20
4000.0
 10
3400.0
 20
4949.125000000007
  0
TEXT
  5
C3
330
17
100
AcDbEntity
  8
NESTED_RESULT
100
AcDbText
 10
4346.1500000000015
 20
4474.562500000004
 30
0.0
 40
80.0
  1
201-C
 72
1
 11
4346.1500000000015
 21
4474.562500000004
 31
0.0
100
AcDbText
 73
2
  0
LWPOLYLINE
  5
C4
330
17
100
AcDbEntity
  8
NESTED_RESULT
100
AcDbPolyline
 90
5
 70
0
 10
5292.375
 20
4000.0
 10
5292.375
 20
5790.700000000012
 10
6241.5
 20
5790.700000000012
 10
6241.5
 20
4000.0
 10
5292.375
 20
4000.0
  0
TEXT
  5
C5
330
17
100
AcDbEntity
  8
NESTED_RESULT
100
AcDbText
 10
5766.9375
 20
4895.350000000006
 30
0.0
 40
80.0
  1
216-C
 72
1
 11
5766.9375
 21
4895.350000000006
 31
0.0
100
AcDbText
 73
2
  0
LWPOLYLINE
  5
C6
330
17
100
AcDbEntity
  8
NESTED_RESULT
100
AcDbPolyline
 90
5
 70
0
 10
3400.0
 20
5600.000000000007
 10
5260.549999999974
 20
5600.000000000007
 10
5260.549999999974
 20
4949.125000000007
 10
3400.0
 20
4949.125000000007
 10
3400.0
 20
5600.000000000007
  0
TEXT
  5
C7
330
17
100
AcDbEntity
  8
NESTED_RESULT
100
AcDbText
 10
4330.274999999987
 20
5274.562500000007
 30
0.0
 40
80.0
  1
210-A
 72
1
 11
4330.274999999987
 21
5274.562500000007
 31
0.0
100
AcDbText
 73
2
  0
LWPOLYLINE
  5
C8
330
17
100
AcDbEntity
  8
NESTED_RESULT
 62
1
100
AcDbPolyline
 90
5
 70
0
 10
6800.0
 20
4000.0
 10
10000.0
 20
4000.0
 10
10000.0
 20
5800.0
 10
6800.0
 20
5800.0
 10
6800.0
 20
4000.0
  0
TEXT
  5
C9
330
17
100
AcDbEntity
  8
NESTED_RESULT
 62
1
100
AcDbText
 10
6800.0
 20
5830.0
 30
0.0
 40
50.0
  1
Sheet_15
 11
6800.0
 21
5830.0
 31
0.0
100
AcDbText
 73
1
  0
LWPOLYLINE
  5
CA
330
17
100
AcDbEntity
  8
NESTED_RESULT
100
AcDbPolyline
 90
5
 70
0
 10
6800.0
 20
4952.299999999996
 10
8692.300000000003
 20
4952.299999999996
 10
8692.300000000003
 20
4000.0
 10
6800.0
 20
4000.0
 10
6800.0
 20
4952.299999999996
  0
TEXT
  5
CB
330
17
100
AcDbEntity
  8
NESTED_RESULT
100
AcDbText
 10
7746.1500000000015
 20
4476.149999999998
 30
0.0
 40
80.0
  1
219-C
 72
1
 11
7746.1500000000015
 21
4476.149999999998
 31
0.0
100
AcDbText
 73
2
  0
LWPOLYLINE
  5
CC
330
17
100
AcDbEntity
  8
NESTED_RESULT
100
AcDbPolyline
 90
5
 70
0
 10
6800.0
 20
5603.175000000003
 10
8660.550000000032
 20
5603.175000000003
 10
8660.550000000032
 20
4952.299999999996
 10
6800.0
 20
4952.299999999996
 10
6800.0
 20
5603.175000000003
  0
TEXT
  5
CD
330
17
100
AcDbEntity
  8
NESTED_RESULT
100
AcDbText
 10
7730.275000000016
 20
5277.737499999999
 30
0.0
 40
80.0
  1
216-B
 72
1
 11
7730.275000000016
 21
5277.737499999999
 31
0.0
100
AcDbText
 73
2
  0
LWPOLYLINE
  5
CE
330
17
100
AcDbEntity
  8
NESTED_RESULT
100
AcDbPolyline
 90
5
 70
0
 10
8692.300000000003
 20
4000.0
 10
8692.300000000003
 20
5790.699999999997
 10
9641.425000000017
 20
5790.699999999997
 10
9641.425000000017
 20
4000.0
 10
8692.300000000003
 20
4000.0
  0
TEXT
  5
CF
330
17
100
AcDbEntity
  8
NESTED_RESULT
100
AcDbText
 10
9166.86250000001
 20
4895.3499999999985
 30
0.0
 40
80.0
  1
210-C
 72
1
 11
9166.86250000001
 21
4895.3499999999985
 31
0.0
100
AcDbText
 73
2
  0
LWPOLYLINE
  5
D0
330
17
100
AcDbEntity
  8
NESTED_RESULT
 62
1
100
AcDbPolyline
 90
5
 70
0
 10
10200.0
 20
4000.0
 10
13400.0
 20
4000.0
 10
13400.0
 20
5800.0
 10
10200.0
 20
5800.0
 10
10200.0
 20
4000.0
  0
TEXT
  5
D1
330
17
100
AcDbEntity
  8
NESTED_RESULT
 62
1
100
AcDbText
 10
10200.0
 20
5830.0
 30
0.0
 40
50.0
  1
Sheet_16
 11
10200.0
 21
5830.0
 31
0.0
100
AcDbText
 73
1
  0
LWPOLYLINE
  5
D2
330
17
100
AcDbEntity
  8
NESTED_RESULT
100
AcDbPolyline
 90
5
 70
0
 10
10200.0
 20
4650.875
 10
12146.274999999994
 20
4650.875
 10
12146.274999999994
 20
4000.0
 10
10200.0
 20
4000.0
 10
10200.0
 20
4650.875
  0
TEXT
  5
D3
330
17
100
AcDbEntity
  8
NESTED_RESULT
100
AcDbText
 10
11173.137499999997
 20
4325.4375
 30
0.0
 40
80.0
  1
203-B
 72
1
 11
11173.137499999997
 21
4325.4375
 31
0.0
100
AcDbText
 73
2
  0
LWPOLYLINE
  5
D4
330
17
100
AcDbEntity
  8
NESTED_RESULT
100
AcDbPolyline
 90
5
 70
0
 10
10200.0
 20
5596.824999999997
 10
12092.300000000105
 20
5596.824999999997
 10
12092.300000000105
 20
4650.875
 10
10200.0
 20
4650.875
 10
10200.0
 20
5596.824999999997
  0
TEXT
  5
D5
330
17
100
AcDbEntity
  8
NESTED_RESULT
100
AcDbText
 10
11146.150000000052
 20
5123.8499999999985
 30
0.0
 40
80.0
  1
205-D
 72
1
 11
11146.150000000052
 21
5123.8499999999985
 31
0.0
100
AcDbText
 73
2
  0
LWPOLYLINE
  5
D6
330
17
100
AcDbEntity
  8
NESTED_RESULT
100
AcDbPolyline
 90
5
 70
0
 10
12146.274999999994
 20
4000.0
 10
12146.274999999994
 20
5790.700000000012
 10
13095.399999999994
 20
5790.700000000012
 10
13095.399999999994
 20
4000.0
 10
12146.274999999994
 20
4000.0
  0
TEXT
  5
D7
330
17
100
AcDbEntity
  8
NESTED_RESULT
100
AcDbText
 10
12620.837499999994
 20
4895.350000000006
 30
0.0
 40
80.0
  1
211-C
 72
1
 11
12620.837499999994
 21
4895.350000000006
 31
0.0
100
AcDbText
 73
2
  0
LWPOLYLINE
  5
D8
330
17
100
AcDbEntity
  8
NESTED_RESULT
 62
1
100
AcDbPolyline
 90
5
 70
0
 10
13600.0
 20
4000.0
 10
16800.0
 20
4000.0
 10
16800.0
 20
5800.0
 10
13600.0
 20
5800.0
 10
13600.0
 20
4000.0
  0
TEXT
  5
D9
330
17
100
AcDbEntity
  8
NESTED_RESULT
 62
1
100
AcDbText
 10
13600.0
 20
5830.0
 30
0.0
 40
50.0
  1
Sheet_17
 11
13600.0
 21
5830.0
 31
0.0
100
AcDbText
 73
1
  0
LWPOLYLINE
  5
DA
330
17
100
AcDbEntity
  8
NESTED_RESULT
100
AcDbPolyline
 90
5
 70
0
 10
13600.0
 20
4949.125000000015
 10
15492.300000000003
 20
4949.125000000015
 10
15492.300000000003
 20
4000.0
 10
13600.0
 20
4000.0
 10
13600.0
 20
4949.125000000015
  0
TEXT
  5
DB
330
17
100
AcDbEntity
  8
NESTED_RESULT
100
AcDbText
 10
14546.150000000001
 20
4474.562500000007
 30
0.0
 40
80.0
  1
202-D
 72
1
 11
14546.150000000001
 21
4474.562500000007
 31
0.0
100
AcDbText
 73
2
  0
LWPOLYLINE
  5
DC
330
17
100
AcDbEntity
  8
NESTED_RESULT
100
AcDbPolyline
 90
5
 70
0
 10
13600.0
 20
4949.125000000015
 10
15458.962500000009
 20
4949.125000000015
 10
15458.962500000009
 20
5600.000000000022
 10
13600.0
 20
5600.000000000022
 10
13600.0
 20
4949.125000000015
  0
TEXT
  5
DD
330
17
100
AcDbEntity
  8
NESTED_RESULT
100
AcDbText
 10
14529.481250000004
 20
5274.562500000018
 30
0.0
 40
80.0
  1
208-A
 72
1
 11
14529.481250000004
 21
5274.562500000018
 31
0.0
100
AcDbText
 73
2
  0
LWPOLYLINE
  5
DE
330
17
100
AcDbEntity
  8
NESTED_RESULT
100
AcDbPolyline
 90
5
 70
0
 10
15492.300000000003
 20
4000.0
 10
15492.300000000003
 20
5790.699999999997
 10
16441.42500000001
 20
5790.699999999997
 10
16441.42500000001
 20
4000.0
 10
15492.300000000003
 20
4000.0
  0
TEXT
  5
DF
330
17
100
AcDbEntity
  8
NESTED_RESULT
100
AcDbText
 10
15966.862500000007
 20
4895.3499999999985
 30
0.0
 40
80.0
  1
207-D
 72
1
 11
15966.862500000007
 21
4895.3499999999985
 31
0.0
100
AcDbText
 73
2
  0
LWPOLYLINE
  5
E0
330
17
100
AcDbEntity
  8
NESTED_RESULT
 62
1
100
AcDbPolyline
 90
5
 70
0
 10
17000.0
 20
4000.0
 10
20200.0
 20
4000.0
 10
20200.0
 20
5800.0
 10
17000.0
 20
5800.0
 10
17000.0
 20
4000.0
  0
TEXT
  5
E1
330
17
100
AcDbEntity
  8
NESTED_RESULT
 62
1
100
AcDbText
 10
17000.0
 20
5830.0
 30
0.0
 40
50.0
  1
Sheet_18
 11
17000.0
 21
5830.0
 31
0.0
100
AcDbText
 73
1
  0
LWPOLYLINE
  5
E2
330
17
100
AcDbEntity
  8
NESTED_RESULT
100
AcDbPolyline
 90
7
 70
0
 10
17000.0
 20
4903.287500000006
 10
17000.0
 20
4000.0
 10
17650.875
 20
4000.0
 10
17650.875
 20
4252.412500000006
 10
18295.40000000001
 20
4252.412500000006
 10
18295.40000000001
 20
4903.287500000006
 10
17000.0
 20
4903.287500000006
  0
TEXT
  5
E3
330
17
100
AcDbEntity
  8
NESTED_RESULT
100
AcDbText
 10
17381.09301757813
 20
4522.169677734379
 30
0.0
 40
80.0
  1
P-0010
 72
1
 11
17381.09301757813
 21
4522.169677734379
 31
0.0
100
AcDbText
 73
2
  0
LWPOLYLINE
  5
E4
330
17
100
AcDbEntity
  8
NESTED_RESULT
100
AcDbPolyline
 90
7
 70
0
 10
18295.40000000001
 20
4901.700000000012
 10
18295.40000000001
 20
4000.0
 10
18946.27500000001
 20
4000.0
 10
18946.27500000001
 20
4250.824999999997
 10
19592.386000000013
 20
4250.824999999997
 10
19592.386000000013
 20
4901.700000000012
 10
18295.40000000001
 20
4901.700000000012
  0
TEXT
  5
E5
330
17
100
AcDbEntity
  8
NESTED_RESULT
100
AcDbText
 10
18676.642955078136
 20
4520.512333984381
 30
0.0
 40
80.0
  1
P-0011
 72
1
 11
18676.642955078136
 21
4520.512333984381
 31
0.0
100
AcDbText
 73
2
  0
LWPOLYLINE
  5
E6
330
17
100
AcDbEntity
  8
NESTED_RESULT
100
AcDbPolyline
 90
5
 70
0
 10
17000.0
 20
5554.5
 10
18852.612500000003
 20
5554.5
 10
18852.612500000003
 20
4903.625
 10
17000.0
 20
4903.625
 10
17000.0
 20
5554.5
  0
TEXT
  5
E7
330
17
100
AcDbEntity
  8
NESTED_RESULT
100
AcDbText
 10
17926.30625
 20
5229.0625
 30
0.0
 40
80.0
  1
211-A
 72
1
 11
17926.30625
 21
5229.0625
 31
0.0
100
AcDbText
 73
2
  0
LWPOLYLINE
  5
E8
330
17
100
AcDbEntity
  8
NESTED_RESULT
100
AcDbPolyline
 90
5
 70
0
 10
20183.0
 20
4000.0
 10
19592.449999999997
 20
4000.0
 10
19592.449999999997
 20
5158.875
 10
20183.0
 20
5158.875
 10
20183.0
 20
4000.0
  0
TEXT
  5
E9
330
17
100
AcDbEntity
  8
NESTED_RESULT
100
AcDbText
 10
19887.725
 20
4579.4375
 30
0.0
 40
80.0
  1
219-B
 72
1
 11
19887.725
 21
4579.4375
 31
0.0
100
AcDbText
 73
2
  0
LWPOLYLINE
  5
EA
330
17
100
AcDbEntity
  8
NESTED_RESULT
100
AcDbPolyline
 90
5
 70
0
 10
18852.612500000003
 20
5746.25
 10
20011.487500000003
 20
5746.25
 10
20011.487500000003
 20
5158.875
 10
18852.612500000003
 20
5158.875
 10
18852.612500000003
 20
5746.25
  0
TEXT
  5
EB
330
17
100
AcDbEntity
  8
NESTED_RESULT
100
AcDbText
 10
19432.050000000003
 20
5452.5625
 30
0.0
 40
80.0
  1
201-D
 72
1
 11
19432.050000000003
 21
5452.5625
 31
0.0
100
AcDbText
 73
2
  0
LWPOLYLINE
  5
EC
330
17
100
AcDbEntity
  8
NESTED_RESULT
 62
1
100
AcDbPolyline
 90
5
 70
0
 10
0.0
 20
6000.0
 10
3200.0
 20
6000.0
 10
3200.0
 20
7800.0
 10
0.0
 20
7800.0
 10
0.0
 20
6000.0
  0
TEXT
  5
ED
330
17
100
AcDbEntity
  8
NESTED_RESULT
 62
1
100
AcDbText
 10
0.0
 20
7830.0
 30
0.0
 40
50.0
  1
Sheet_19
 11
0.0
 21
7830.0
 31
0.0
100
AcDbText
 73
1
  0
LWPOLYLINE
  5
EE
330
17
100
AcDbEntity
  8
NESTED_RESULT
100
AcDbPolyline
 90
7
 70
0
 10
0.0
 20
6901.700000000012
 10
0.0
 20
6000.0
 10
650.875
 20
6000.0
 10
650.875
 20
6250.825000000012
 10
1249.362000000001
 20
6250.825000000012
 10
1249.362000000001
 20
6901.700000000012
 10
0.0
 20
6901.700000000012
  0
TEXT
  5
EF
330
17
100
AcDbEntity
  8
NESTED_RESULT
100
AcDbText
 10
381.5800444335941
 20
6520.6995844726625
 30
0.0
 40
80.0
  1
P-0014
 72
1
 11
381.5800444335941
 21
6520.6995844726625
 31
0.0
100
AcDbText
 73
2
  0
LWPOLYLINE
  5
F0
330
17
100
AcDbEntity
  8
NESTED_RESULT
100
AcDbPolyline
 90
7
 70
0
 10
3057.524999999994
 20
7549.5
 10
0.0
 20
7549.5
 10
0.0
 20
6901.800000000003
 10
2409.824999999997
 20
6901.800000000003
 10
2409.824999999997
 20
6647.800000000003
 10
3057.524999999994
 20
6647.800000000003
 10
3057.524999999994
 20
7549.5
  0
TEXT
  5
F1
330
17
100
AcDbEntity
  8
NESTED_RESULT
100
AcDbText
 10
2678.133622741694
 20
7170.124125671388
 30
0.0
 40
80.0
  1
P-0002
 72
1
 11
2678.133622741694
 21
7170.124125671388
 31
0.0
100
AcDbText
 73
2
  0
LWPOLYLINE
  5
F2
330
17
100
AcDbEntity
  8
NESTED_RESULT
100
AcDbPolyline
 90
5
 70
0
 10
1249.362000000001
 20
6647.700000000004
 10
3194.049500000001
 20
6647.700000000004
 10
3194.049500000001
 20
6000.0
 10
1249.362000000001
 20
6000.0
 10
1249.362000000001
 20
6647.700000000004
  0
TEXT
  5
F3
330
17
100
AcDbEntity
  8
NESTED_RESULT
100
AcDbText
 10
2221.705750000001
 20
6323.850000000002
 30
0.0
 40
80.0
  1
221-A
 72
1
 11
2221.705750000001
 21
6323.850000000002
 31
0.0
100
AcDbText
 73
2
  0
LWPOLYLINE
  5
F4
330
17
100
AcDbEntity
  8
NESTED_RESULT
 62
1
100
AcDbPolyline
 90
5
 70
0
 10
3400.0
 20
6000.0
 10
6600.0
 20
6000.0
 10
6600.0
 20
7800.0
 10
3400.0
 20
7800.0
 10
3400.0
 20
6000.0
  0
TEXT
  5
F5
330
17
100
AcDbEntity
  8
NESTED_RESULT
 62
1
100
AcDbText
 10
3400.0
 20
7830.0
 30
0.0
 40
50.0
  1
Sheet_20
 11
3400.0
 21
7830.0
 31
0.0
100
AcDbText
 73
1
  0
LWPOLYLINE
  5
F6
330
17
100
AcDbEntity
  8
NESTED_RESULT
100
AcDbPolyline
 90
7
 70
0
 10
6457.524999999994
 20
6901.700000000012
 10
3400.0
 20
6901.700000000012
 10
3400.0
 20
6000.0
 10
4054.050000000003
 20
6000.0
 10
4054.050000000003
 20
6247.650000000009
 10
6457.524999999994
 20
6247.650000000009
 10
6457.524999999994
 20
6901.700000000012
  0
TEXT
  5
F7
330
17
100
AcDbEntity
  8
NESTED_RESULT
100
AcDbText
 10
3783.1237075805657
 20
6518.591795349127
 30
0.0
 40
80.0
  1
P-0001
 72
1
 11
3783.1237075805657
 21
6518.591795349127
 31
0.0
100
AcDbText
 73
2
  0
LWPOLYLINE
  5
F8
330
17
100
AcDbEntity
  8
NESTED_RESULT
100
AcDbPolyline
 90
5
 70
0
 10
3400.0
 20
7549.400000000016
 10
5608.212500000009
 20
7549.400000000016
 10
5608.212500000009
 20
6901.700000000012
 10
3400.0
 20
6901.700000000012
 10
3400.0
 20
7549.400000000016
  0
TEXT
  5
F9
330
17
100
AcDbEntity
  8
NESTED_RESULT
100
AcDbText
 10
4504.106250000004
 20
7225.550000000014
 30
0.0
 40
80.0
  1
223-A
 72
1
 11
4504.106250000004
 21
7225.550000000014
 31
0.0
100
AcDbText
 73
2
  0
LWPOLYLINE
  5
FA
330
17
100
AcDbEntity
  8
NESTED_RESULT
100
AcDbPolyline
 90
5
 70
0
 10
5608.212500000009
 20
6901.700000000012
 10
5608.212500000009
 20
7554.16250000002
 10
6255.912500000013
 20
7554.16250000002
 10
6255.912500000013
 20
6901.700000000012
 10
5608.212500000009
 20
6901.700000000012
  0
TEXT
  5
FB
330
17
100
AcDbEntity
  8
NESTED_RESULT
100
AcDbText
 10
5932.062500000011
 20
7227.931250000016
 30
0.0
 40
80.0
  1
221-B
 72
1
 11
5932.062500000011
 21
7227.931250000016
 31
0.0
100
AcDbText
 73
2
  0
LWPOLYLINE
  5
FC
330
17
100
AcDbEntity
  8
NESTED_RESULT
 62
1
100
AcDbPolyline
 90
5
 70
0
 10
6800.0
 20
6000.0
 10
10000.0
 20
6000.0
 10
10000.0
 20
7800.0
 10
6800.0
 20
7800.0
 10
6800.0
 20
6000.0
  0
TEXT
  5
FD
330
17
100
AcDbEntity
  8
NESTED_RESULT
 62
1
100
AcDbText
 10
6800.0
 20
7830.0
 30
0.0
 40
50.0
  1
Sheet_21
 11
6800.0
 21
7830.0
 31
0.0
100
AcDbText
 73
1
  0
LWPOLYLINE
  5
FE
330
17
100
AcDbEntity
  8
NESTED_RESULT
100
AcDbPolyline
 90
5
 70
0
 10
6800.0
 20
6650.875
 10
8651.025000000009
 20
6650.875
 10
8651.025000000009
 20
6000.0
 10
6800.0
 20
6000.0
 10
6800.0
 20
6650.875
  0
TEXT
  5
FF
330
17
100
AcDbEntity
  8
NESTED_RESULT
100
AcDbText
 10
7725.512500000004
 20
6325.4375
 30
0.0
 40
80.0
  1
214-B
 72
1
 11
7725.512500000004
 21
6325.4375
 31
0.0
100
AcDbText
 73
2
  0
LWPOLYLINE
  5
100
330
17
100
AcDbEntity
  8
NESTED_RESULT
100
AcDbPolyline
 90
7
 70
0
 10
7450.874999999985
 20
7301.75
 10
7450.874999999985
 20
7552.574999999997
 10
6800.0
 20
7552.574999999997
 10
6800.0
 20
6650.875
 10
8098.574999999997
 20
6650.875
 10
8098.574999999997
 20
7301.75
 10
7450.874999999985
 20
7301.75
  0
TEXT
  5
101
330
17
100
AcDbEntity
  8
NESTED_RESULT
100
AcDbText
 10
7181.710034179687
 20
7031.977319335936
 30
0.0
 40
80.0
  1
P-0008
 72
1
 11
7181.710034179687
 21
7031.977319335936
 31
0.0
100
AcDbText
 73
2
  0
LWPOLYLINE
  5
102
330
17
100
AcDbEntity
  8
NESTED_RESULT
100
AcDbPolyline
 90
7
 70
0
 10
8098.574999999997
 20
7554.162500000006
 10
8098.574999999997
 20
6650.875
 10
9397.149999999987
 20
6650.875
 10
9397.149999999987
 20
7301.75
 10
8749.449999999997
 20
7301.75
 10
8749.449999999997
 20
7554.162500000006
 10
8098.574999999997
 20
7554.162500000006
  0
TEXT
  5
103
330
17
100
AcDbEntity
  8
NESTED_RESULT
100
AcDbText
 10
8479.650964355464
 20
7032.136999511722
 30
0.0
 40
80.0
  1
P-0005
 72
1
 11
8479.650964355464
 21
7032.136999511722
 31
0.0
100
AcDbText
 73
2
  0
LWPOLYLINE
  5
104
330
17
100
AcDbEntity
  8
NESTED_RESULT
100
AcDbPolyline
 90
5
 70
0
 10
8651.025000000009
 20
6590.55000000001
 10
9908.325000000012
 20
6590.55000000001
 10
9908.325000000012
 20
6000.0
 10
8651.025000000009
 20
6000.0
 10
8651.025000000009
 20
6590.55000000001
  0
TEXT
  5
105
330
17
100
AcDbEntity
  8
NESTED_RESULT
100
AcDbText
 10
9279.67500000001
 20
6295.275000000005
 30
0.0
 40
80.0
  1
207-C
 72
1
 11
9279.67500000001
 21
6295.275000000005
 31
0.0
100
AcDbText
 73
2
  0
LWPOLYLINE
  5
106
330
17
100
AcDbEntity
  8
NESTED_RESULT
100
AcDbPolyline
 90
5
 70
0
 10
9397.149999999987
 20
6590.55000000001
 10
9397.149999999987
 20
7746.250000000007
 10
9984.524999999987
 20
7746.250000000007
 10
9984.524999999987
 20
6590.55000000001
 10
9397.149999999987
 20
6590.55000000001
  0
TEXT
  5
107
330
17
100
AcDbEntity
  8
NESTED_RESULT
100
AcDbText
 10
9690.837499999987
 20
7168.400000000009
 30
0.0
 40
80.0
  1
205-B
 72
1
 11
9690.837499999987
 21
7168.400000000009
 31
0.0
100
AcDbText
 73
2
  0
LWPOLYLINE
  5
108
330
17
100
AcDbEntity
  8
NESTED_RESULT
 62
1
100
AcDbPolyline
 90
5
 70
0
 10
10200.0
 20
6000.0
 10
13400.0
 20
6000.0
 10
13400.0
 20
7800.0
 10
10200.0
 20
7800.0
 10
10200.0
 20
6000.0
  0
TEXT
  5
109
330
17
100
AcDbEntity
  8
NESTED_RESULT
 62
1
100
AcDbText
 10
10200.0
 20
7830.0
 30
0.0
 40
50.0
  1
Sheet_22
 11
10200.0
 21
7830.0
 31
0.0
100
AcDbText
 73
1
  0
LWPOLYLINE
  5
10A
330
17
100
AcDbEntity
  8
NESTED_RESULT
100
AcDbPolyline
 90
5
 70
0
 10
10200.0
 20
6949.125
 10
11990.699999999997
 20
6949.125
 10
11990.699999999997
 20
6000.0
 10
10200.0
 20
6000.0
 10
10200.0
 20
6949.125
  0
TEXT
  5
10B
330
17
100
AcDbEntity
  8
NESTED_RESULT
100
AcDbText
 10
11095.349999999999
 20
6474.5625
 30
0.0
 40
80.0
  1
217-C
 72
1
 11
11095.349999999999
 21
6474.5625
 31
0.0
100
AcDbText
 73
2
  0
LWPOLYLINE
  5
10C
330
17
100
AcDbEntity
  8
NESTED_RESULT
100
AcDbPolyline
 90
5
 70
0
 10
10200.0
 20
7600.000000000007
 10
12405.036999999997
 20
7600.000000000007
 10
12405.036999999997
 20
6949.125
 10
10200.0
 20
6949.125
 10
10200.0
 20
7600.000000000007
  0
TEXT
  5
10D
330
17
100
AcDbEntity
  8
NESTED_RESULT
100
AcDbText
 10
11302.518499999998
 20
7274.562500000004
 30
0.0
 40
80.0
  1
201-B
 72
1
 11
11302.518499999998
 21
7274.562500000004
 31
0.0
100
AcDbText
 73
2
  0
LWPOLYLINE
  5
10E
330
17
100
AcDbEntity
  8
NESTED_RESULT
100
AcDbPolyline
 90
5
 70
0
 10
12405.036999999997
 20
6000.0
 10
12405.036999999997
 20
7790.699999999997
 10
13354.161999999997
 20
7790.699999999997
 10
13354.161999999997
 20
6000.0
 10
12405.036999999997
 20
6000.0
  0
TEXT
  5
10F
330
17
100
AcDbEntity
  8
NESTED_RESULT
100
AcDbText
 10
12879.599499999997
 20
6895.3499999999985
 30
0.0
 40
80.0
  1
206-C
 72
1
 11
12879.599499999997
 21
6895.3499999999985
 31
0.0
100
AcDbText
 73
2
  0
LWPOLYLINE
  5
110
330
17
100
AcDbEntity
  8
NESTED_RESULT
 62
1
100
AcDbPolyline
 90
5
 70
0
 10
13600.0
 20
6000.0
 10
16800.0
 20
6000.0
 10
16800.0
 20
7800.0
 10
13600.0
 20
7800.0
 10
13600.0
 20
6000.0
  0
TEXT
  5
111
330
17
100
AcDbEntity
  8
NESTED_RESULT
 62
1
100
AcDbText
 10
13600.0
 20
7830.0
 30
0.0
 40
50.0
  1
Sheet_23
 11
13600.0
 21
7830.0
 31
0.0
100
AcDbText
 73
1
  0
LWPOLYLINE
  5
112
330
17
100
AcDbEntity
  8
NESTED_RESULT
100
AcDbPolyline
 90
5
 70
0
 10
13600.0
 20
6949.125000000007
 10
15492.299999999988
 20
6949.125000000007
 10
15492.299999999988
 20
6000.0
 10
13600.0
 20
6000.0
 10
13600.0
 20
6949.125000000007
  0
TEXT
  5
113
330
17
100
AcDbEntity
  8
NESTED_RESULT
100
AcDbText
 10
14546.149999999994
 20
6474.562500000004
 30
0.0
 40
80.0
  1
203-D
 72
1
 11
14546.149999999994
 21
6474.562500000004
 31
0.0
100
AcDbText
 73
2
  0
LWPOLYLINE
  5
114
330
17
100
AcDbEntity
  8
NESTED_RESULT
100
AcDbPolyline
 90
5
 70
0
 10
13600.0
 20
7600.000000000015
 10
15457.375
 20
7600.000000000015
 10
15457.375
 20
6949.125000000007
 10
13600.0
 20
6949.125000000007
 10
13600.0
 20
7600.000000000015
  0
TEXT
  5
115
330
17
100
AcDbEntity
  8
NESTED_RESULT
100
AcDbText
 10
14528.6875
 20
7274.562500000011
 30
0.0
 40
80.0
  1
206-B
 72
1
 11
14528.6875
 21
7274.562500000011
 31
0.0
100
AcDbText
 73
2
  0
LWPOLYLINE
  5
116
330
17
100
AcDbEntity
  8
NESTED_RESULT
100
AcDbPolyline
 90
7
 70
0
 10
15492.299999999988
 20
6900.112999999983
 10
15492.299999999988
 20
6000.0
 10
16790.874999999993
 20
6000.0
 10
16790.874999999993
 20
6650.874999999985
 10
16143.174999999988
 20
6650.874999999985
 10
16143.174999999988
 20
6900.112999999983
 10
15492.299999999988
 20
6900.112999999983
  0
TEXT
  5
117
330
17
100
AcDbEntity
  8
NESTED_RESULT
100
AcDbText
 10
15873.692999267567
 20
6381.259924072257
 30
0.0
 40
80.0
  1
P-0009
 72
1
 11
15873.692999267567
 21
6381.259924072257
 31
0.0
100
AcDbText
 73
2
  0
LWPOLYLINE
  5
118
330
17
100
AcDbEntity
  8
NESTED_RESULT
100
AcDbPolyline
 90
5
 70
0
 10
15492.299999999988
 20
7487.48799999999
 10
16647.999999999985
 20
7487.48799999999
 10
16647.999999999985
 20
6900.112999999983
 10
15492.299999999988
 20
6900.112999999983
 10
15492.299999999988
 20
7487.48799999999
  0
TEXT
  5
119
330
17
100
AcDbEntity
  8
NESTED_RESULT
100
AcDbText
 10
16070.149999999987
 20
7193.800499999987
 30
0.0
 40
80.0
  1
223-D
 72
1
 11
16070.149999999987
 21
7193.800499999987
 31
0.0
100
AcDbText
 73
2
  0
LWPOLYLINE
  5
11A
330
17
100
AcDbEntity
  8
NESTED_RESULT
 62
1
100
AcDbPolyline
 90
5
 70
0
 10
17000.0
 20
6000.0
 10
20200.0
 20
6000.0
 10
20200.0
 20
7800.0
 10
17000.0
 20
7800.0
 10
17000.0
 20
6000.0
  0
TEXT
  5
11B
330
17
100
AcDbEntity
  8
NESTED_RESULT
 62
1
100
AcDbText
 10
17000.0
 20
7830.0
 30
0.0
 40
50.0
  1
Sheet_24
 11
17000.0
 21
7830.0
 31
0.0
100
AcDbText
 73
1
  0
LWPOLYLINE
  5
11C
330
17
100
AcDbEntity
  8
NESTED_RESULT
100
AcDbPolyline
 90
5
 70
0
 10
17000.0
 20
6650.875000000015
 10
18858.962499999994
 20
6650.875000000015
 10
18858.962499999994
 20
6000.0
 10
17000.0
 20
6000.0
 10
17000.0
 20
6650.875000000015
  0
TEXT
  5
11D
330
17
100
AcDbEntity
  8
NESTED_RESULT
100
AcDbText
 10
17929.481249999997
 20
6325.437500000007
 30
0.0
 40
80.0
  1
212-B
 72
1
 11
17929.481249999997
 21
6325.437500000007
 31
0.0
100
AcDbText
 73
2
  0
LWPOLYLINE
  5
11E
330
17
100
AcDbEntity
  8
NESTED_RESULT
100
AcDbPolyline
 90
7
 70
0
 10
18858.962499999994
 20
6903.287500000004
 10
18858.962499999994
 20
6000.0
 10
20106.737499999996
 20
6000.0
 10
20106.737499999996
 20
6650.874999999998
 10
19509.83749999998
 20
6650.874999999998
 10
19509.83749999998
 20
6903.287500000004
 10
18858.962499999994
 20
6903.287500000004
  0
TEXT
  5
11F
330
17
100
AcDbEntity
  8
NESTED_RESULT
100
AcDbText
 10
19240.057843017574
 20
6381.273626708986
 30
0.0
 40
80.0
  1
P-0012
 72
1
 11
19240.057843017574
 21
6381.273626708986
 31
0.0
100
AcDbText
 73
2
  0
LWPOLYLINE
  5
120
330
17
100
AcDbEntity
  8
NESTED_RESULT
100
AcDbPolyline
 90
7
 70
0
 10
17000.0
 20
7552.575000000012
 10
17000.0
 20
6650.875000000015
 10
18249.362500000003
 20
6650.875000000015
 10
18249.362500000003
 20
7301.75
 10
17650.875000000015
 20
7301.75
 10
17650.875000000015
 20
7552.575000000012
 10
17000.0
 20
7552.575000000012
  0
TEXT
  5
121
330
17
100
AcDbEntity
  8
NESTED_RESULT
100
AcDbText
 10
17381.580197143554
 20
7031.8753875732555
 30
0.0
 40
80.0
  1
P-0013
 72
1
 11
17381.580197143554
 21
7031.8753875732555
 31
0.0
100
AcDbText
 73
2
  0
LWPOLYLINE
  5
122
330
17
100
AcDbEntity
  8
NESTED_RESULT
100
AcDbPolyline
 90
5
 70
0
 10
18249.362500000003
 20
7490.662500000004
 10
19925.76250000001
 20
7490.662500000004
 10
19925.76250000001
 20
6903.287500000004
 10
18249.362500000003
 20
6903.287500000004
 10
18249.362500000003
 20
7490.662500000004
  0
TEXT
  5
123
330
17
100
AcDbEntity
  8
NESTED_RESULT
100
AcDbText
 10
19087.562500000007
 20
7196.975000000004
 30
0.0
 40
80.0
  1
220-E
 72
1
 11
19087.562500000007
 21
7196.975000000004
 31
0.0
100
AcDbText
 73
2
  0
LWPOLYLINE
  5
124
330
17
100
AcDbEntity
  8
NESTED_RESULT
 62
1
100
AcDbPolyline
 90
5
 70
0
 10
0.0
 20
8000.0
 10
3200.0
 20
8000.0
 10
3200.0
 20
9800.0
 10
0.0
 20
9800.0
 10
0.0
 20
8000.0
  0
TEXT
  5
125
330
17
100
AcDbEntity
  8
NESTED_RESULT
 62
1
100
AcDbText
 10
0.0
 20
9830.0
 30
0.0
 40
50.0
  1
Sheet_25
 11
0.0
 21
9830.0
 31
0.0
100
AcDbText
 73
1
  0
LWPOLYLINE
  5
126
330
17
100
AcDbEntity
  8
NESTED_RESULT
100
AcDbPolyline
 90
7
 70
0
 10
650.875
 20
8650.874999999985
 10
650.875
 20
8900.112499999988
 10
0.0
 20
8900.112499999988
 10
0.0
 20
8000.0
 10
1249.3624999999956
 20
8000.0
 10
1249.3624999999956
 20
8650.874999999985
 10
650.875
 20
8650.874999999985
  0
TEXT
  5
127
330
17
100
AcDbEntity
  8
NESTED_RESULT
100
AcDbText
 10
381.2751770019518
 20
8381.121697998042
 30
0.0
 40
80.0
  1
P-0015
 72
1
 11
381.2751770019518
 21
8381.121697998042
 31
0.0
100
AcDbText
 73
2
  0
LWPOLYLINE
  5
128
330
17
100
AcDbEntity
  8
NESTED_RESULT
100
AcDbPolyline
 90
5
 70
0
 10
1249.3624999999956
 20
8587.375000000015
 10
2762.2499999999927
 20
8587.375000000015
 10
2762.2499999999927
 20
8000.0
 10
1249.3624999999956
 20
8000.0
 10
1249.3624999999956
 20
8587.375000000015
  0
TEXT
  5
129
330
17
100
AcDbEntity
  8
NESTED_RESULT
100
AcDbText
 10
2005.8062499999942
 20
8293.687500000007
 30
0.0
 40
80.0
  1
221-E
 72
1
 11
2005.8062499999942
 21
8293.687500000007
 31
0.0
100
AcDbText
 73
2
  0
ENDSEC
  0
SECTION
  2
OBJECTS
  0
DICTIONARY
  5
A
330
0
100
AcDbDictionary
281
1
  3
ACAD_COLOR
350
B
  3
ACAD_GROUP
350
C
  3
ACAD_LAYOUT
350
D
  3
ACAD_MATERIAL
350
E
  3
ACAD_MLEADERSTYLE
350
F
  3
ACAD_MLINESTYLE
350
10
  3
ACAD_PLOTSETTINGS
350
11
  3
ACAD_PLOTSTYLENAME
350
12
  3
ACAD_SCALELIST
350
14
  3
ACAD_TABLESTYLE
350
15
  3
ACAD_VISUALSTYLE
350
16
  3
EZDXF_META
350
2D
  0
DICTIONARY
  5
B
330
A
100
AcDbDictionary
281
1
  0
DICTIONARY
  5
C
330
A
100
AcDbDictionary
281
1
  0
DICTIONARY
  5
D
330
A
100
AcDbDictionary
281
1
  3
Model
350
1A
  3
Layout1
350
1E
  0
DICTIONARY
  5
E
330
A
100
AcDbDictionary
281
1
  3
ByBlock
350
1F
  3
ByLayer
350
20
  3
Global
350
21
  0
DICTIONARY
  5
F
330
A
100
AcDbDictionary
281
1
  3
Standard
350
2C
  0
DICTIONARY
  5
10
330
A
100
AcDbDictionary
281
1
  3
Standard
350
22
  0
DICTIONARY
  5
11
330
A
100
AcDbDictionary
281
1
  0
ACDBDICTIONARYWDFLT
  5
12
330
A
100
AcDbDictionary
281
1
  3
Normal
350
13
100
AcDbDictionaryWithDefault
340
13
  0
ACDBPLACEHOLDER
  5
13
330
12
  0
DICTIONARY
  5
14
330
A
100
AcDbDictionary
281
1
  0
DICTIONARY
  5
15
330
A
100
AcDbDictionary
281
1
  0
DICTIONARY
  5
16
330
A
100
AcDbDictionary
281
1
  0
LAYOUT
  5
1A
330
D
100
AcDbPlotSettings
  1

  4
A3
  6

 40
7.5
 41
20.0
 42
7.5
 43
20.0
 44
420.0
 45
297.0
 46
0.0
 47
0.0
 48
0.0
 49
0.0
140
0.0
141
0.0
142
1.0
143
1.0
 70
1024
 72
1
 73
0
 74
5
  7

 75
16
 76
0
 77
2
 78
300
147
1.0
148
0.0
149
0.0
100
AcDbLayout
  1
Model
 70
1
 71
0
 10
0.0
 20
0.0
 11
420.0
 21
297.0
 12
0.0
 22
0.0
 32
0.0
 14
1e+20
 24
1e+20
 34
1e+20
 15
-1e+20
 25
-1e+20
 35
-1e+20
146
0.0
 13
0.0
 23
0.0
 33
0.0
 16
1.0
 26
0.0
 36
0.0
 17
0.0
 27
1.0
 37
0.0
 76
1
330
17
  0
LAYOUT
  5
1E
330
D
100
AcDbPlotSettings
  1

  4
A3
  6

 40
7.5
 41
20.0
 42
7.5
 43
20.0
 44
420.0
 45
297.0
 46
0.0
 47
0.0
 48
0.0
 49
0.0
140
0.0
141
0.0
142
1.0
143
1.0
 70
0
 72
1
 73
0
 74
5
  7

 75
16
 76
0
 77
2
 78
300
147
1.0
148
0.0
149
0.0
100
AcDbLayout
  1
Layout1
 70
1
 71
1
 10
0.0
 20
0.0
 11
420.0
 21
297.0
 12
0.0
 22
0.0
 32
0.0
 14
1e+20
 24
1e+20
 34
1e+20
 15
-1e+20
 25
-1e+20
 35
-1e+20
146
0.0
 13
0.0
 23
0.0
 33
0.0
 16
1.0
 26
0.0
 36
0.0
 17
0.0
 27
1.0
 37
0.0
 76
1
330
1B
  0
MATERIAL
  5
1F
102
{ACAD_REACTORS
330
E
102
}
330
E
100
AcDbMaterial
  1
ByBlock
  2

 70
0
 40
1.0
 71
1
 41
1.0
 91
-1023410177
 42
1.0
 72
1
  3

 73
1
 74
1
 75
1
 44
0.5
 73
0
 45
1.0
 46
1.0
 77
1
  4

 78
1
 79
1
170
1
 48
1.0
171
1
  6

172
1
173
1
174
1
140
1.0
141
1.0
175
1
  7

176
1
177
1
178
1
143
1.0
179
1
  8

270
1
271
1
272
1
145
1.0
146
1.0
273
1
  9

274
1
275
1
276
1
 42
1.0
 72
1
  3

 73
1
 74
1
 75
1
 94
63
  0
MATERIAL
  5
20
102
{ACAD_REACTORS
330
E
102
}
330
E
100
AcDbMaterial
  1
ByLayer
  2

 70
0
 40
1.0
 71
1
 41
1.0
 91
-1023410177
 42
1.0
 72
1
  3

 73
1
 74
1
 75
1
 44
0.5
 73
0
 45
1.0
 46
1.0
 77
1
  4

 78
1
 79
1
170
1
 48
1.0
171
1
  6

172
1
173
1
174
1
140
1.0
141
1.0
175
1
  7

176
1
177
1
178
1
143
1.0
179
1
  8

270
1
271
1
272
1
145
1.0
146
1.0
273
1
  9

274
1
275
1
276
1
 42
1.0
 72
1
  3

 73
1
 74
1
 75
1
 94
63
  0
MATERIAL
  5
21
102
{ACAD_REACTORS
330
E
102
}
330
E
100
AcDbMaterial
  1
Global
  2

 70
0
 40
1.0
 71
1
 41
1.0
 91
-1023410177
 42
1.0
 72
1
  3

 73
1
 74
1
 75
1
 44
0.5
 73
0
 45
1.0
 46
1.0
 77
1
  4

 78
1
 79
1
170
1
 48
1.0
171
1
  6

172
1
173
1
174
1
140
1.0
141
1.0
175
1
  7

176
1
177
1
178
1
143
1.0
179
1
  8

270
1
271
1
272
1
145
1.0
146
1.0
273
1
  9

274
1
275
1
276
1
 42
1.0
 72
1
  3

 73
1
 74
1
 75
1
 94
63
  0
MLINESTYLE
  5
22
102
{ACAD_REACTORS
330
10
102
}
330
10
100
AcDbMlineStyle
  2
Standard
 70
0
  3

 62
256
 51
90.0
 52
90.0
 71
2
 49
0.5
 62
256
  6
BYLAYER
 49
-0.5
 62
256
  6
BYLAYER
  0
MLEADERSTYLE
  5
2C
102
{ACAD_REACTORS
330
F
102
}
330
F
100
AcDbMLeaderStyle
179
2
170
2
171
1
172
0
 90
2
 40
0.0
 41
0.0
173
1
 91
-1056964608
 92
-2
290
1
 42
2.0
291
1
 43
8.0
  3
Standard
 44
4.0
300

342
29
174
1
175
1
176
0
178
1
 93
-1056964608
 45
4.0
292
0
297
0
 46
4.0
 94
-1056964608
 47
1.0
 49
1.0
140
1.0
294
1
141
0.0
177
0
142
1.0
295
0
296
0
143
3.75
271
0
272
9
273
9
  0
DICTIONARY
  5
2D
330
A
100
AcDbDictionary
280
1
281
1
  3
CREATED_BY_EZDXF
350
2E
  3
WRITTEN_BY_EZDXF
350
12C
  0
DICTIONARYVAR
  5
2E
330
2D
100
DictionaryVariables
280
0
  1
1.4.4 @ 2026-08-01T14:55:25.923454+00:00
  0
DICTIONARYVAR
  5
12C
330
2D
100
DictionaryVariables
280
0
  1
1.4.4 @ 2026-08-01T14:55:26.085598+00:00
  0
ENDSEC
  0
EOF
