  0
SECTION
  2
HEADER
  9
$ACADVER
  1
AC1027
  9
$ACADMAINTVER
 70
105
  9
$DWGCODEPAGE
  3
ANSI_1252
  9
$LASTSAVEDBY
  1
ezdxf
  9
$REQUIREDVERSIONS
160
0
  9
$INSBASE
 10
0.0
 20
0.0
 30
0.0
  9
$EXTMIN
 10
1e+20
 20
1e+20
 30
1e+20
  9
$EXTMAX
 10
-1e+20
 20
-1e+20
 30
-1e+20
  9
$LIMMIN
 10
0.0
 20
0.0
  9
$LIMMAX
 10
420.0
 20
297.0
  9
$ORTHOMODE
 70
0
  9
$REGENMODE
 70
1
  9
$FILLMODE
 70
1
  9
$QTEXTMODE
 70
0
  9
$MIRRTEXT
 70
1
  9
$LTSCALE
 40
1.0
  9
$ATTMODE
 70
1
  9
$TEXTSIZE
 40
2.5
  9
$TRACEWID
 40
1.0
  9
$TEXTSTYLE
  7
Standard
  9
$CLAYER
  8
0
  9
$CELTYPE
  6
ByLayer
  9
$CECOLOR
 62
256
  9
$CELTSCALE
 40
1.0
  9
$DISPSILH
 70
0
  9
$DIMSCALE
 40
1.0
  9
$DIMASZ
 40
2.5
  9
$DIMEXO
 40
0.625
  9
$DIMDLI
 40
3.75
  9
$DIMRND
 40
0.0
  9
$DIMDLE
 40
0.0
  9
$DIMEXE
 40
1.25
  9
$DIMTP
 40
0.0
  9
$DIMTM
 40
0.0
  9
$DIMTXT
 40
2.5
  9
$DIMCEN
 40
2.5
  9
$DIMTSZ
 40
0.0
  9
$DIMTOL
 70
0
  9
$DIMLIM
 70
0
  9
$DIMTIH
 70
0
  9
$DIMTOH
 70
0
  9
$DIMSE1
 70
0
  9
$DIMSE2
 70
0
  9
$DIMTAD
 70
1
  9
$DIMZIN
 70
8
  9
$DIMBLK
  1

  9
$DIMASO
 70
1
  9
$DIMSHO
 70
1
  9
$DIMPOST
  1

  9
$DIMAPOST
  1

  9
$DIMALT
 70
0
  9
$DIMALTD
 70
3
  9
$DIMALTF
 40
0.03937007874
  9
$DIMLFAC
 40
1.0
  9
$DIMTOFL
 70
1
  9
$DIMTVP
 40
0.0
  9
$DIMTIX
 70
0
  9
$DIMSOXD
 70
0
  9
$DIMSAH
 70
0
  9
$DIMBLK1
  1

  9
$DIMBLK2
  1

  9
$DIMSTYLE
  2
ISO-25
  9
$DIMCLRD
 70
0
  9
$DIMCLRE
 70
0
  9
$DIMCLRT
 70
0
  9
$DIMTFAC
 40
1.0
  9
$DIMGAP
 40
0.625
  9
$DIMJUST
 70
0
  9
$DIMSD1
 70
0
  9
$DIMSD2
 70
0
  9
$DIMTOLJ
 70
0
  9
$DIMTZIN
 70
8
  9
$DIMALTZ
 70
0
  9
$DIMALTTZ
 70
0
  9
$DIMUPT
 70
0
  9
$DIMDEC
 70
2
  9
$DIMTDEC
 70
2
  9
$DIMALTU
 70
2
  9
$DIMALTTD
 70
3
  9
$DIMTXSTY
  7
Standard
  9
$DIMAUNIT
 70
0
  9
$DIMADEC
 70
0
  9
$DIMALTRND
 40
0.0
  9
$DIMAZIN
 70
0
  9
$DIMDSEP
 70
44
  9
$DIMATFIT
 70
3
  9
$DIMFRAC
 70
0
  9
$DIMLDRBLK
  1

  9
$DIMLUNIT
 70
2
  9
$DIMLWD
 70
-2
  9
$DIMLWE
 70
-2
  9
$DIMTMOVE
 70
0
  9
$DIMFXL
 40
1.0
  9
$DIMFXLON
 70
0
  9
$DIMJOGANG
 40
0.785398163397
  9
$DIMTFILL
 70
0
  9
$DIMTFILLCLR
 70
0
  9
$DIMARCSYM
 70
0
  9
$DIMLTYPE
  6

  9
$DIMLTEX1
  6

  9
$DIMLTEX2
  6

  9
$DIMTXTDIRECTION
 70
0
  9
$LUNITS
 70
2
  9
$LUPREC
 70
4
  9
$SKETCHINC
 40
1.0
  9
$FILLETRAD
 40
10.0
  9
$AUNITS
 70
0
  9
$AUPREC
 70
2
  9
$MENU
  1
.
  9
$ELEVATION
 40
0.0
  9
$PELEVATION
 40
0.0
  9
$THICKNESS
 40
0.0
  9
$LIMCHECK
 70
0
  9
$CHAMFERA
 40
0.0
  9
$CHAMFERB
 40
0.0
  9
$CHAMFERC
 40
0.0
  9
$CHAMFERD
 40
0.0
  9
$SKPOLY
 70
0
  9
$TDCREATE
 40
2461254.667164352
  9
$TDUCREATE
 40
2458532.153996898
  9
$TDUPDATE
 40
2461254.667164352
  9
$TDUUPDATE
 40
2458532.1544311
  9
$TDINDWG
 40
0.0
  9
$TDUSRTIMER
 40
0.0
  9
$USRTIMER
 70
1
  9
$ANGBASE
 50
0.0
  9
$ANGDIR
 70
0
  9
$PDMODE
 70
0
  9
$PDSIZE
 40
0.0
  9
$PLINEWID
 40
0.0
  9
$SPLFRAME
 70
0
  9
$SPLINETYPE
 70
6
  9
$SPLINESEGS
 70
8
  9
$HANDSEED
  5
FC
  9
$SURFTAB1
 70
6
  9
$SURFTAB2
 70
6
  9
$SURFTYPE
 70
6
  9
$SURFU
 70
6
  9
$SURFV
 70
6
  9
$UCSBASE
  2

  9
$UCSNAME
  2

  9
$UCSORG
 10
0.0
 20
0.0
 30
0.0
  9
$UCSXDIR
 10
1.0
 20
0.0
 30
0.0
  9
$UCSYDIR
 10
0.0
 20
1.0
 30
0.0
  9
$UCSORTHOREF
  2

  9
$UCSORTHOVIEW
 70
0
  9
$UCSORGTOP
 10
0.0
 20
0.0
 30
0.0
  9
$UCSORGBOTTOM
 10
0.0
 20
0.0
 30
0.0
  9
$UCSORGLEFT
 10
0.0
 20
0.0
 30
0.0
  9
$UCSORGRIGHT
 10
0.0
 20
0.0
 30
0.0
  9
$UCSORGFRONT
 10
0.0
 20
0.0
 30
0.0
  9
$UCSORGBACK
 10
0.0
 20
0.0
 30
0.0
  9
$PUCSBASE
  2

  9
$PUCSNAME
  2

  9
$PUCSORG
 10
0.0
 20
0.0
 30
0.0
  9
$PUCSXDIR
 10
1.0
 20
0.0
 30
0.0
  9
$PUCSYDIR
 10
0.0
 20
1.0
 30
0.0
  9
$PUCSORTHOREF
  2

  9
$PUCSORTHOVIEW
 70
0
  9
$PUCSORGTOP
 10
0.0
 20
0.0
 30
0.0
  9
$PUCSORGBOTTOM
 10
0.0
 20
0.0
 30
0.0
  9
$PUCSORGLEFT
 10
0.0
 20
0.0
 30
0.0
  9
$PUCSORGRIGHT
 10
0.0
 20
0.0
 30
0.0
  9
$PUCSORGFRONT
 10
0.0
 20
0.0
 30
0.0
  9
$PUCSORGBACK
 10
0.0
 20
0.0
 30
0.0
  9
$USERI1
 70
0
  9
$USERI2
 70
0
  9
$USERI3
 70
0
  9
$USERI4
 70
0
  9
$USERI5
 70
0
  9
$USERR1
 40
0.0
  9
$USERR2
 40
0.0
  9
$USERR3
 40
0.0
  9
$USERR4
 40
0.0
  9
$USERR5
 40
0.0
  9
$WORLDVIEW
 70
1
  9
$SHADEDGE
 70
3
  9
$SHADEDIF
 70
70
  9
$TILEMODE
 70
1
  9
$MAXACTVP
 70
64
  9
$PINSBASE
 10
0.0
 20
0.0
 30
0.0
  9
$PLIMCHECK
 70
0
  9
$PEXTMIN
 10
1e+20
 20
1e+20
 30
1e+20
  9
$PEXTMAX
 10
-1e+20
 20
-1e+20
 30
-1e+20
  9
$PLIMMIN
 10
0.0
 20
0.0
  9
$PLIMMAX
 10
420.0
 20
297.0
  9
$UNITMODE
 70
0
  9
$VISRETAIN
 70
1
  9
$PLINEGEN
 70
0
  9
$PSLTSCALE
 70
1
  9
$TREEDEPTH
 70
3020
  9
$CMLSTYLE
  2
Standard
  9
$CMLJUST
 70
0
  9
$CMLSCALE
 40
20.0
  9
$PROXYGRAPHICS
 70
1
  9
$MEASUREMENT
 70
1
  9
$CELWEIGHT
370
-1
  9
$ENDCAPS
280
0
  9
$JOINSTYLE
280
0
  9
$LWDISPLAY
290
0
  9
$INSUNITS
 70
6
  9
$HYPERLINKBASE
  1

  9
$STYLESHEET
  1

  9
$XEDIT
290
1
  9
$CEPSNTYPE
380
0
  9
$PSTYLEMODE
290
1
  9
$FINGERPRINTGUID
  2
{79B6D0A4-FF64-4EFE-BEB6-8B6EE76CB4F2}
  9
$VERSIONGUID
  2
{7983F3E8-B436-4CC2-91AE-6662FD0DAE6F}
  9
$EXTNAMES
290
1
  9
$PSVPSCALE
 40
0.0
  9
$OLESTARTUP
290
0
  9
$SORTENTS
280
127
  9
$INDEXCTL
280
0
  9
$HIDETEXT
280
1
  9
$XCLIPFRAME
280
1
  9
$HALOGAP
280
0
  9
$OBSCOLOR
 70
257
  9
$OBSLTYPE
280
0
  9
$INTERSECTIONDISPLAY
280
0
  9
$INTERSECTIONCOLOR
 70
257
  9
$DIMASSOC
280
2
  9
$PROJECTNAME
  1

  9
$CAMERADISPLAY
290
0
  9
$LENSLENGTH
 40
50.0
  9
$CAMERAHEIGHT
 40
0.0
  9
$STEPSPERSEC
 40
24.0
  9
$STEPSIZE
 40
100.0
  9
$3DDWFPREC
 40
2.0
  9
$PSOLWIDTH
 40
0.005
  9
$PSOLHEIGHT
 40
0.08
  9
$LOFTANG1
 40
1.570796326795
  9
$LOFTANG2
 40
1.570796326795
  9
$LOFTMAG1
 40
0.0
  9
$LOFTMAG2
 40
0.0
  9
$LOFTPARAM
 70
7
  9
$LOFTNORMALS
280
1
  9
$LATITUDE
 40
37.795
  9
$LONGITUDE
 40
-122.394
  9
$NORTHDIRECTION
 40
0.0
  9
$TIMEZONE
 70
-8000
  9
$LIGHTGLYPHDISPLAY
280
1
  9
$TILEMODELIGHTSYNCH
280
1
  9
$CMATERIAL
347
20
  9
$SOLIDHIST
280
0
  9
$SHOWHIST
280
1
  9
$DWFFRAME
280
2
  9
$DGNFRAME
280
2
  9
$REALWORLDSCALE
290
1
  9
$INTERFERECOLOR
 62
256
  9
$CSHADOW
280
0
  9
$SHADOWPLANELOCATION
 40
0.0
  0
ENDSEC
  0
SECTION
  2
CLASSES
  0
CLASS
  1
ACDBDICTIONARYWDFLT
  2
AcDbDictionaryWithDefault
  3
ObjectDBX Classes
 90
0
 91
0
280
0
281
0
  0
CLASS
  1
SUN
  2
AcDbSun
  3
SCENEOE
 90
1153
 91
0
280
0
281
0
  0
CLASS
  1
VISUALSTYLE
  2
AcDbVisualStyle
  3
ObjectDBX Classes
 90
4095
 91
0
280
0
281
0
  0
CLASS
  1
MATERIAL
  2
AcDbMaterial
  3
ObjectDBX Classes
 90
1153
 91
0
280
0
281
0
  0
CLASS
  1
SCALE
  2
AcDbScale
  3
ObjectDBX Classes
 90
1153
 91
0
280
0
281
0
  0
CLASS
  1
TABLESTYLE
  2
AcDbTableStyle
  3
ObjectDBX Classes
 90
4095
 91
0
280
0
281
0
  0
CLASS
  1
MLEADERSTYLE
  2
AcDbMLeaderStyle
  3
ACDB_MLEADERSTYLE_CLASS
 90
4095
 91
0
280
0
281
0
  0
CLASS
  1
DICTIONARYVAR
  2
AcDbDictionaryVar
  3
ObjectDBX Classes
 90
0
 91
0
280
0
281
0
  0
CLASS
  1
CELLSTYLEMAP
  2
AcDbCellStyleMap
  3
ObjectDBX Classes
 90
1152
 91
0
280
0
281
0
  0
CLASS
  1
MENTALRAYRENDERSETTINGS
  2
AcDbMentalRayRenderSettings
  3
SCENEOE
 90
1024
 91
0
280
0
281
0
  0
CLASS
  1
ACDBDETAILVIEWSTYLE
  2
AcDbDetailViewStyle
  3
ObjectDBX Classes
 90
1025
 91
0
280
0
281
0
  0
CLASS
  1
ACDBSECTIONVIEWSTYLE
  2
AcDbSectionViewStyle
  3
ObjectDBX Classes
 90
1025
 91
0
280
0
281
0
  0
CLASS
  1
RASTERVARIABLES
  2
AcDbRasterVariables
  3
ISM
 90
0
 91
0
280
0
281
0
  0
CLASS
  1
LAYOUT
  2
AcDbLayout
  3
ObjectDBX Classes
 90
0
 91
0
280
0
281
0
  0
CLASS
  1
ACDBPLACEHOLDER
  2
AcDbPlaceHolder
  3
ObjectDBX Classes
 90
0
 91
0
280
0
281
0
  0
ENDSEC
  0
SECTION
  2
TABLES
  0
TABLE
  2
VPORT
  5
8
330
0
100
AcDbSymbolTable
 70
1
  0
VPORT
  5
23
330
8
100
AcDbSymbolTableRecord
100
AcDbViewportTableRecord
  2
*Active
 70
0
 10
0.0
 20
0.0
 11
1.0
 21
1.0
 12
0.0
 22
0.0
 13
0.0
 23
0.0
 14
0.5
 24
0.5
 15
0.5
 25
0.5
 16
0.0
 26
0.0
 36
1.0
 17
0.0
 27
0.0
 37
0.0
 40
1000.0
 41
1.34
 42
50.0
 43
0.0
 44
0.0
 50
0.0
 51
0.0
 71
0
 72
1000
 73
1
 74
3
 75
0
 76
0
 77
0
 78
0
281
0
 65
0
146
0.0
  0
ENDTAB
  0
TABLE
  2
LTYPE
  5
2
330
0
100
AcDbSymbolTable
 70
3
  0
LTYPE
  5
24
330
2
100
AcDbSymbolTableRecord
100
AcDbLinetypeTableRecord
  2
ByBlock
 70
0
  3

 72
65
 73
0
 40
0.0
  0
LTYPE
  5
25
330
2
100
AcDbSymbolTableRecord
100
AcDbLinetypeTableRecord
  2
ByLayer
 70
0
  3

 72
65
 73
0
 40
0.0
  0
LTYPE
  5
26
330
2
100
AcDbSymbolTableRecord
100
AcDbLinetypeTableRecord
  2
Continuous
 70
0
  3

 72
65
 73
0
 40
0.0
  0
ENDTAB
  0
TABLE
  2
LAYER
  5
1
330
0
100
AcDbSymbolTable
 70
4
  0
LAYER
  5
27
330
1
100
AcDbSymbolTableRecord
100
AcDbLayerTableRecord
  2
0
 70
0
 62
7
  6
Continuous
370
-3
390
13
347
21
  0
LAYER
  5
28
330
1
100
AcDbSymbolTableRecord
100
AcDbLayerTableRecord
  2
Defpoints
 70
0
 62
7
  6
Continuous
290
0
370
-3
390
13
347
21
  0
LAYER
  5
2F
330
1
100
AcDbSymbolTableRecord
100
AcDbLayerTableRecord
  2
PLATES
 70
0
 62
7
  6
Continuous
370
-3
390
13
347
21
  0
LAYER
  5
30
330
1
100
AcDbSymbolTableRecord
100
AcDbLayerTableRecord
  2
NUMBERS
 70
0
 62
7
  6
Continuous
370
-3
390
13
347
21
  0
ENDTAB
  0
TABLE
  2
STYLE
  5
5
330
0
100
AcDbSymbolTable
 70
1
  0
STYLE
  5
29
330
5
100
AcDbSymbolTableRecord
100
AcDbTextStyleTableRecord
  2
Standard
 70
0
 40
0.0
 41
1.0
 50
0.0
 71
0
 42
2.5
  3
txt
  4

  0
ENDTAB
  0
TABLE
  2
VIEW
  5
7
330
0
100
AcDbSymbolTable
 70
0
  0
ENDTAB
  0
TABLE
  2
UCS
  5
6
330
0
100
AcDbSymbolTable
 70
0
  0
ENDTAB
  0
TABLE
  2
APPID
  5
3
330
0
100
AcDbSymbolTable
 70
3
  0
APPID
  5
2A
330
3
100
AcDbSymbolTableRecord
100
AcDbRegAppTableRecord
  2
ACAD
 70
0
  0
APPID
  5
F9
330
3
100
AcDbSymbolTableRecord
100
AcDbRegAppTableRecord
  2
HATCHBACKGROUNDCOLOR
 70
0
  0
APPID
  5
FA
330
3
100
AcDbSymbolTableRecord
100
AcDbRegAppTableRecord
  2
EZDXF
 70
0
  0
ENDTAB
  0
TABLE
  2
DIMSTYLE
  5
4
330
0
100
AcDbSymbolTable
 70
1
100
AcDbDimStyleTable
  0
DIMSTYLE
105
2B
330
4
100
AcDbSymbolTableRecord
100
AcDbDimStyleTableRecord
  2
Standard
 70
0
 40
1.0
 41
2.5
 42
0.625
 43
3.75
 44
1.25
 45
0.0
 46
0.0
 47
0.0
 48
0.0
 49
2.5
140
2.5
141
2.5
142
0.0
143
0.03937007874
144
1.0
145
0.0
146
1.0
147
0.625
148
0.0
 69
0
 70
0
 71
0
 72
0
 73
0
 74
0
 75
0
 76
0
 77
1
 78
8
 79
3
170
0
171
3
172
1
173
0
174
0
175
0
176
0
177
0
178
0
179
2
271
2
272
2
273
2
274
3
275
0
276
0
277
2
278
44
279
0
280
0
281
0
282
0
283
0
284
8
285
0
286
0
288
0
289
3
290
0
371
-2
372
-2
  0
ENDTAB
  0
TABLE
  2
BLOCK_RECORD
  5
9
330
0
100
AcDbSymbolTable
 70
2
  0
BLOCK_RECORD
  5
17
330
9
100
AcDbSymbolTableRecord
100
AcDbBlockTableRecord
  2
*Model_Space
340
1A
 70
0
280
1
281
0
  0
BLOCK_RECORD
  5
1B
330
9
100
AcDbSymbolTableRecord
100
AcDbBlockTableRecord
  2
*Paper_Space
340
1E
 70
0
280
1
281
0
  0
ENDTAB
  0
ENDSEC
  0
SECTION
  2
BLOCKS
  0
BLOCK
  5
18
330
17
100
AcDbEntity
  8
0
100
AcDbBlockBegin
  2
*Model_Space
 70
0
 10
0.0
 20
0.0
 30
0.0
  3
*Model_Space
  1

  0
ENDBLK
  5
19
330
17
100
AcDbEntity
  8
0
100
AcDbBlockEnd
  0
BLOCK
  5
1C
330
1B
100
AcDbEntity
  8
0
100
AcDbBlockBegin
  2
*Paper_Space
 70
0
 10
0.0
 20
0.0
 30
0.0
  3
*Paper_Space
  1

  0
ENDBLK
  5
1D
330
1B
100
AcDbEntity
  8
0
100
AcDbBlockEnd
  0
ENDSEC
  0
SECTION
  2
ENTITIES
  0
LWPOLYLINE
  5
31
330
17
100
AcDbEntity
  8
PLATES
100
AcDbPolyline
 90
5
 70
0
 10
750.875
 20
2914.8905248296433
 10
100.0
 20
2914.8905248296433
 10
100.0
 20
2264.0155248296433
 10
750.875
 20
2264.0155248296433
 10
750.875
 20
2914.8905248296433
  0
TEXT
  5
32
330
17
100
AcDbEntity
  8
NUMBERS
100
AcDbText
 10
425.4374999999709
 20
2589.4530248296433
 30
0.0
 40
100.0
  1
203-A
100
AcDbText
  0
LWPOLYLINE
  5
33
330
17
100
AcDbEntity
  8
PLATES
100
AcDbPolyline
 90
5
 70
0
 10
4846.689436419605
 20
1436.8799253824618
 10
3395.714436419599
 20
1436.8799253824618
 10
3395.714436419599
 20
852.6799253824502
 10
4846.689436419605
 20
852.6799253824502
 10
4846.689436419605
 20
1436.8799253824618
  0
TEXT
  5
34
330
17
100
AcDbEntity
  8
NUMBERS
100
AcDbText
 10
4121.201936419602
 20
1144.779925382456
 30
0.0
 40
100.0
  1
203-E
100
AcDbText
  0
LWPOLYLINE
  5
35
330
17
100
AcDbEntity
  8
PLATES
100
AcDbPolyline
 90
5
 70
0
 10
3688.411580326807
 20
2914.8905248296433
 10
5193.361580326804
 20
2914.8905248296433
 10
5193.361580326804
 20
2327.5155248296433
 10
3688.411580326807
 20
2327.5155248296433
 10
3688.411580326807
 20
2914.8905248296433
  0
TEXT
  5
36
330
17
100
AcDbEntity
  8
NUMBERS
100
AcDbText
 10
4440.886580326842
 20
2621.2030248296505
 30
0.0
 40
100.0
  1
203-C
100
AcDbText
  0
LWPOLYLINE
  5
37
330
17
100
AcDbEntity
  8
PLATES
100
AcDbPolyline
 90
5
 70
0
 10
6035.039249715803
 20
6298.068936902229
 10
6865.3017497158
 20
6298.068936902229
 10
6865.3017497158
 20
5647.193936902244
 10
6035.039249715803
 20
5647.193936902244
 10
6035.039249715803
 20
6298.068936902229
  0
TEXT
  5
38
330
17
100
AcDbEntity
  8
NUMBERS
100
AcDbText
 10
6450.170499715794
 20
5972.631436902237
 30
0.0
 40
100.0
  1
202-A
100
AcDbText
  0
LWPOLYLINE
  5
39
330
17
100
AcDbEntity
  8
PLATES
100
AcDbPolyline
 90
5
 70
0
 10
6464.114884245399
 20
5021.699315468431
 10
8356.414884245401
 20
5021.699315468431
 10
8356.414884245401
 20
4072.574315468417
 10
6464.114884245399
 20
4072.574315468417
 10
6464.114884245399
 20
5021.699315468431
  0
TEXT
  5
3A
330
17
100
AcDbEntity
  8
NUMBERS
100
AcDbText
 10
7410.264884245407
 20
4547.136815468424
 30
0.0
 40
100.0
  1
202-D
100
AcDbText
  0
LWPOLYLINE
  5
3B
330
17
100
AcDbEntity
  8
PLATES
100
AcDbPolyline
 90
5
 70
0
 10
9782.785443871806
 20
6298.068936902229
 10
11255.985443871803
 20
6298.068936902229
 10
11255.985443871803
 20
5707.518936902241
 10
9782.785443871806
 20
5707.518936902241
 10
9782.785443871806
 20
6298.068936902229
  0
TEXT
  5
3C
330
17
100
AcDbEntity
  8
NUMBERS
100
AcDbText
 10
10519.385443871783
 20
6002.793936902228
 30
0.0
 40
100.0
  1
202-C
100
AcDbText
  0
LWPOLYLINE
  5
3D
330
17
100
AcDbEntity
  8
PLATES
100
AcDbPolyline
 90
5
 70
0
 10
9194.162484955406
 20
4718.914612319044
 10
10870.5624849554
 20
4718.914612319044
 10
10870.5624849554
 20
4128.364612319048
 10
9194.162484955406
 20
4128.364612319048
 10
9194.162484955406
 20
4718.914612319044
  0
TEXT
  5
3E
330
17
100
AcDbEntity
  8
NUMBERS
100
AcDbText
 10
10032.362484955403
 20
4423.6396123190425
 30
0.0
 40
100.0
  1
202-E
100
AcDbText
  0
LWPOLYLINE
  5
3F
330
17
100
AcDbEntity
  8
PLATES
100
AcDbPolyline
 90
5
 70
0
 10
560.0841252497048
 20
6294.468129202338
 10
1061.8341252497048
 20
6294.468129202338
 10
1061.8341252497048
 20
5643.593129202331
 10
560.0841252497048
 20
5643.593129202331
 10
560.0841252497048
 20
6294.468129202338
  0
TEXT
  5
40
330
17
100
AcDbEntity
  8
NUMBERS
100
AcDbText
 10
810.9591252497194
 20
5969.030629202338
 30
0.0
 40
100.0
  1
201-A
100
AcDbText
  0
LWPOLYLINE
  5
41
330
17
100
AcDbEntity
  8
PLATES
100
AcDbPolyline
 90
5
 70
0
 10
3404.6327190584125
 20
4743.477286147732
 10
4563.5077190584125
 20
4743.477286147732
 10
4563.5077190584125
 20
4156.102286147732
 10
3404.6327190584125
 20
4156.102286147732
 10
3404.6327190584125
 20
4743.477286147732
  0
TEXT
  5
42
330
17
100
AcDbEntity
  8
NUMBERS
100
AcDbText
 10
3984.070219058398
 20
4449.789786147732
 30
0.0
 40
100.0
  1
201-D
100
AcDbText
  0
LWPOLYLINE
  5
43
330
17
100
AcDbEntity
  8
PLATES
100
AcDbPolyline
 90
7
 70
0
 10
19103.690589189908
 20
5512.2193344842235
 10
19354.515589189905
 20
5512.2193344842235
 10
19354.515589189905
 20
6163.094334484209
 10
18452.815589189908
 20
6163.094334484209
 10
18452.815589189908
 20
4864.519334484212
 10
19103.690589189908
 20
4864.519334484212
 10
19103.690589189908
 20
5512.2193344842235
  0
TEXT
  5
44
330
17
100
AcDbEntity
  8
NUMBERS
100
AcDbText
 10
18851.239052304678
 20
5566.233371369446
 30
0.0
 40
100.0
  1
206-A
100
AcDbText
  0
LWPOLYLINE
  5
45
330
17
100
AcDbEntity
  8
PLATES
100
AcDbPolyline
 90
5
 70
0
 10
20365.952830299007
 20
6162.342434191749
 10
22223.327830299007
 20
6162.342434191749
 10
22223.327830299007
 20
5511.467434191742
 10
20365.952830299007
 20
5511.467434191742
 10
20365.952830299007
 20
6162.342434191749
  0
TEXT
  5
46
330
17
100
AcDbEntity
  8
NUMBERS
100
AcDbText
 10
21294.640330299007
 20
5836.904934191742
 30
0.0
 40
100.0
  1
206-B
100
AcDbText
  0
LWPOLYLINE
  5
47
330
17
100
AcDbEntity
  8
PLATES
100
AcDbPolyline
 90
5
 70
0
 10
19749.066367652413
 20
4873.008078090148
 10
21539.76636765241
 20
4873.008078090148
 10
21539.76636765241
 20
3923.883078090148
 10
19749.066367652413
 20
3923.883078090148
 10
19749.066367652413
 20
4873.008078090148
  0
TEXT
  5
48
330
17
100
AcDbEntity
  8
NUMBERS
100
AcDbText
 10
20644.41636765242
 20
4398.445578090148
 30
0.0
 40
100.0
  1
206-C
100
AcDbText
  0
LWPOLYLINE
  5
49
330
17
100
AcDbEntity
  8
PLATES
100
AcDbPolyline
 90
5
 70
0
 10
21998.561320255103
 20
4499.2978438173595
 10
23655.91132025511
 20
4499.2978438173595
 10
23655.91132025511
 20
3915.0978438173624
 10
21998.561320255103
 20
3915.0978438173624
 10
21998.561320255103
 20
4499.2978438173595
  0
TEXT
  5
4A
330
17
100
AcDbEntity
  8
NUMBERS
100
AcDbText
 10
22827.236320255106
 20
4207.197843817354
 30
0.0
 40
100.0
  1
206-D
100
AcDbText
  0
LWPOLYLINE
  5
4B
330
17
100
AcDbEntity
  8
PLATES
100
AcDbPolyline
 90
5
 70
0
 10
15788.588300814503
 20
1655.3514380583292
 10
17480.86330081451
 20
1655.3514380583292
 10
17480.86330081451
 20
1064.8014380583409
 10
15788.588300814503
 20
1064.8014380583409
 10
15788.588300814503
 20
1655.3514380583292
  0
TEXT
  5
4C
330
17
100
AcDbEntity
  8
NUMBERS
100
AcDbText
 10
16634.7258008145
 20
1360.076438058335
 30
0.0
 40
100.0
  1
207-E
100
AcDbText
  0
LWPOLYLINE
  5
4D
330
17
100
AcDbEntity
  8
PLATES
100
AcDbPolyline
 90
5
 70
0
 10
12244.60220113011
 20
5224.5528837071615
 10
12898.652201130099
 20
5224.5528837071615
 10
12898.652201130099
 20
4672.10288370715
 10
12244.60220113011
 20
4672.10288370715
 10
12244.60220113011
 20
5224.5528837071615
  0
TEXT
  5
4E
330
17
100
AcDbEntity
  8
NUMBERS
100
AcDbText
 10
12571.62720113009
 20
4948.327883707156
 30
0.0
 40
100.0
  1
205-C
100
AcDbText
  0
LWPOLYLINE
  5
4F
330
17
100
AcDbEntity
  8
PLATES
100
AcDbPolyline
 90
5
 70
0
 10
15799.2758933882
 20
4674.9873502217015
 10
17259.7758933882
 20
4674.9873502217015
 10
17259.7758933882
 20
4090.787350221697
 10
15799.2758933882
 20
4090.787350221697
 10
15799.2758933882
 20
4674.9873502217015
  0
TEXT
  5
50
330
17
100
AcDbEntity
  8
NUMBERS
100
AcDbText
 10
16529.5258933882
 20
4382.887350221703
 30
0.0
 40
100.0
  1
205-E
100
AcDbText
  0
LWPOLYLINE
  5
51
330
17
100
AcDbEntity
  8
PLATES
100
AcDbPolyline
 90
5
 70
0
 10
33864.63544739864
 20
4244.231542318594
 10
35528.33544739864
 20
4244.231542318594
 10
35528.33544739864
 20
3660.031542318582
 10
33864.63544739864
 20
3660.031542318582
 10
33864.63544739864
 20
4244.231542318594
  0
TEXT
  5
52
330
17
100
AcDbEntity
  8
NUMBERS
100
AcDbText
 10
34696.48544739865
 20
3952.131542318588
 30
0.0
 40
100.0
  1
210-D
100
AcDbText
  0
LWPOLYLINE
  5
53
330
17
100
AcDbEntity
  8
PLATES
100
AcDbPolyline
 90
5
 70
0
 10
31171.843805964105
 20
6339.7266405295595
 10
33032.39380596408
 20
6339.7266405295595
 10
33032.39380596408
 20
5688.8516405295595
 10
31171.843805964105
 20
5688.8516405295595
 10
31171.843805964105
 20
6339.7266405295595
  0
TEXT
  5
54
330
17
100
AcDbEntity
  8
NUMBERS
100
AcDbText
 10
32102.1188059641
 20
6014.289140529567
 30
0.0
 40
100.0
  1
210-A
100
AcDbText
  0
LWPOLYLINE
  5
55
330
17
100
AcDbEntity
  8
PLATES
100
AcDbPolyline
 90
5
 70
0
 10
383.0273584888055
 20
5063.670259035069
 10
2275.3273584888084
 20
5063.670259035069
 10
2275.3273584888084
 20
4114.5452590350615
 10
383.0273584888055
 20
4114.5452590350615
 10
383.0273584888055
 20
5063.670259035069
  0
TEXT
  5
56
330
17
100
AcDbEntity
  8
NUMBERS
100
AcDbText
 10
1329.1773584888142
 20
4589.107759035069
 30
0.0
 40
100.0
  1
201-C
100
AcDbText
  0
LWPOLYLINE
  5
57
330
17
100
AcDbEntity
  8
PLATES
100
AcDbPolyline
 90
5
 70
0
 10
2213.836698501502
 20
6294.468129202338
 10
4418.873698501498
 20
6294.468129202338
 10
4418.873698501498
 20
5643.593129202331
 10
2213.836698501502
 20
5643.593129202331
 10
2213.836698501502
 20
6294.468129202338
  0
TEXT
  5
58
330
17
100
AcDbEntity
  8
NUMBERS
100
AcDbText
 10
3316.3551985014783
 20
5969.030629202338
 30
0.0
 40
100.0
  1
201-B
100
AcDbText
  0
LWPOLYLINE
  5
59
330
17
100
AcDbEntity
  8
PLATES
100
AcDbPolyline
 90
5
 70
0
 10
7339.7496023060085
 20
6298.068936902229
 10
9279.674602306011
 20
6298.068936902229
 10
9279.674602306011
 20
5647.193936902244
 10
7339.7496023060085
 20
5647.193936902244
 10
7339.7496023060085
 20
6298.068936902229
  0
TEXT
  5
5A
330
17
100
AcDbEntity
  8
NUMBERS
100
AcDbText
 10
8309.712102306017
 20
5972.631436902244
 30
0.0
 40
100.0
  1
202-B
100
AcDbText
  0
LWPOLYLINE
  5
5B
330
17
100
AcDbEntity
  8
PLATES
100
AcDbPolyline
 90
5
 70
0
 10
404.14456914061157
 20
1657.5391213625771
 10
2296.4445691406
 20
1657.5391213625771
 10
2296.4445691406
 20
708.4141213625699
 10
404.14456914061157
 20
708.4141213625699
 10
404.14456914061157
 20
1657.5391213625771
  0
TEXT
  5
5C
330
17
100
AcDbEntity
  8
NUMBERS
100
AcDbText
 10
1350.2945691406057
 20
1182.9766213625844
 30
0.0
 40
100.0
  1
203-D
100
AcDbText
  0
LWPOLYLINE
  5
5D
330
17
100
AcDbEntity
  8
PLATES
100
AcDbPolyline
 90
5
 70
0
 10
1240.264206555512
 20
2914.8905248296433
 10
3186.539206555506
 20
2914.8905248296433
 10
3186.539206555506
 20
2264.0155248296433
 10
1240.264206555512
 20
2264.0155248296433
 10
1240.264206555512
 20
2914.8905248296433
  0
TEXT
  5
5E
330
17
100
AcDbEntity
  8
NUMBERS
100
AcDbText
 10
2213.4017065554945
 20
2589.4530248296505
 30
0.0
 40
100.0
  1
203-B
100
AcDbText
  0
LWPOLYLINE
  5
5F
330
17
100
AcDbEntity
  8
PLATES
100
AcDbPolyline
 90
7
 70
0
 10
15302.9419441707
 20
6334.535680180481
 10
12245.416944170705
 20
6334.535680180481
 10
12245.416944170705
 20
5432.835680180469
 10
12899.466944170708
 20
5432.835680180469
 10
12899.466944170708
 20
5680.485680180478
 10
15302.9419441707
 20
5680.485680180478
 10
15302.9419441707
 20
6334.535680180481
  0
TEXT
  5
60
330
17
100
AcDbEntity
  8
NUMBERS
100
AcDbText
 10
13684.135712182207
 20
5973.729412168948
 30
0.0
 40
100.0
  1
205-A
100
AcDbText
  0
LWPOLYLINE
  5
61
330
17
100
AcDbEntity
  8
PLATES
100
AcDbPolyline
 90
5
 70
0
 10
57501.6270351797
 20
1420.2885661014807
 10
58149.32703517971
 20
1420.2885661014807
 10
58149.32703517971
 20
967.8510661014807
 10
57501.6270351797
 20
967.8510661014807
 10
57501.6270351797
 20
1420.2885661014807
  0
TEXT
  5
62
330
17
100
AcDbEntity
  8
NUMBERS
100
AcDbText
 10
57825.47703517972
 20
1194.0698161014807
 30
0.0
 40
100.0
  1
220-D
100
AcDbText
  0
LWPOLYLINE
  5
63
330
17
100
AcDbEntity
  8
PLATES
100
AcDbPolyline
 90
5
 70
0
 10
55111.78982527193
 20
1471.2151504905487
 10
56902.48982527193
 20
1471.2151504905487
 10
56902.48982527193
 20
518.9151504905531
 10
55111.78982527193
 20
518.9151504905531
 10
55111.78982527193
 20
1471.2151504905487
  0
TEXT
  5
64
330
17
100
AcDbEntity
  8
NUMBERS
100
AcDbText
 10
56007.13982527194
 20
995.0651504905472
 30
0.0
 40
100.0
  1
220-C
100
AcDbText
  0
LWPOLYLINE
  5
65
330
17
100
AcDbEntity
  8
PLATES
100
AcDbPolyline
 90
5
 70
0
 10
59260.683737805026
 20
2735.0415223993987
 10
60514.80873780503
 20
2735.0415223993987
 10
60514.80873780503
 20
2144.4915223993885
 10
59260.683737805026
 20
2144.4915223993885
 10
59260.683737805026
 20
2735.0415223993987
  0
TEXT
  5
66
330
17
100
AcDbEntity
  8
NUMBERS
100
AcDbText
 10
59887.746237805026
 20
2439.76652239939
 30
0.0
 40
100.0
  1
220-B
100
AcDbText
  0
LWPOLYLINE
  5
67
330
17
100
AcDbEntity
  8
PLATES
100
AcDbPolyline
 90
7
 70
0
 10
58147.42489894341
 20
2930.9576618541832
 10
55705.84989894339
 20
2930.9576618541832
 10
55705.84989894339
 20
2283.257661854179
 10
57499.7248989434
 20
2283.257661854179
 10
57499.7248989434
 20
1727.6326618541789
 10
58147.42489894341
 20
1727.6326618541789
 10
58147.42489894341
 20
2930.9576618541832
  0
TEXT
  5
68
330
17
100
AcDbEntity
  8
NUMBERS
100
AcDbText
 10
57092.912888879844
 20
2495.570651790622
 30
0.0
 40
100.0
  1
220-A
100
AcDbText
  0
LWPOLYLINE
  5
69
330
17
100
AcDbEntity
  8
PLATES
100
AcDbPolyline
 90
5
 70
0
 10
24549.51817364691
 20
2980.3793848557907
 10
26402.130673646912
 20
2980.3793848557907
 10
26402.130673646912
 20
2329.5043848557907
 10
24549.51817364691
 20
2329.5043848557907
 10
24549.51817364691
 20
2980.3793848557907
  0
TEXT
  5
6A
330
17
100
AcDbEntity
  8
NUMBERS
100
AcDbText
 10
25475.824423646904
 20
2654.941884855798
 30
0.0
 40
100.0
  1
211-A
100
AcDbText
  0
LWPOLYLINE
  5
6B
330
17
100
AcDbEntity
  8
PLATES
100
AcDbPolyline
 90
5
 70
0
 10
58846.84209637676
 20
1366.6743637854088
 10
60523.242096376765
 20
1366.6743637854088
 10
60523.242096376765
 20
779.2993637854088
 10
58846.84209637676
 20
779.2993637854088
 10
58846.84209637676
 20
1366.6743637854088
  0
TEXT
  5
6C
330
17
100
AcDbEntity
  8
NUMBERS
100
AcDbText
 10
59685.04209637677
 20
1072.9868637854088
 30
0.0
 40
100.0
  1
220-E
100
AcDbText
  0
LWPOLYLINE
  5
6D
330
17
100
AcDbEntity
  8
PLATES
100
AcDbPolyline
 90
5
 70
0
 10
24588.16523939911
 20
1663.8825278983204
 10
26378.86523939912
 20
1663.8825278983204
 10
26378.86523939912
 20
714.7575278983204
 10
24588.16523939911
 20
714.7575278983204
 10
24588.16523939911
 20
1663.8825278983204
  0
TEXT
  5
6E
330
17
100
AcDbEntity
  8
NUMBERS
100
AcDbText
 10
25483.515239399116
 20
1189.3200278983204
 30
0.0
 40
100.0
  1
211-C
100
AcDbText
  0
LWPOLYLINE
  5
6F
330
17
100
AcDbEntity
  8
PLATES
100
AcDbPolyline
 90
7
 70
0
 10
27563.171269787388
 20
2980.3793848557907
 10
26664.646269787394
 20
2980.3793848557907
 10
26664.646269787394
 20
2329.5043848557907
 10
26912.296269787388
 20
2329.5043848557907
 10
26912.296269787388
 20
1732.604384855782
 10
27563.171269787388
 20
1732.604384855782
 10
27563.171269787388
 20
2980.3793848557907
  0
TEXT
  5
70
330
17
100
AcDbEntity
  8
NUMBERS
100
AcDbText
 10
27163.333610551723
 20
2405.916725620111
 30
0.0
 40
100.0
  1
211-B
100
AcDbText
  0
LWPOLYLINE
  5
71
330
17
100
AcDbEntity
  8
PLATES
100
AcDbPolyline
 90
5
 70
0
 10
28180.32602587712
 20
1307.6521721981771
 10
29837.676025877096
 20
1307.6521721981771
 10
29837.676025877096
 20
723.4521721981728
 10
28180.32602587712
 20
723.4521721981728
 10
28180.32602587712
 20
1307.6521721981771
  0
TEXT
  5
72
330
17
100
AcDbEntity
  8
NUMBERS
100
AcDbText
 10
29009.001025877107
 20
1015.5521721981786
 30
0.0
 40
100.0
  1
211-D
100
AcDbText
  0
LWPOLYLINE
  5
73
330
17
100
AcDbEntity
  8
PLATES
100
AcDbPolyline
 90
5
 70
0
 10
13509.379693551207
 20
4943.550943648261
 10
15401.679693551312
 20
4943.550943648261
 10
15401.679693551312
 20
3997.6009436482636
 10
13509.379693551207
 20
3997.6009436482636
 10
13509.379693551207
 20
4943.550943648261
  0
TEXT
  5
74
330
17
100
AcDbEntity
  8
NUMBERS
100
AcDbText
 10
14455.529693551274
 20
4470.5759436482695
 30
0.0
 40
100.0
  1
205-D
100
AcDbText
  0
LWPOLYLINE
  5
75
330
17
100
AcDbEntity
  8
PLATES
100
AcDbPolyline
 90
5
 70
0
 10
16196.678576884602
 20
6316.130618717863
 10
17352.3785768846
 20
6316.130618717863
 10
17352.3785768846
 20
5728.755618717863
 10
16196.678576884602
 20
5728.755618717863
 10
16196.678576884602
 20
6316.130618717863
  0
TEXT
  5
76
330
17
100
AcDbEntity
  8
NUMBERS
100
AcDbText
 10
16774.528576884608
 20
6022.443118717863
 30
0.0
 40
100.0
  1
205-B
100
AcDbText
  0
LWPOLYLINE
  5
77
330
17
100
AcDbEntity
  8
PLATES
100
AcDbPolyline
 90
7
 70
0
 10
13046.30804944021
 20
2978.426781028349
 10
12143.020549440203
 20
2978.426781028349
 10
12143.020549440203
 20
1730.6517810283476
 10
12793.895549440203
 20
1730.6517810283476
 10
12793.895549440203
 20
2327.5517810283636
 10
13046.30804944021
 20
2327.5517810283636
 10
13046.30804944021
 20
2978.426781028349
  0
TEXT
  5
78
330
17
100
AcDbEntity
  8
NUMBERS
100
AcDbText
 10
12544.448902614808
 20
2404.754677853736
 30
0.0
 40
100.0
  1
207-A
100
AcDbText
  0
LWPOLYLINE
  5
79
330
17
100
AcDbEntity
  8
PLATES
100
AcDbPolyline
 90
5
 70
0
 10
13208.747073025705
 20
2963.2233981984537
 10
14924.834073025704
 20
2963.2233981984537
 10
14924.834073025704
 20
2312.3483981984537
 10
13208.747073025705
 20
2312.3483981984537
 10
13208.747073025705
 20
2963.2233981984537
  0
TEXT
  5
7A
330
17
100
AcDbEntity
  8
NUMBERS
100
AcDbText
 10
14066.790573025704
 20
2637.7858981984537
 30
0.0
 40
100.0
  1
207-B
100
AcDbText
  0
LWPOLYLINE
  5
7B
330
17
100
AcDbEntity
  8
PLATES
100
AcDbPolyline
 90
5
 70
0
 10
13429.947876246311
 20
1705.7770570124485
 10
15220.647876246308
 20
1705.7770570124485
 10
15220.647876246308
 20
756.6520570124412
 10
13429.947876246311
 20
756.6520570124412
 10
13429.947876246311
 20
1705.7770570124485
  0
TEXT
  5
7C
330
17
100
AcDbEntity
  8
NUMBERS
100
AcDbText
 10
14325.297876246288
 20
1231.2145570124412
 30
0.0
 40
100.0
  1
207-D
100
AcDbText
  0
LWPOLYLINE
  5
7D
330
17
100
AcDbEntity
  8
PLATES
100
AcDbPolyline
 90
5
 70
0
 10
15946.443578590304
 20
2869.963545812563
 10
17203.743578590307
 20
2869.963545812563
 10
17203.743578590307
 20
2279.413545812553
 10
15946.443578590304
 20
2279.413545812553
 10
15946.443578590304
 20
2869.963545812563
  0
TEXT
  5
7E
330
17
100
AcDbEntity
  8
NUMBERS
100
AcDbText
 10
16575.093578590328
 20
2574.6885458125616
 30
0.0
 40
100.0
  1
207-C
100
AcDbText
  0
LWPOLYLINE
  5
7F
330
17
100
AcDbEntity
  8
PLATES
100
AcDbPolyline
 90
7
 70
0
 10
34203.76694507111
 20
6339.7266405295595
 10
33302.0669450711
 20
6339.7266405295595
 10
33302.0669450711
 20
5688.8516405295595
 10
33552.89194507111
 20
5688.8516405295595
 10
33552.89194507111
 20
5090.3646405295585
 10
34203.76694507111
 20
5090.3646405295585
 10
34203.76694507111
 20
6339.7266405295595
  0
TEXT
  5
80
330
17
100
AcDbEntity
  8
NUMBERS
100
AcDbText
 10
33802.9492083073
 20
5765.077903765741
 30
0.0
 40
100.0
  1
210-B
100
AcDbText
  0
LWPOLYLINE
  5
81
330
17
100
AcDbEntity
  8
PLATES
100
AcDbPolyline
 90
5
 70
0
 10
31107.503052575572
 20
4909.988280344442
 10
32898.20305257557
 20
4909.988280344442
 10
32898.20305257557
 20
3960.863280344427
 10
31107.503052575572
 20
3960.863280344427
 10
31107.503052575572
 20
4909.988280344442
  0
TEXT
  5
82
330
17
100
AcDbEntity
  8
NUMBERS
100
AcDbText
 10
32002.853052575578
 20
4435.425780344434
 30
0.0
 40
100.0
  1
210-C
100
AcDbText
  0
LWPOLYLINE
  5
83
330
17
100
AcDbEntity
  8
PLATES
100
AcDbPolyline
 90
7
 70
0
 10
8615.196141693901
 20
2752.7610368475725
 10
6183.146141693913
 20
2752.7610368475725
 10
6183.146141693913
 20
1549.4360368475682
 10
6830.84614169391
 20
1549.4360368475682
 10
6830.84614169391
 20
2105.061036847561
 10
8615.196141693901
 20
2105.061036847561
 10
8615.196141693901
 20
2752.7610368475725
  0
TEXT
  5
84
330
17
100
AcDbEntity
  8
NUMBERS
100
AcDbText
 10
7233.251242650353
 20
2317.0184358911356
 30
0.0
 40
100.0
  1
204-A
100
AcDbText
  0
LWPOLYLINE
  5
85
330
17
100
AcDbEntity
  8
PLATES
100
AcDbPolyline
 90
5
 70
0
 10
6183.146141693913
 20
1322.6244142985233
 10
6830.84614169391
 20
1322.6244142985233
 10
6830.84614169391
 20
871.7744142985321
 10
6183.146141693913
 20
871.7744142985321
 10
6183.146141693913
 20
1322.6244142985233
  0
TEXT
  5
86
330
17
100
AcDbEntity
  8
NUMBERS
100
AcDbText
 10
6506.996141693904
 20
1097.1994142985277
 30
0.0
 40
100.0
  1
204-C
100
AcDbText
  0
LWPOLYLINE
  5
87
330
17
100
AcDbEntity
  8
PLATES
100
AcDbPolyline
 90
5
 70
0
 10
9796.873494046406
 20
1390.709424469067
 10
8006.173494046408
 20
1390.709424469067
 10
8006.173494046408
 20
438.4094244690714
 10
9796.873494046406
 20
438.4094244690714
 10
9796.873494046406
 20
1390.709424469067
  0
TEXT
  5
88
330
17
100
AcDbEntity
  8
NUMBERS
100
AcDbText
 10
8901.523494046414
 20
914.5594244690656
 30
0.0
 40
100.0
  1
204-D
100
AcDbText
  0
LWPOLYLINE
  5
89
330
17
100
AcDbEntity
  8
PLATES
100
AcDbPolyline
 90
5
 70
0
 10
9840.303809062505
 20
2752.7610368475725
 10
11100.77880906251
 20
2752.7610368475725
 10
11100.77880906251
 20
2165.386036847558
 10
9840.303809062505
 20
2165.386036847558
 10
9840.303809062505
 20
2752.7610368475725
  0
TEXT
  5
8A
330
17
100
AcDbEntity
  8
NUMBERS
100
AcDbText
 10
10470.541309062522
 20
2459.0735368475653
 30
0.0
 40
100.0
  1
204-B
100
AcDbText
  0
LWPOLYLINE
  5
8B
330
17
100
AcDbEntity
  8
PLATES
100
AcDbPolyline
 90
5
 70
0
 10
18894.998220405803
 20
2146.2898136229633
 10
20753.960720405812
 20
2146.2898136229633
 10
20753.960720405812
 20
2797.1648136229705
 10
18894.998220405803
 20
2797.1648136229705
 10
18894.998220405803
 20
2146.2898136229633
  0
TEXT
  5
8C
330
17
100
AcDbEntity
  8
NUMBERS
100
AcDbText
 10
19824.479470405815
 20
2471.7273136229705
 30
0.0
 40
100.0
  1
208-A
100
AcDbText
  0
LWPOLYLINE
  5
8D
330
17
100
AcDbEntity
  8
PLATES
100
AcDbPolyline
 90
5
 70
0
 10
18878.45189835351
 20
1526.352290651077
 10
20669.151898353404
 20
1526.352290651077
 10
20669.151898353404
 20
577.227290651077
 10
18878.45189835351
 20
577.227290651077
 10
18878.45189835351
 20
1526.352290651077
  0
TEXT
  5
8E
330
17
100
AcDbEntity
  8
NUMBERS
100
AcDbText
 10
19773.801898353457
 20
1051.7897906510698
 30
0.0
 40
100.0
  1
208-C
100
AcDbText
  0
LWPOLYLINE
  5
8F
330
17
100
AcDbEntity
  8
PLATES
100
AcDbPolyline
 90
7
 70
0
 10
21930.49101851751
 20
2823.4316506345276
 10
21027.203518517505
 20
2823.4316506345276
 10
21027.203518517505
 20
2172.5566506345276
 10
21279.61601851751
 20
2172.5566506345276
 10
21279.61601851751
 20
1528.0316506345189
 10
21930.49101851751
 20
1528.0316506345189
 10
21930.49101851751
 20
2823.4316506345276
  0
TEXT
  5
90
330
17
100
AcDbEntity
  8
NUMBERS
100
AcDbText
 10
21531.400845440585
 20
2228.285227557608
 30
0.0
 40
100.0
  1
208-B
100
AcDbText
  0
LWPOLYLINE
  5
91
330
17
100
AcDbEntity
  8
PLATES
100
AcDbPolyline
 90
5
 70
0
 10
21571.78717932811
 20
693.7249999999985
 10
23229.1371793281
 20
693.7249999999985
 10
23229.1371793281
 20
100.0
 10
21571.78717932811
 20
100.0
 10
21571.78717932811
 20
693.7249999999985
  0
TEXT
  5
92
330
17
100
AcDbEntity
  8
NUMBERS
100
AcDbText
 10
22400.46217932811
 20
396.8625000000029
 30
0.0
 40
100.0
  1
208-D
100
AcDbText
  0
LWPOLYLINE
  5
93
330
17
100
AcDbEntity
  8
PLATES
100
AcDbPolyline
 90
7
 70
0
 10
25528.530193194107
 20
6370.836878088558
 10
24625.2426931941
 20
6370.836878088558
 10
24625.2426931941
 20
5072.261878088568
 10
25276.1176931941
 20
5072.261878088568
 10
25276.1176931941
 20
5719.961878088558
 10
25528.530193194107
 20
5719.961878088558
 10
25528.530193194107
 20
6370.836878088558
  0
TEXT
  5
94
330
17
100
AcDbEntity
  8
NUMBERS
100
AcDbText
 10
25024.182093142925
 20
5774.253728139745
 30
0.0
 40
100.0
  1
209-A
100
AcDbText
  0
LWPOLYLINE
  5
95
330
17
100
AcDbEntity
  8
PLATES
100
AcDbPolyline
 90
5
 70
0
 10
26107.05492787907
 20
6370.836878088558
 10
27951.72992787906
 20
6370.836878088558
 10
27951.72992787906
 20
5719.961878088558
 10
26107.05492787907
 20
5719.961878088558
 10
26107.05492787907
 20
6370.836878088558
  0
TEXT
  5
96
330
17
100
AcDbEntity
  8
NUMBERS
100
AcDbText
 10
27029.39242787905
 20
6045.399378088558
 30
0.0
 40
100.0
  1
209-B
100
AcDbText
  0
LWPOLYLINE
  5
97
330
17
100
AcDbEntity
  8
PLATES
100
AcDbPolyline
 90
5
 70
0
 10
27817.166596932744
 20
5004.141903051794
 10
29607.866596932756
 20
5004.141903051794
 10
29607.866596932756
 20
4055.016903051779
 10
27817.166596932744
 20
4055.016903051779
 10
27817.166596932744
 20
5004.141903051794
  0
TEXT
  5
98
330
17
100
AcDbEntity
  8
NUMBERS
100
AcDbText
 10
28712.516596932735
 20
4529.579403051779
 30
0.0
 40
100.0
  1
209-D
100
AcDbText
  0
LWPOLYLINE
  5
99
330
17
100
AcDbEntity
  8
PLATES
100
AcDbPolyline
 90
5
 70
0
 10
25612.7579611744
 20
4645.222167689259
 10
27270.10796117439
 20
4645.222167689259
 10
27270.10796117439
 20
4057.8471676892586
 10
25612.7579611744
 20
4057.8471676892586
 10
25612.7579611744
 20
4645.222167689259
  0
TEXT
  5
9A
330
17
100
AcDbEntity
  8
NUMBERS
100
AcDbText
 10
26441.432961174403
 20
4351.534667689266
 30
0.0
 40
100.0
  1
209-C
100
AcDbText
  0
LWPOLYLINE
  5
9B
330
17
100
AcDbEntity
  8
PLATES
100
AcDbPolyline
 90
7
 70
0
 10
31539.38458910417
 20
2896.2539303828016
 10
30637.684589104174
 20
2896.2539303828016
 10
30637.684589104174
 20
1646.8914303827987
 10
31288.55958910416
 20
1646.8914303827987
 10
31288.55958910416
 20
2245.378930382787
 10
31539.38458910417
 20
2245.378930382787
 10
31539.38458910417
 20
2896.2539303828016
  0
TEXT
  5
9C
330
17
100
AcDbEntity
  8
NUMBERS
100
AcDbText
 10
31038.502300744396
 20
2321.604968742591
 30
0.0
 40
100.0
  1
212-A
100
AcDbText
  0
LWPOLYLINE
  5
9D
330
17
100
AcDbEntity
  8
PLATES
100
AcDbPolyline
 90
5
 70
0
 10
31693.046204392653
 20
2896.2539303828016
 10
33552.00870439265
 20
2896.2539303828016
 10
33552.00870439265
 20
2245.378930382787
 10
31693.046204392653
 20
2245.378930382787
 10
31693.046204392653
 20
2896.2539303828016
  0
TEXT
  5
9E
330
17
100
AcDbEntity
  8
NUMBERS
100
AcDbText
 10
32622.527454392664
 20
2570.816430382787
 30
0.0
 40
100.0
  1
212-B
100
AcDbText
  0
LWPOLYLINE
  5
9F
330
17
100
AcDbEntity
  8
PLATES
100
AcDbPolyline
 90
5
 70
0
 10
31861.488962921925
 20
1549.0114752544469
 10
33652.18896292191
 20
1549.0114752544469
 10
33652.18896292191
 20
599.8864752544469
 10
31861.488962921925
 20
599.8864752544469
 10
31861.488962921925
 20
1549.0114752544469
  0
TEXT
  5
A0
330
17
100
AcDbEntity
  8
NUMBERS
100
AcDbText
 10
32756.838962921916
 20
1074.4489752544396
 30
0.0
 40
100.0
  1
212-C
100
AcDbText
  0
LWPOLYLINE
  5
A1
330
17
100
AcDbEntity
  8
PLATES
100
AcDbPolyline
 90
5
 70
0
 10
34226.5345040566
 20
1331.761031146998
 10
35880.70950405659
 20
1331.761031146998
 10
35880.70950405659
 20
744.3860311469907
 10
34226.5345040566
 20
744.3860311469907
 10
34226.5345040566
 20
1331.761031146998
  0
TEXT
  5
A2
330
17
100
AcDbEntity
  8
NUMBERS
100
AcDbText
 10
35053.62200405661
 20
1038.073531146998
 30
0.0
 40
100.0
  1
212-D
100
AcDbText
  0
LWPOLYLINE
  5
A3
330
17
100
AcDbEntity
  8
PLATES
100
AcDbPolyline
 90
7
 70
0
 10
52171.584081506066
 20
2950.8623885531197
 10
49114.05908150607
 20
2950.8623885531197
 10
49114.05908150607
 20
2303.1623885531226
 10
51523.88408150607
 20
2303.1623885531226
 10
51523.88408150607
 20
2049.1623885531226
 10
52171.584081506066
 20
2049.1623885531226
 10
52171.584081506066
 20
2950.8623885531197
  0
TEXT
  5
A4
330
17
100
AcDbEntity
  8
NUMBERS
100
AcDbText
 10
50735.24056520693
 20
2592.4313722539737
 30
0.0
 40
100.0
  1
219-A
100
AcDbText
  0
LWPOLYLINE
  5
A5
330
17
100
AcDbEntity
  8
PLATES
100
AcDbPolyline
 90
5
 70
0
 10
51523.88408150607
 20
1814.380776292077
 10
52171.584081506066
 20
1814.380776292077
 10
52171.584081506066
 20
1261.930776292087
 10
51523.88408150607
 20
1261.930776292087
 10
51523.88408150607
 20
1814.380776292077
  0
TEXT
  5
A6
330
17
100
AcDbEntity
  8
NUMBERS
100
AcDbText
 10
51847.73408150606
 20
1538.1557762920784
 30
0.0
 40
100.0
  1
219-D
100
AcDbText
  0
LWPOLYLINE
  5
A7
330
17
100
AcDbEntity
  8
PLATES
100
AcDbPolyline
 90
5
 70
0
 10
49117.052438085986
 20
1674.473320762947
 10
51009.35243808599
 20
1674.473320762947
 10
51009.35243808599
 20
722.1733207629513
 10
49117.052438085986
 20
722.1733207629513
 10
49117.052438085986
 20
1674.473320762947
  0
TEXT
  5
A8
330
17
100
AcDbEntity
  8
NUMBERS
100
AcDbText
 10
50063.20243808598
 20
1198.3233207629455
 30
0.0
 40
100.0
  1
219-C
100
AcDbText
  0
LWPOLYLINE
  5
A9
330
17
100
AcDbEntity
  8
PLATES
100
AcDbPolyline
 90
5
 70
0
 10
53261.62892161941
 20
2344.464318813014
 10
53261.62892161941
 20
2935.014318813017
 10
54420.50392161941
 20
2935.014318813017
 10
54420.50392161941
 20
2344.464318813014
 10
53261.62892161941
 20
2344.464318813014
  0
TEXT
  5
AA
330
17
100
AcDbEntity
  8
NUMBERS
100
AcDbText
 10
53841.06642161941
 20
2639.7393188130154
 30
0.0
 40
100.0
  1
219-B
100
AcDbText
  0
LWPOLYLINE
  5
AB
330
17
100
AcDbEntity
  8
PLATES
100
AcDbPolyline
 90
5
 70
0
 10
53067.6182349938
 20
1367.0085713909575
 10
54524.9432349938
 20
1367.0085713909575
 10
54524.9432349938
 20
782.8085713909604
 10
53067.6182349938
 20
782.8085713909604
 10
53067.6182349938
 20
1367.0085713909575
  0
TEXT
  5
AC
330
17
100
AcDbEntity
  8
NUMBERS
100
AcDbText
 10
53796.28073499381
 20
1074.908571390959
 30
0.0
 40
100.0
  1
219-E
100
AcDbText
  0
LWPOLYLINE
  5
AD
330
17
100
AcDbEntity
  8
PLATES
100
AcDbPolyline
 90
5
 70
0
 10
61470.225222622284
 20
6286.134540252824
 10
63414.912722622284
 20
6286.134540252824
 10
63414.912722622284
 20
5638.43454025282
 10
61470.225222622284
 20
5638.43454025282
 10
61470.225222622284
 20
6286.134540252824
  0
TEXT
  5
AE
330
17
100
AcDbEntity
  8
NUMBERS
100
AcDbText
 10
62442.568972622284
 20
5962.2845402528255
 30
0.0
 40
100.0
  1
221-A
100
AcDbText
  0
LWPOLYLINE
  5
AF
330
17
100
AcDbEntity
  8
PLATES
100
AcDbPolyline
 90
5
 70
0
 10
63579.88749492595
 20
6286.134540252824
 10
64232.34999492596
 20
6286.134540252824
 10
64232.34999492596
 20
5638.43454025282
 10
63579.88749492595
 20
5638.43454025282
 10
63579.88749492595
 20
6286.134540252824
  0
TEXT
  5
B0
330
17
100
AcDbEntity
  8
NUMBERS
100
AcDbText
 10
63906.11874492595
 20
5962.284540252833
 30
0.0
 40
100.0
  1
221-B
100
AcDbText
  0
LWPOLYLINE
  5
B1
330
17
100
AcDbEntity
  8
PLATES
100
AcDbPolyline
 90
5
 70
0
 10
61470.225222622284
 20
5051.205481079771
 10
63362.525222622295
 20
5051.205481079771
 10
63362.525222622295
 20
4098.905481079768
 10
61470.225222622284
 20
4098.905481079768
 10
61470.225222622284
 20
5051.205481079771
  0
TEXT
  5
B2
330
17
100
AcDbEntity
  8
NUMBERS
100
AcDbText
 10
62416.375222622286
 20
4575.055481079769
 30
0.0
 40
100.0
  1
221-D
100
AcDbText
  0
LWPOLYLINE
  5
B3
330
17
100
AcDbEntity
  8
PLATES
100
AcDbPolyline
 90
5
 70
0
 10
64271.293401759714
 20
4742.841122197424
 10
65784.18090175971
 20
4742.841122197424
 10
65784.18090175971
 20
4155.466122197409
 10
64271.293401759714
 20
4155.466122197409
 10
64271.293401759714
 20
4742.841122197424
  0
TEXT
  5
B4
330
17
100
AcDbEntity
  8
NUMBERS
100
AcDbText
 10
65027.73715175971
 20
4449.153622197417
 30
0.0
 40
100.0
  1
221-E
100
AcDbText
  0
LWPOLYLINE
  5
B5
330
17
100
AcDbEntity
  8
PLATES
100
AcDbPolyline
 90
5
 70
0
 10
65233.377088612535
 20
6208.395154314661
 10
66693.87708861253
 20
6208.395154314661
 10
66693.87708861253
 20
5624.1951543146715
 10
65233.377088612535
 20
5624.1951543146715
 10
65233.377088612535
 20
6208.395154314661
  0
TEXT
  5
B6
330
17
100
AcDbEntity
  8
NUMBERS
100
AcDbText
 10
65963.62708861253
 20
5916.29515431467
 30
0.0
 40
100.0
  1
221-C
100
AcDbText
  0
LWPOLYLINE
  5
B7
330
17
100
AcDbEntity
  8
PLATES
100
AcDbPolyline
 90
5
 70
0
 10
67462.80221786216
 20
6458.9399937875205
 10
69401.13971786218
 20
6458.9399937875205
 10
69401.13971786218
 20
5811.239993787523
 10
67462.80221786216
 20
5811.239993787523
 10
67462.80221786216
 20
6458.9399937875205
  0
TEXT
  5
B8
330
17
100
AcDbEntity
  8
NUMBERS
100
AcDbText
 10
68431.97096786217
 20
6135.089993787522
 30
0.0
 40
100.0
  1
222-A
100
AcDbText
  0
LWPOLYLINE
  5
B9
330
17
100
AcDbEntity
  8
PLATES
100
AcDbPolyline
 90
5
 70
0
 10
69557.6815840033
 20
6458.9399937875205
 10
70386.3565840033
 20
6458.9399937875205
 10
70386.3565840033
 20
5811.239993787523
 10
69557.6815840033
 20
5811.239993787523
 10
69557.6815840033
 20
6458.9399937875205
  0
TEXT
  5
BA
330
17
100
AcDbEntity
  8
NUMBERS
100
AcDbText
 10
69972.01908400329
 20
6135.089993787515
 30
0.0
 40
100.0
  1
222-B
100
AcDbText
  0
LWPOLYLINE
  5
BB
330
17
100
AcDbEntity
  8
PLATES
100
AcDbPolyline
 90
5
 70
0
 10
67587.89720413904
 20
5235.602817567953
 10
69480.19720413905
 20
5235.602817567953
 10
69480.19720413905
 20
4283.30281756795
 10
67587.89720413904
 20
4283.30281756795
 10
67587.89720413904
 20
5235.602817567953
  0
TEXT
  5
BC
330
17
100
AcDbEntity
  8
NUMBERS
100
AcDbText
 10
68534.04720413905
 20
4759.452817567952
 30
0.0
 40
100.0
  1
222-D
100
AcDbText
  0
LWPOLYLINE
  5
BD
330
17
100
AcDbEntity
  8
PLATES
100
AcDbPolyline
 90
5
 70
0
 10
70329.00684154379
 20
4862.052227814413
 10
71999.05684154379
 20
4862.052227814413
 10
71999.05684154379
 20
4271.502227814402
 10
70329.00684154379
 20
4271.502227814402
 10
70329.00684154379
 20
4862.052227814413
  0
TEXT
  5
BE
330
17
100
AcDbEntity
  8
NUMBERS
100
AcDbText
 10
71164.0318415438
 20
4566.777227814404
 30
0.0
 40
100.0
  1
222-E
100
AcDbText
  0
LWPOLYLINE
  5
BF
330
17
100
AcDbEntity
  8
PLATES
100
AcDbPolyline
 90
5
 70
0
 10
71465.26056376539
 20
6146.366874794898
 10
72938.46056376537
 20
6146.366874794898
 10
72938.46056376537
 20
5555.816874794902
 10
71465.26056376539
 20
5555.816874794902
 10
71465.26056376539
 20
6146.366874794898
  0
TEXT
  5
C0
330
17
100
AcDbEntity
  8
NUMBERS
100
AcDbText
 10
72201.86056376538
 20
5851.091874794889
 30
0.0
 40
100.0
  1
222-C
100
AcDbText
  0
LWPOLYLINE
  5
C1
330
17
100
AcDbEntity
  8
PLATES
100
AcDbPolyline
 90
5
 70
0
 10
61592.431847113425
 20
2976.5161156604518
 10
63800.64434711343
 20
2976.5161156604518
 10
63800.64434711343
 20
2328.8161156604474
 10
61592.431847113425
 20
2328.8161156604474
 10
61592.431847113425
 20
2976.5161156604518
  0
TEXT
  5
C2
330
17
100
AcDbEntity
  8
NUMBERS
100
AcDbText
 10
62696.53809711343
 20
2652.666115660446
 30
0.0
 40
100.0
  1
223-A
100
AcDbText
  0
LWPOLYLINE
  5
C3
330
17
100
AcDbEntity
  8
PLATES
100
AcDbPolyline
 90
5
 70
0
 10
64002.58382157068
 20
2976.5161156604518
 10
64504.2338215707
 20
2976.5161156604518
 10
64504.2338215707
 20
2328.8161156604474
 10
64002.58382157068
 20
2328.8161156604474
 10
64002.58382157068
 20
2976.5161156604518
  0
TEXT
  5
C4
330
17
100
AcDbEntity
  8
NUMBERS
100
AcDbText
 10
64253.40882157069
 20
2652.6661156604387
 30
0.0
 40
100.0
  1
223-B
100
AcDbText
  0
LWPOLYLINE
  5
C5
330
17
100
AcDbEntity
  8
PLATES
100
AcDbPolyline
 90
5
 70
0
 10
61632.9449013828
 20
1665.3527562042727
 10
63525.24490138279
 20
1665.3527562042727
 10
63525.24490138279
 20
713.0527562042698
 10
61632.9449013828
 20
713.0527562042698
 10
61632.9449013828
 20
1665.3527562042727
  0
TEXT
  5
C6
330
17
100
AcDbEntity
  8
NUMBERS
100
AcDbText
 10
62579.09490138279
 20
1189.2027562042713
 30
0.0
 40
100.0
  1
223-C
100
AcDbText
  0
LWPOLYLINE
  5
C7
330
17
100
AcDbEntity
  8
PLATES
100
AcDbPolyline
 90
5
 70
0
 10
64247.01349342098
 20
1684.0650397275094
 10
65402.713493420975
 20
1684.0650397275094
 10
65402.713493420975
 20
1096.6900397275022
 10
64247.01349342098
 20
1096.6900397275022
 10
64247.01349342098
 20
1684.0650397275094
  0
TEXT
  5
C8
330
17
100
AcDbEntity
  8
NUMBERS
100
AcDbText
 10
64824.86349342098
 20
1390.3775397275094
 30
0.0
 40
100.0
  1
223-D
100
AcDbText
  0
LWPOLYLINE
  5
C9
330
17
100
AcDbEntity
  8
PLATES
100
AcDbPolyline
 90
7
 70
0
 10
37439.187986663106
 20
5709.833703549128
 10
37688.42548666311
 20
5709.833703549128
 10
37688.42548666311
 20
6360.708703549128
 10
36788.31298666312
 20
6360.708703549128
 10
36788.31298666312
 20
5111.346203549132
 10
37439.187986663106
 20
5111.346203549132
 10
37439.187986663106
 20
5709.833703549128
  0
TEXT
  5
CA
330
17
100
AcDbEntity
  8
NUMBERS
100
AcDbText
 10
37188.60094349572
 20
5785.795746716503
 30
0.0
 40
100.0
  1
213-A
100
AcDbText
  0
LWPOLYLINE
  5
CB
330
17
100
AcDbEntity
  8
PLATES
100
AcDbPolyline
 90
5
 70
0
 10
37895.01735400084
 20
6360.708703549128
 10
39739.69235400087
 20
6360.708703549128
 10
39739.69235400087
 20
5709.833703549128
 10
37895.01735400084
 20
5709.833703549128
 10
37895.01735400084
 20
6360.708703549128
  0
TEXT
  5
CC
330
17
100
AcDbEntity
  8
NUMBERS
100
AcDbText
 10
38817.35485400086
 20
6035.271203549128
 30
0.0
 40
100.0
  1
213-B
100
AcDbText
  0
LWPOLYLINE
  5
CD
330
17
100
AcDbEntity
  8
PLATES
100
AcDbPolyline
 90
5
 70
0
 10
38085.029032625636
 20
5036.231909282789
 10
39875.72903262562
 20
5036.231909282789
 10
39875.72903262562
 20
4087.1069092827893
 10
38085.029032625636
 20
4087.1069092827893
 10
38085.029032625636
 20
5036.231909282789
  0
TEXT
  5
CE
330
17
100
AcDbEntity
  8
NUMBERS
100
AcDbText
 10
38980.37903262564
 20
4561.669409282789
 30
0.0
 40
100.0
  1
213-C
100
AcDbText
  0
LWPOLYLINE
  5
CF
330
17
100
AcDbEntity
  8
PLATES
100
AcDbPolyline
 90
5
 70
0
 10
40477.88721265485
 20
5452.0703431461225
 10
42141.587212654835
 20
5452.0703431461225
 10
42141.587212654835
 20
4867.870343146118
 10
40477.88721265485
 20
4867.870343146118
 10
40477.88721265485
 20
5452.0703431461225
  0
TEXT
  5
D0
330
17
100
AcDbEntity
  8
NUMBERS
100
AcDbText
 10
41309.73721265484
 20
5159.970343146117
 30
0.0
 40
100.0
  1
213-D
100
AcDbText
  0
LWPOLYLINE
  5
D1
330
17
100
AcDbEntity
  8
PLATES
100
AcDbPolyline
 90
5
 70
0
 10
36714.17045465762
 20
2963.352756065571
 10
38579.48345465763
 20
2963.352756065571
 10
38579.48345465763
 20
2312.477756065564
 10
36714.17045465762
 20
2312.477756065564
 10
36714.17045465762
 20
2963.352756065571
  0
TEXT
  5
D2
330
17
100
AcDbEntity
  8
NUMBERS
100
AcDbText
 10
37646.826954657605
 20
2637.915256065571
 30
0.0
 40
100.0
  1
215-A
100
AcDbText
  0
LWPOLYLINE
  5
D3
330
17
100
AcDbEntity
  8
PLATES
100
AcDbPolyline
 90
7
 70
0
 10
39645.13751298089
 20
2974.352326739252
 10
38743.437512980876
 20
2974.352326739252
 10
38743.437512980876
 20
2323.477326739252
 10
38994.26251298087
 20
2323.477326739252
 10
38994.26251298087
 20
1677.3663267392476
 10
39645.13751298089
 20
1677.3663267392476
 10
39645.13751298089
 20
2974.352326739252
  0
TEXT
  5
D4
330
17
100
AcDbEntity
  8
NUMBERS
100
AcDbText
 10
39246.63912166402
 20
2378.210935422416
 30
0.0
 40
100.0
  1
215-B
100
AcDbText
  0
LWPOLYLINE
  5
D5
330
17
100
AcDbEntity
  8
PLATES
100
AcDbPolyline
 90
5
 70
0
 10
36714.17045465762
 20
1787.5434882141635
 10
38504.87045465762
 20
1787.5434882141635
 10
38504.87045465762
 20
838.4184882141635
 10
36714.17045465762
 20
838.4184882141635
 10
36714.17045465762
 20
1787.5434882141635
  0
TEXT
  5
D6
330
17
100
AcDbEntity
  8
NUMBERS
100
AcDbText
 10
37609.52045465761
 20
1312.9809882141635
 30
0.0
 40
100.0
  1
215-C
100
AcDbText
  0
LWPOLYLINE
  5
D7
330
17
100
AcDbEntity
  8
PLATES
100
AcDbPolyline
 90
7
 70
0
 10
49999.21182377591
 20
6139.370511260888
 10
49099.098823775916
 20
6139.370511260888
 10
49099.098823775916
 20
4839.207511260902
 10
49749.973823775916
 20
4839.207511260902
 10
49749.973823775916
 20
5488.495511260888
 10
49999.21182377591
 20
5488.495511260888
 10
49999.21182377591
 20
6139.370511260888
  0
TEXT
  5
D8
330
17
100
AcDbEntity
  8
NUMBERS
100
AcDbText
 10
49496.93280599518
 20
5541.511529041643
 30
0.0
 40
100.0
  1
217-A
100
AcDbText
  0
LWPOLYLINE
  5
D9
330
17
100
AcDbEntity
  8
PLATES
100
AcDbPolyline
 90
5
 70
0
 10
50184.934922166314
 20
6139.370511260888
 10
52053.42292216631
 20
6139.370511260888
 10
52053.42292216631
 20
5488.495511260888
 10
50184.934922166314
 20
5488.495511260888
 10
50184.934922166314
 20
6139.370511260888
  0
TEXT
  5
DA
330
17
100
AcDbEntity
  8
NUMBERS
100
AcDbText
 10
51119.17892216632
 20
5813.933011260888
 30
0.0
 40
100.0
  1
217-B
100
AcDbText
  0
LWPOLYLINE
  5
DB
330
17
100
AcDbEntity
  8
PLATES
100
AcDbPolyline
 90
5
 70
0
 10
50392.36563021058
 20
4994.384519315659
 10
52183.06563021058
 20
4994.384519315659
 10
52183.06563021058
 20
4045.2595193156594
 10
50392.36563021058
 20
4045.2595193156594
 10
50392.36563021058
 20
4994.384519315659
  0
TEXT
  5
DC
330
17
100
AcDbEntity
  8
NUMBERS
100
AcDbText
 10
51287.71563021059
 20
4519.822019315659
 30
0.0
 40
100.0
  1
217-C
100
AcDbText
  0
LWPOLYLINE
  5
DD
330
17
100
AcDbEntity
  8
PLATES
100
AcDbPolyline
 90
5
 70
0
 10
52811.0981747343
 20
5227.24438375522
 10
54474.7981747343
 20
5227.24438375522
 10
54474.7981747343
 20
4639.869383755213
 10
52811.0981747343
 20
4639.869383755213
 10
52811.0981747343
 20
5227.24438375522
  0
TEXT
  5
DE
330
17
100
AcDbEntity
  8
NUMBERS
100
AcDbText
 10
53642.94817473432
 20
4933.55688375522
 30
0.0
 40
100.0
  1
217-D
100
AcDbText
  0
LWPOLYLINE
  5
DF
330
17
100
AcDbEntity
  8
PLATES
100
AcDbPolyline
 90
5
 70
0
 10
55233.0279418749
 20
6398.330241826734
 10
57098.34094187489
 20
6398.330241826734
 10
57098.34094187489
 20
5747.455241826734
 10
55233.0279418749
 20
5747.455241826734
 10
55233.0279418749
 20
6398.330241826734
  0
TEXT
  5
E0
330
17
100
AcDbEntity
  8
NUMBERS
100
AcDbText
 10
56165.684441874895
 20
6072.892741826727
 30
0.0
 40
100.0
  1
218-A
100
AcDbText
  0
LWPOLYLINE
  5
E1
330
17
100
AcDbEntity
  8
PLATES
100
AcDbPolyline
 90
7
 70
0
 10
58228.17089231202
 20
6398.330241826734
 10
57328.057892312005
 20
6398.330241826734
 10
57328.057892312005
 20
5747.455241826734
 10
57577.29589231203
 20
5747.455241826734
 10
57577.29589231203
 20
5098.1672418267335
 10
58228.17089231202
 20
5098.1672418267335
 10
58228.17089231202
 20
6398.330241826734
  0
TEXT
  5
E2
330
17
100
AcDbEntity
  8
NUMBERS
100
AcDbText
 10
57830.33691009275
 20
5800.471259607482
 30
0.0
 40
100.0
  1
218-B
100
AcDbText
  0
LWPOLYLINE
  5
E3
330
17
100
AcDbEntity
  8
PLATES
100
AcDbPolyline
 90
5
 70
0
 10
55166.30612241346
 20
5227.653704489574
 10
56957.006122413455
 20
5227.653704489574
 10
56957.006122413455
 20
4278.528704489574
 10
55166.30612241346
 20
4278.528704489574
 10
55166.30612241346
 20
5227.653704489574
  0
TEXT
  5
E4
330
17
100
AcDbEntity
  8
NUMBERS
100
AcDbText
 10
56061.656122413464
 20
4753.091204489574
 30
0.0
 40
100.0
  1
218-C
100
AcDbText
  0
LWPOLYLINE
  5
E5
330
17
100
AcDbEntity
  8
PLATES
100
AcDbPolyline
 90
5
 70
0
 10
58733.12931111836
 20
4696.265649803812
 10
60387.304311118365
 20
4696.265649803812
 10
60387.304311118365
 20
4108.8906498038195
 10
58733.12931111836
 20
4108.8906498038195
 10
58733.12931111836
 20
4696.265649803812
  0
TEXT
  5
E6
330
17
100
AcDbEntity
  8
NUMBERS
100
AcDbText
 10
59560.21681111837
 20
4402.578149803827
 30
0.0
 40
100.0
  1
218-D
100
AcDbText
  0
LWPOLYLINE
  5
E7
330
17
100
AcDbEntity
  8
PLATES
100
AcDbPolyline
 90
7
 70
0
 10
43728.63144703605
 20
6433.711869543382
 10
42830.10644703604
 20
6433.711869543382
 10
42830.10644703604
 20
5182.7618695433775
 10
43480.48144703606
 20
5182.7618695433775
 10
43480.48144703606
 20
5782.836869543382
 10
43728.63144703605
 20
5782.836869543382
 10
43728.63144703605
 20
6433.711869543382
  0
TEXT
  5
E8
330
17
100
AcDbEntity
  8
NUMBERS
100
AcDbText
 10
43229.70926334514
 20
5857.93473096536
 30
0.0
 40
100.0
  1
214-A
100
AcDbText
  0
LWPOLYLINE
  5
E9
330
17
100
AcDbEntity
  8
PLATES
100
AcDbPolyline
 90
5
 70
0
 10
43895.844746523726
 20
6433.711869543382
 10
45746.869746523735
 20
6433.711869543382
 10
45746.869746523735
 20
5782.836869543382
 10
43895.844746523726
 20
5782.836869543382
 10
43895.844746523726
 20
6433.711869543382
  0
TEXT
  5
EA
330
17
100
AcDbEntity
  8
NUMBERS
100
AcDbText
 10
44821.35724652372
 20
6108.274369543382
 30
0.0
 40
100.0
  1
214-B
100
AcDbText
  0
LWPOLYLINE
  5
EB
330
17
100
AcDbEntity
  8
PLATES
100
AcDbPolyline
 90
5
 70
0
 10
44143.91818047875
 20
5158.327797267477
 10
45934.61818047875
 20
5158.327797267477
 10
45934.61818047875
 20
4209.202797267491
 10
44143.91818047875
 20
4209.202797267491
 10
44143.91818047875
 20
5158.327797267477
  0
TEXT
  5
EC
330
17
100
AcDbEntity
  8
NUMBERS
100
AcDbText
 10
45039.26818047876
 20
4683.765297267484
 30
0.0
 40
100.0
  1
214-C
100
AcDbText
  0
LWPOLYLINE
  5
ED
330
17
100
AcDbEntity
  8
PLATES
100
AcDbPolyline
 90
5
 70
0
 10
46590.42636149832
 20
5079.43452188927
 10
48254.12636149832
 20
5079.43452188927
 10
48254.12636149832
 20
4495.234521889273
 10
46590.42636149832
 20
4495.234521889273
 10
46590.42636149832
 20
5079.43452188927
  0
TEXT
  5
EE
330
17
100
AcDbEntity
  8
NUMBERS
100
AcDbText
 10
47422.27636149833
 20
4787.334521889265
 30
0.0
 40
100.0
  1
214-D
100
AcDbText
  0
LWPOLYLINE
  5
EF
330
17
100
AcDbEntity
  8
PLATES
100
AcDbPolyline
 90
7
 70
0
 10
43712.543421089955
 20
2917.9281560094314
 10
42812.43042108997
 20
2917.9281560094314
 10
42812.43042108997
 20
1619.353156009427
 10
43463.30542108996
 20
1619.353156009427
 10
43463.30542108996
 20
2267.0531560094314
 10
43712.543421089955
 20
2267.0531560094314
 10
43712.543421089955
 20
2917.9281560094314
  0
TEXT
  5
F0
330
17
100
AcDbEntity
  8
NUMBERS
100
AcDbText
 10
43210.33867947421
 20
2320.788897625178
 30
0.0
 40
100.0
  1
216-A
100
AcDbText
  0
LWPOLYLINE
  5
F1
330
17
100
AcDbEntity
  8
PLATES
100
AcDbPolyline
 90
5
 70
0
 10
43901.38279715892
 20
2925.775603442009
 10
45761.93279715895
 20
2925.775603442009
 10
45761.93279715895
 20
2274.9006034420017
 10
43901.38279715892
 20
2274.9006034420017
 10
43901.38279715892
 20
2925.775603442009
  0
TEXT
  5
F2
330
17
100
AcDbEntity
  8
NUMBERS
100
AcDbText
 10
44831.65779715894
 20
2600.3381034420163
 30
0.0
 40
100.0
  1
216-B
100
AcDbText
  0
LWPOLYLINE
  5
F3
330
17
100
AcDbEntity
  8
PLATES
100
AcDbPolyline
 90
5
 70
0
 10
44129.23887716388
 20
1756.639613909203
 10
45919.93887716389
 20
1756.639613909203
 10
45919.93887716389
 20
807.514613909203
 10
44129.23887716388
 20
807.514613909203
 10
44129.23887716388
 20
1756.639613909203
  0
TEXT
  5
F4
330
17
100
AcDbEntity
  8
NUMBERS
100
AcDbText
 10
45024.588877163886
 20
1282.077113909203
 30
0.0
 40
100.0
  1
216-C
100
AcDbText
  0
LWPOLYLINE
  5
F5
330
17
100
AcDbEntity
  8
PLATES
100
AcDbPolyline
 90
5
 70
0
 10
46636.33533921026
 20
1881.2664496805737
 10
48293.685339210264
 20
1881.2664496805737
 10
48293.685339210264
 20
1293.8914496805737
 10
46636.33533921026
 20
1293.8914496805737
 10
46636.33533921026
 20
1881.2664496805737
  0
TEXT
  5
F6
330
17
100
AcDbEntity
  8
NUMBERS
100
AcDbText
 10
47465.010339210276
 20
1587.5789496805737
 30
0.0
 40
100.0
  1
216-D
100
AcDbText
  0
LWPOLYLINE
  5
F7
330
17
100
AcDbEntity
  8
PLATES
100
AcDbPolyline
 90
5
 70
0
 10
40478.12098899162
 20
1505.0614010792488
 10
42135.47098899163
 20
1505.0614010792488
 10
42135.47098899163
 20
917.6864010792488
 10
40478.12098899162
 20
917.6864010792488
 10
40478.12098899162
 20
1505.0614010792488
  0
TEXT
  5
F8
330
17
100
AcDbEntity
  8
NUMBERS
100
AcDbText
 10
41306.79598899161
 20
1211.3739010792415
 30
0.0
 40
100.0
  1
215-D
100
AcDbText
  0
ENDSEC
  0
SECTION
  2
OBJECTS
  0
DICTIONARY
  5
A
330
0
100
AcDbDictionary
281
1
  3
ACAD_COLOR
350
B
  3
ACAD_GROUP
350
C
  3
ACAD_LAYOUT
350
D
  3
ACAD_MATERIAL
350
E
  3
ACAD_MLEADERSTYLE
350
F
  3
ACAD_MLINESTYLE
350
10
  3
ACAD_PLOTSETTINGS
350
11
  3
ACAD_PLOTSTYLENAME
350
12
  3
ACAD_SCALELIST
350
14
  3
ACAD_TABLESTYLE
350
15
  3
ACAD_VISUALSTYLE
350
16
  3
EZDXF_META
350
2D
  0
DICTIONARY
  5
B
330
A
100
AcDbDictionary
281
1
  0
DICTIONARY
  5
C
330
A
100
AcDbDictionary
281
1
  0
DICTIONARY
  5
D
330
A
100
AcDbDictionary
281
1
  3
Model
350
1A
  3
Layout1
350
1E
  0
DICTIONARY
  5
E
330
A
100
AcDbDictionary
281
1
  3
ByBlock
350
1F
  3
ByLayer
350
20
  3
Global
350
21
  0
DICTIONARY
  5
F
330
A
100
AcDbDictionary
281
1
  3
Standard
350
2C
  0
DICTIONARY
  5
10
330
A
100
AcDbDictionary
281
1
  3
Standard
350
22
  0
DICTIONARY
  5
11
330
A
100
AcDbDictionary
281
1
  0
ACDBDICTIONARYWDFLT
  5
12
330
A
100
AcDbDictionary
281
1
  3
Normal
350
13
100
AcDbDictionaryWithDefault
340
13
  0
ACDBPLACEHOLDER
  5
13
330
12
  0
DICTIONARY
  5
14
330
A
100
AcDbDictionary
281
1
  0
DICTIONARY
  5
15
330
A
100
AcDbDictionary
281
1
  0
DICTIONARY
  5
16
330
A
100
AcDbDictionary
281
1
  0
LAYOUT
  5
1A
330
D
100
AcDbPlotSettings
  1

  4
A3
  6

 40
7.5
 41
20.0
 42
7.5
 43
20.0
 44
420.0
 45
297.0
 46
0.0
 47
0.0
 48
0.0
 49
0.0
140
0.0
141
0.0
142
1.0
143
1.0
 70
1024
 72
1
 73
0
 74
5
  7

 75
16
 76
0
 77
2
 78
300
147
1.0
148
0.0
149
0.0
100
AcDbLayout
  1
Model
 70
1
 71
0
 10
0.0
 20
0.0
 11
420.0
 21
297.0
 12
0.0
 22
0.0
 32
0.0
 14
1e+20
 24
1e+20
 34
1e+20
 15
-1e+20
 25
-1e+20
 35
-1e+20
146
0.0
 13
0.0
 23
0.0
 33
0.0
 16
1.0
 26
0.0
 36
0.0
 17
0.0
 27
1.0
 37
0.0
 76
1
330
17
  0
LAYOUT
  5
1E
330
D
100
AcDbPlotSettings
  1

  4
A3
  6

 40
7.5
 41
20.0
 42
7.5
 43
20.0
 44
420.0
 45
297.0
 46
0.0
 47
0.0
 48
0.0
 49
0.0
140
0.0
141
0.0
142
1.0
143
1.0
 70
0
 72
1
 73
0
 74
5
  7

 75
16
 76
0
 77
2
 78
300
147
1.0
148
0.0
149
0.0
100
AcDbLayout
  1
Layout1
 70
1
 71
1
 10
0.0
 20
0.0
 11
420.0
 21
297.0
 12
0.0
 22
0.0
 32
0.0
 14
1e+20
 24
1e+20
 34
1e+20
 15
-1e+20
 25
-1e+20
 35
-1e+20
146
0.0
 13
0.0
 23
0.0
 33
0.0
 16
1.0
 26
0.0
 36
0.0
 17
0.0
 27
1.0
 37
0.0
 76
1
330
1B
  0
MATERIAL
  5
1F
102
{ACAD_REACTORS
330
E
102
}
330
E
100
AcDbMaterial
  1
ByBlock
  2

 70
0
 40
1.0
 71
1
 41
1.0
 91
-1023410177
 42
1.0
 72
1
  3

 73
1
 74
1
 75
1
 44
0.5
 73
0
 45
1.0
 46
1.0
 77
1
  4

 78
1
 79
1
170
1
 48
1.0
171
1
  6

172
1
173
1
174
1
140
1.0
141
1.0
175
1
  7

176
1
177
1
178
1
143
1.0
179
1
  8

270
1
271
1
272
1
145
1.0
146
1.0
273
1
  9

274
1
275
1
276
1
 42
1.0
 72
1
  3

 73
1
 74
1
 75
1
 94
63
  0
MATERIAL
  5
20
102
{ACAD_REACTORS
330
E
102
}
330
E
100
AcDbMaterial
  1
ByLayer
  2

 70
0
 40
1.0
 71
1
 41
1.0
 91
-1023410177
 42
1.0
 72
1
  3

 73
1
 74
1
 75
1
 44
0.5
 73
0
 45
1.0
 46
1.0
 77
1
  4

 78
1
 79
1
170
1
 48
1.0
171
1
  6

172
1
173
1
174
1
140
1.0
141
1.0
175
1
  7

176
1
177
1
178
1
143
1.0
179
1
  8

270
1
271
1
272
1
145
1.0
146
1.0
273
1
  9

274
1
275
1
276
1
 42
1.0
 72
1
  3

 73
1
 74
1
 75
1
 94
63
  0
MATERIAL
  5
21
102
{ACAD_REACTORS
330
E
102
}
330
E
100
AcDbMaterial
  1
Global
  2

 70
0
 40
1.0
 71
1
 41
1.0
 91
-1023410177
 42
1.0
 72
1
  3

 73
1
 74
1
 75
1
 44
0.5
 73
0
 45
1.0
 46
1.0
 77
1
  4

 78
1
 79
1
170
1
 48
1.0
171
1
  6

172
1
173
1
174
1
140
1.0
141
1.0
175
1
  7

176
1
177
1
178
1
143
1.0
179
1
  8

270
1
271
1
272
1
145
1.0
146
1.0
273
1
  9

274
1
275
1
276
1
 42
1.0
 72
1
  3

 73
1
 74
1
 75
1
 94
63
  0
MLINESTYLE
  5
22
102
{ACAD_REACTORS
330
10
102
}
330
10
100
AcDbMlineStyle
  2
Standard
 70
0
  3

 62
256
 51
90.0
 52
90.0
 71
2
 49
0.5
 62
256
  6
BYLAYER
 49
-0.5
 62
256
  6
BYLAYER
  0
MLEADERSTYLE
  5
2C
102
{ACAD_REACTORS
330
F
102
}
330
F
100
AcDbMLeaderStyle
179
2
170
2
171
1
172
0
 90
2
 40
0.0
 41
0.0
173
1
 91
-1056964608
 92
-2
290
1
 42
2.0
291
1
 43
8.0
  3
Standard
 44
4.0
300

342
29
174
1
175
1
176
0
178
1
 93
-1056964608
 45
4.0
292
0
297
0
 46
4.0
 94
-1056964608
 47
1.0
 49
1.0
140
1.0
294
1
141
0.0
177
0
142
1.0
295
0
296
0
143
3.75
271
0
272
9
273
9
  0
DICTIONARY
  5
2D
330
A
100
AcDbDictionary
280
1
281
1
  3
CREATED_BY_EZDXF
350
2E
  3
WRITTEN_BY_EZDXF
350
FB
  0
DICTIONARYVAR
  5
2E
330
2D
100
DictionaryVariables
280
0
  1
1.4.4 @ 2026-08-01T08:00:43.063930+00:00
  0
DICTIONARYVAR
  5
FB
330
2D
100
DictionaryVariables
280
0
  1
1.4.4 @ 2026-08-01T08:00:43.088071+00:00
  0
ENDSEC
  0
EOF
