  0
SECTION
  2
HEADER
  9
$ACADVER
  1
AC1027
  9
$ACADMAINTVER
 70
105
  9
$DWGCODEPAGE
  3
ANSI_1252
  9
$LASTSAVEDBY
  1
ezdxf
  9
$REQUIREDVERSIONS
160
0
  9
$INSBASE
 10
0.0
 20
0.0
 30
0.0
  9
$EXTMIN
 10
1e+20
 20
1e+20
 30
1e+20
  9
$EXTMAX
 10
-1e+20
 20
-1e+20
 30
-1e+20
  9
$LIMMIN
 10
0.0
 20
0.0
  9
$LIMMAX
 10
420.0
 20
297.0
  9
$ORTHOMODE
 70
0
  9
$REGENMODE
 70
1
  9
$FILLMODE
 70
1
  9
$QTEXTMODE
 70
0
  9
$MIRRTEXT
 70
1
  9
$LTSCALE
 40
1.0
  9
$ATTMODE
 70
1
  9
$TEXTSIZE
 40
2.5
  9
$TRACEWID
 40
1.0
  9
$TEXTSTYLE
  7
Standard
  9
$CLAYER
  8
0
  9
$CELTYPE
  6
ByLayer
  9
$CECOLOR
 62
256
  9
$CELTSCALE
 40
1.0
  9
$DISPSILH
 70
0
  9
$DIMSCALE
 40
1.0
  9
$DIMASZ
 40
2.5
  9
$DIMEXO
 40
0.625
  9
$DIMDLI
 40
3.75
  9
$DIMRND
 40
0.0
  9
$DIMDLE
 40
0.0
  9
$DIMEXE
 40
1.25
  9
$DIMTP
 40
0.0
  9
$DIMTM
 40
0.0
  9
$DIMTXT
 40
2.5
  9
$DIMCEN
 40
2.5
  9
$DIMTSZ
 40
0.0
  9
$DIMTOL
 70
0
  9
$DIMLIM
 70
0
  9
$DIMTIH
 70
0
  9
$DIMTOH
 70
0
  9
$DIMSE1
 70
0
  9
$DIMSE2
 70
0
  9
$DIMTAD
 70
1
  9
$DIMZIN
 70
8
  9
$DIMBLK
  1

  9
$DIMASO
 70
1
  9
$DIMSHO
 70
1
  9
$DIMPOST
  1

  9
$DIMAPOST
  1

  9
$DIMALT
 70
0
  9
$DIMALTD
 70
3
  9
$DIMALTF
 40
0.03937007874
  9
$DIMLFAC
 40
1.0
  9
$DIMTOFL
 70
1
  9
$DIMTVP
 40
0.0
  9
$DIMTIX
 70
0
  9
$DIMSOXD
 70
0
  9
$DIMSAH
 70
0
  9
$DIMBLK1
  1

  9
$DIMBLK2
  1

  9
$DIMSTYLE
  2
ISO-25
  9
$DIMCLRD
 70
0
  9
$DIMCLRE
 70
0
  9
$DIMCLRT
 70
0
  9
$DIMTFAC
 40
1.0
  9
$DIMGAP
 40
0.625
  9
$DIMJUST
 70
0
  9
$DIMSD1
 70
0
  9
$DIMSD2
 70
0
  9
$DIMTOLJ
 70
0
  9
$DIMTZIN
 70
8
  9
$DIMALTZ
 70
0
  9
$DIMALTTZ
 70
0
  9
$DIMUPT
 70
0
  9
$DIMDEC
 70
2
  9
$DIMTDEC
 70
2
  9
$DIMALTU
 70
2
  9
$DIMALTTD
 70
3
  9
$DIMTXSTY
  7
Standard
  9
$DIMAUNIT
 70
0
  9
$DIMADEC
 70
0
  9
$DIMALTRND
 40
0.0
  9
$DIMAZIN
 70
0
  9
$DIMDSEP
 70
44
  9
$DIMATFIT
 70
3
  9
$DIMFRAC
 70
0
  9
$DIMLDRBLK
  1

  9
$DIMLUNIT
 70
2
  9
$DIMLWD
 70
-2
  9
$DIMLWE
 70
-2
  9
$DIMTMOVE
 70
0
  9
$DIMFXL
 40
1.0
  9
$DIMFXLON
 70
0
  9
$DIMJOGANG
 40
0.785398163397
  9
$DIMTFILL
 70
0
  9
$DIMTFILLCLR
 70
0
  9
$DIMARCSYM
 70
0
  9
$DIMLTYPE
  6

  9
$DIMLTEX1
  6

  9
$DIMLTEX2
  6

  9
$DIMTXTDIRECTION
 70
0
  9
$LUNITS
 70
2
  9
$LUPREC
 70
4
  9
$SKETCHINC
 40
1.0
  9
$FILLETRAD
 40
10.0
  9
$AUNITS
 70
0
  9
$AUPREC
 70
2
  9
$MENU
  1
.
  9
$ELEVATION
 40
0.0
  9
$PELEVATION
 40
0.0
  9
$THICKNESS
 40
0.0
  9
$LIMCHECK
 70
0
  9
$CHAMFERA
 40
0.0
  9
$CHAMFERB
 40
0.0
  9
$CHAMFERC
 40
0.0
  9
$CHAMFERD
 40
0.0
  9
$SKPOLY
 70
0
  9
$TDCREATE
 40
2461254.699548611
  9
$TDUCREATE
 40
2458532.153996898
  9
$TDUPDATE
 40
2461254.699548611
  9
$TDUUPDATE
 40
2458532.1544311
  9
$TDINDWG
 40
0.0
  9
$TDUSRTIMER
 40
0.0
  9
$USRTIMER
 70
1
  9
$ANGBASE
 50
0.0
  9
$ANGDIR
 70
0
  9
$PDMODE
 70
0
  9
$PDSIZE
 40
0.0
  9
$PLINEWID
 40
0.0
  9
$SPLFRAME
 70
0
  9
$SPLINETYPE
 70
6
  9
$SPLINESEGS
 70
8
  9
$HANDSEED
  5
135
  9
$SURFTAB1
 70
6
  9
$SURFTAB2
 70
6
  9
$SURFTYPE
 70
6
  9
$SURFU
 70
6
  9
$SURFV
 70
6
  9
$UCSBASE
  2

  9
$UCSNAME
  2

  9
$UCSORG
 10
0.0
 20
0.0
 30
0.0
  9
$UCSXDIR
 10
1.0
 20
0.0
 30
0.0
  9
$UCSYDIR
 10
0.0
 20
1.0
 30
0.0
  9
$UCSORTHOREF
  2

  9
$UCSORTHOVIEW
 70
0
  9
$UCSORGTOP
 10
0.0
 20
0.0
 30
0.0
  9
$UCSORGBOTTOM
 10
0.0
 20
0.0
 30
0.0
  9
$UCSORGLEFT
 10
0.0
 20
0.0
 30
0.0
  9
$UCSORGRIGHT
 10
0.0
 20
0.0
 30
0.0
  9
$UCSORGFRONT
 10
0.0
 20
0.0
 30
0.0
  9
$UCSORGBACK
 10
0.0
 20
0.0
 30
0.0
  9
$PUCSBASE
  2

  9
$PUCSNAME
  2

  9
$PUCSORG
 10
0.0
 20
0.0
 30
0.0
  9
$PUCSXDIR
 10
1.0
 20
0.0
 30
0.0
  9
$PUCSYDIR
 10
0.0
 20
1.0
 30
0.0
  9
$PUCSORTHOREF
  2

  9
$PUCSORTHOVIEW
 70
0
  9
$PUCSORGTOP
 10
0.0
 20
0.0
 30
0.0
  9
$PUCSORGBOTTOM
 10
0.0
 20
0.0
 30
0.0
  9
$PUCSORGLEFT
 10
0.0
 20
0.0
 30
0.0
  9
$PUCSORGRIGHT
 10
0.0
 20
0.0
 30
0.0
  9
$PUCSORGFRONT
 10
0.0
 20
0.0
 30
0.0
  9
$PUCSORGBACK
 10
0.0
 20
0.0
 30
0.0
  9
$USERI1
 70
0
  9
$USERI2
 70
0
  9
$USERI3
 70
0
  9
$USERI4
 70
0
  9
$USERI5
 70
0
  9
$USERR1
 40
0.0
  9
$USERR2
 40
0.0
  9
$USERR3
 40
0.0
  9
$USERR4
 40
0.0
  9
$USERR5
 40
0.0
  9
$WORLDVIEW
 70
1
  9
$SHADEDGE
 70
3
  9
$SHADEDIF
 70
70
  9
$TILEMODE
 70
1
  9
$MAXACTVP
 70
64
  9
$PINSBASE
 10
0.0
 20
0.0
 30
0.0
  9
$PLIMCHECK
 70
0
  9
$PEXTMIN
 10
1e+20
 20
1e+20
 30
1e+20
  9
$PEXTMAX
 10
-1e+20
 20
-1e+20
 30
-1e+20
  9
$PLIMMIN
 10
0.0
 20
0.0
  9
$PLIMMAX
 10
420.0
 20
297.0
  9
$UNITMODE
 70
0
  9
$VISRETAIN
 70
1
  9
$PLINEGEN
 70
0
  9
$PSLTSCALE
 70
1
  9
$TREEDEPTH
 70
3020
  9
$CMLSTYLE
  2
Standard
  9
$CMLJUST
 70
0
  9
$CMLSCALE
 40
20.0
  9
$PROXYGRAPHICS
 70
1
  9
$MEASUREMENT
 70
1
  9
$CELWEIGHT
370
-1
  9
$ENDCAPS
280
0
  9
$JOINSTYLE
280
0
  9
$LWDISPLAY
290
0
  9
$INSUNITS
 70
6
  9
$HYPERLINKBASE
  1

  9
$STYLESHEET
  1

  9
$XEDIT
290
1
  9
$CEPSNTYPE
380
0
  9
$PSTYLEMODE
290
1
  9
$FINGERPRINTGUID
  2
{62338102-E625-4687-90B4-06B875F2A250}
  9
$VERSIONGUID
  2
{460588E9-7ADA-4456-AA61-B85E0BB968DB}
  9
$EXTNAMES
290
1
  9
$PSVPSCALE
 40
0.0
  9
$OLESTARTUP
290
0
  9
$SORTENTS
280
127
  9
$INDEXCTL
280
0
  9
$HIDETEXT
280
1
  9
$XCLIPFRAME
280
1
  9
$HALOGAP
280
0
  9
$OBSCOLOR
 70
257
  9
$OBSLTYPE
280
0
  9
$INTERSECTIONDISPLAY
280
0
  9
$INTERSECTIONCOLOR
 70
257
  9
$DIMASSOC
280
2
  9
$PROJECTNAME
  1

  9
$CAMERADISPLAY
290
0
  9
$LENSLENGTH
 40
50.0
  9
$CAMERAHEIGHT
 40
0.0
  9
$STEPSPERSEC
 40
24.0
  9
$STEPSIZE
 40
100.0
  9
$3DDWFPREC
 40
2.0
  9
$PSOLWIDTH
 40
0.005
  9
$PSOLHEIGHT
 40
0.08
  9
$LOFTANG1
 40
1.570796326795
  9
$LOFTANG2
 40
1.570796326795
  9
$LOFTMAG1
 40
0.0
  9
$LOFTMAG2
 40
0.0
  9
$LOFTPARAM
 70
7
  9
$LOFTNORMALS
280
1
  9
$LATITUDE
 40
37.795
  9
$LONGITUDE
 40
-122.394
  9
$NORTHDIRECTION
 40
0.0
  9
$TIMEZONE
 70
-8000
  9
$LIGHTGLYPHDISPLAY
280
1
  9
$TILEMODELIGHTSYNCH
280
1
  9
$CMATERIAL
347
20
  9
$SOLIDHIST
280
0
  9
$SHOWHIST
280
1
  9
$DWFFRAME
280
2
  9
$DGNFRAME
280
2
  9
$REALWORLDSCALE
290
1
  9
$INTERFERECOLOR
 62
256
  9
$CSHADOW
280
0
  9
$SHADOWPLANELOCATION
 40
0.0
  0
ENDSEC
  0
SECTION
  2
CLASSES
  0
CLASS
  1
ACDBDICTIONARYWDFLT
  2
AcDbDictionaryWithDefault
  3
ObjectDBX Classes
 90
0
 91
0
280
0
281
0
  0
CLASS
  1
SUN
  2
AcDbSun
  3
SCENEOE
 90
1153
 91
0
280
0
281
0
  0
CLASS
  1
VISUALSTYLE
  2
AcDbVisualStyle
  3
ObjectDBX Classes
 90
4095
 91
0
280
0
281
0
  0
CLASS
  1
MATERIAL
  2
AcDbMaterial
  3
ObjectDBX Classes
 90
1153
 91
0
280
0
281
0
  0
CLASS
  1
SCALE
  2
AcDbScale
  3
ObjectDBX Classes
 90
1153
 91
0
280
0
281
0
  0
CLASS
  1
TABLESTYLE
  2
AcDbTableStyle
  3
ObjectDBX Classes
 90
4095
 91
0
280
0
281
0
  0
CLASS
  1
MLEADERSTYLE
  2
AcDbMLeaderStyle
  3
ACDB_MLEADERSTYLE_CLASS
 90
4095
 91
0
280
0
281
0
  0
CLASS
  1
DICTIONARYVAR
  2
AcDbDictionaryVar
  3
ObjectDBX Classes
 90
0
 91
0
280
0
281
0
  0
CLASS
  1
CELLSTYLEMAP
  2
AcDbCellStyleMap
  3
ObjectDBX Classes
 90
1152
 91
0
280
0
281
0
  0
CLASS
  1
MENTALRAYRENDERSETTINGS
  2
AcDbMentalRayRenderSettings
  3
SCENEOE
 90
1024
 91
0
280
0
281
0
  0
CLASS
  1
ACDBDETAILVIEWSTYLE
  2
AcDbDetailViewStyle
  3
ObjectDBX Classes
 90
1025
 91
0
280
0
281
0
  0
CLASS
  1
ACDBSECTIONVIEWSTYLE
  2
AcDbSectionViewStyle
  3
ObjectDBX Classes
 90
1025
 91
0
280
0
281
0
  0
CLASS
  1
RASTERVARIABLES
  2
AcDbRasterVariables
  3
ISM
 90
0
 91
0
280
0
281
0
  0
CLASS
  1
LAYOUT
  2
AcDbLayout
  3
ObjectDBX Classes
 90
0
 91
0
280
0
281
0
  0
CLASS
  1
ACDBPLACEHOLDER
  2
AcDbPlaceHolder
  3
ObjectDBX Classes
 90
0
 91
0
280
0
281
0
  0
ENDSEC
  0
SECTION
  2
TABLES
  0
TABLE
  2
VPORT
  5
8
330
0
100
AcDbSymbolTable
 70
1
  0
VPORT
  5
23
330
8
100
AcDbSymbolTableRecord
100
AcDbViewportTableRecord
  2
*Active
 70
0
 10
0.0
 20
0.0
 11
1.0
 21
1.0
 12
0.0
 22
0.0
 13
0.0
 23
0.0
 14
0.5
 24
0.5
 15
0.5
 25
0.5
 16
0.0
 26
0.0
 36
1.0
 17
0.0
 27
0.0
 37
0.0
 40
1000.0
 41
1.34
 42
50.0
 43
0.0
 44
0.0
 50
0.0
 51
0.0
 71
0
 72
1000
 73
1
 74
3
 75
0
 76
0
 77
0
 78
0
281
0
 65
0
146
0.0
  0
ENDTAB
  0
TABLE
  2
LTYPE
  5
2
330
0
100
AcDbSymbolTable
 70
3
  0
LTYPE
  5
24
330
2
100
AcDbSymbolTableRecord
100
AcDbLinetypeTableRecord
  2
ByBlock
 70
0
  3

 72
65
 73
0
 40
0.0
  0
LTYPE
  5
25
330
2
100
AcDbSymbolTableRecord
100
AcDbLinetypeTableRecord
  2
ByLayer
 70
0
  3

 72
65
 73
0
 40
0.0
  0
LTYPE
  5
26
330
2
100
AcDbSymbolTableRecord
100
AcDbLinetypeTableRecord
  2
Continuous
 70
0
  3

 72
65
 73
0
 40
0.0
  0
ENDTAB
  0
TABLE
  2
LAYER
  5
1
330
0
100
AcDbSymbolTable
 70
5
  0
LAYER
  5
27
330
1
100
AcDbSymbolTableRecord
100
AcDbLayerTableRecord
  2
0
 70
0
 62
7
  6
Continuous
370
-3
390
13
347
21
  0
LAYER
  5
28
330
1
100
AcDbSymbolTableRecord
100
AcDbLayerTableRecord
  2
Defpoints
 70
0
 62
7
  6
Continuous
290
0
370
-3
390
13
347
21
  0
LAYER
  5
2F
330
1
100
AcDbSymbolTableRecord
100
AcDbLayerTableRecord
  2
SHEET_BORDER
 70
0
 62
7
  6
Continuous
370
-3
390
13
347
21
  0
LAYER
  5
30
330
1
100
AcDbSymbolTableRecord
100
AcDbLayerTableRecord
  2
SPEC_PLATES
 70
0
 62
7
  6
Continuous
370
-3
390
13
347
21
  0
LAYER
  5
31
330
1
100
AcDbSymbolTableRecord
100
AcDbLayerTableRecord
  2
PLATE_NUMBERS
 70
0
 62
7
  6
Continuous
370
-3
390
13
347
21
  0
ENDTAB
  0
TABLE
  2
STYLE
  5
5
330
0
100
AcDbSymbolTable
 70
1
  0
STYLE
  5
29
330
5
100
AcDbSymbolTableRecord
100
AcDbTextStyleTableRecord
  2
Standard
 70
0
 40
0.0
 41
1.0
 50
0.0
 71
0
 42
2.5
  3
txt
  4

  0
ENDTAB
  0
TABLE
  2
VIEW
  5
7
330
0
100
AcDbSymbolTable
 70
0
  0
ENDTAB
  0
TABLE
  2
UCS
  5
6
330
0
100
AcDbSymbolTable
 70
0
  0
ENDTAB
  0
TABLE
  2
APPID
  5
3
330
0
100
AcDbSymbolTable
 70
3
  0
APPID
  5
2A
330
3
100
AcDbSymbolTableRecord
100
AcDbRegAppTableRecord
  2
ACAD
 70
0
  0
APPID
  5
132
330
3
100
AcDbSymbolTableRecord
100
AcDbRegAppTableRecord
  2
HATCHBACKGROUNDCOLOR
 70
0
  0
APPID
  5
133
330
3
100
AcDbSymbolTableRecord
100
AcDbRegAppTableRecord
  2
EZDXF
 70
0
  0
ENDTAB
  0
TABLE
  2
DIMSTYLE
  5
4
330
0
100
AcDbSymbolTable
 70
1
100
AcDbDimStyleTable
  0
DIMSTYLE
105
2B
330
4
100
AcDbSymbolTableRecord
100
AcDbDimStyleTableRecord
  2
Standard
 70
0
 40
1.0
 41
2.5
 42
0.625
 43
3.75
 44
1.25
 45
0.0
 46
0.0
 47
0.0
 48
0.0
 49
2.5
140
2.5
141
2.5
142
0.0
143
0.03937007874
144
1.0
145
0.0
146
1.0
147
0.625
148
0.0
 69
0
 70
0
 71
0
 72
0
 73
0
 74
0
 75
0
 76
0
 77
1
 78
8
 79
3
170
0
171
3
172
1
173
0
174
0
175
0
176
0
177
0
178
0
179
2
271
2
272
2
273
2
274
3
275
0
276
0
277
2
278
44
279
0
280
0
281
0
282
0
283
0
284
8
285
0
286
0
288
0
289
3
290
0
371
-2
372
-2
  0
ENDTAB
  0
TABLE
  2
BLOCK_RECORD
  5
9
330
0
100
AcDbSymbolTable
 70
2
  0
BLOCK_RECORD
  5
17
330
9
100
AcDbSymbolTableRecord
100
AcDbBlockTableRecord
  2
*Model_Space
340
1A
 70
0
280
1
281
0
  0
BLOCK_RECORD
  5
1B
330
9
100
AcDbSymbolTableRecord
100
AcDbBlockTableRecord
  2
*Paper_Space
340
1E
 70
0
280
1
281
0
  0
ENDTAB
  0
ENDSEC
  0
SECTION
  2
BLOCKS
  0
BLOCK
  5
18
330
17
100
AcDbEntity
  8
0
100
AcDbBlockBegin
  2
*Model_Space
 70
0
 10
0.0
 20
0.0
 30
0.0
  3
*Model_Space
  1

  0
ENDBLK
  5
19
330
17
100
AcDbEntity
  8
0
100
AcDbBlockEnd
  0
BLOCK
  5
1C
330
1B
100
AcDbEntity
  8
0
100
AcDbBlockBegin
  2
*Paper_Space
 70
0
 10
0.0
 20
0.0
 30
0.0
  3
*Paper_Space
  1

  0
ENDBLK
  5
1D
330
1B
100
AcDbEntity
  8
0
100
AcDbBlockEnd
  0
ENDSEC
  0
SECTION
  2
ENTITIES
  0
LWPOLYLINE
  5
32
330
17
100
AcDbEntity
  8
SHEET_BORDER
 62
1
100
AcDbPolyline
 90
5
 70
0
 10
0.0
 20
0.0
 10
3200.0
 20
0.0
 10
3200.0
 20
1800.0
 10
0.0
 20
1800.0
 10
0.0
 20
0.0
  0
TEXT
  5
33
330
17
100
AcDbEntity
  8
SHEET_BORDER
 62
1
100
AcDbText
 10
10.0
 20
1770.0
 30
0.0
 40
50.0
  1
Sheet_1
100
AcDbText
  0
LWPOLYLINE
  5
34
330
17
100
AcDbEntity
  8
SPEC_PLATES
100
AcDbPolyline
 90
7
 70
0
 10
3057.524999999994
 20
901.7000000000116
 10
0.0
 20
901.7000000000116
 10
0.0
 20
0.0
 10
654.0500000000029
 20
0.0
 10
654.0500000000029
 20
247.65000000000873
 10
3057.524999999994
 20
247.65000000000873
 10
3057.524999999994
 20
901.7000000000116
  0
TEXT
  5
35
330
17
100
AcDbEntity
  8
PLATE_NUMBERS
100
AcDbText
 10
1438.718768011522
 20
540.8937319884812
 30
0.0
 40
35.0
  1
205-A
100
AcDbText
  0
LWPOLYLINE
  5
36
330
17
100
AcDbEntity
  8
SPEC_PLATES
100
AcDbPolyline
 90
5
 70
0
 10
0.0
 20
1600.8750000000073
 10
2205.0369999999966
 20
1600.8750000000073
 10
2205.0369999999966
 20
950.0
 10
0.0
 20
950.0
 10
0.0
 20
1600.8750000000073
  0
TEXT
  5
37
330
17
100
AcDbEntity
  8
PLATE_NUMBERS
100
AcDbText
 10
1102.5184999999983
 20
1275.4375000000036
 30
0.0
 40
35.0
  1
201-B
100
AcDbText
  0
LWPOLYLINE
  5
38
330
17
100
AcDbEntity
  8
SPEC_PLATES
100
AcDbPolyline
 90
5
 70
0
 10
2250.0
 20
1600.8749999999854
 10
3080.262499999997
 20
1600.8749999999854
 10
3080.262499999997
 20
950.0
 10
2250.0
 20
950.0
 10
2250.0
 20
1600.8749999999854
  0
TEXT
  5
39
330
17
100
AcDbEntity
  8
PLATE_NUMBERS
100
AcDbText
 10
2665.131249999998
 20
1275.4374999999927
 30
0.0
 40
35.0
  1
202-A
100
AcDbText
  0
LWPOLYLINE
  5
3A
330
17
100
AcDbEntity
  8
SHEET_BORDER
 62
1
100
AcDbPolyline
 90
5
 70
0
 10
3400.0
 20
0.0
 10
6600.0
 20
0.0
 10
6600.0
 20
1800.0
 10
3400.0
 20
1800.0
 10
3400.0
 20
0.0
  0
TEXT
  5
3B
330
17
100
AcDbEntity
  8
SHEET_BORDER
 62
1
100
AcDbText
 10
3410.0
 20
1770.0
 30
0.0
 40
50.0
  1
Sheet_2
100
AcDbText
  0
LWPOLYLINE
  5
3C
330
17
100
AcDbEntity
  8
SPEC_PLATES
100
AcDbPolyline
 90
7
 70
0
 10
6457.524999999994
 20
901.6999999999971
 10
3400.0
 20
901.6999999999971
 10
3400.0
 20
254.0
 10
5809.824999999997
 20
254.0
 10
5809.824999999997
 20
0.0
 10
6457.524999999994
 20
0.0
 10
6457.524999999994
 20
901.6999999999971
  0
TEXT
  5
3D
330
17
100
AcDbEntity
  8
PLATE_NUMBERS
100
AcDbText
 10
5021.18148370086
 20
543.2689837008614
 30
0.0
 40
35.0
  1
219-A
100
AcDbText
  0
LWPOLYLINE
  5
3E
330
17
100
AcDbEntity
  8
SPEC_PLATES
100
AcDbPolyline
 90
5
 70
0
 10
3400.0
 20
1597.7000000000044
 10
5608.212500000009
 20
1597.7000000000044
 10
5608.212500000009
 20
950.0
 10
3400.0
 20
950.0
 10
3400.0
 20
1597.7000000000044
  0
TEXT
  5
3F
330
17
100
AcDbEntity
  8
PLATE_NUMBERS
100
AcDbText
 10
4504.106250000004
 20
1273.8500000000022
 30
0.0
 40
35.0
  1
223-A
100
AcDbText
  0
LWPOLYLINE
  5
40
330
17
100
AcDbEntity
  8
SPEC_PLATES
100
AcDbPolyline
 90
5
 70
0
 10
5650.0
 20
1597.699999999997
 10
6478.675000000003
 20
1597.699999999997
 10
6478.675000000003
 20
950.0
 10
5650.0
 20
950.0
 10
5650.0
 20
1597.699999999997
  0
TEXT
  5
41
330
17
100
AcDbEntity
  8
PLATE_NUMBERS
100
AcDbText
 10
6064.3375000000015
 20
1273.8499999999985
 30
0.0
 40
35.0
  1
222-B
100
AcDbText
  0
LWPOLYLINE
  5
42
330
17
100
AcDbEntity
  8
SHEET_BORDER
 62
1
100
AcDbPolyline
 90
5
 70
0
 10
6800.0
 20
0.0
 10
10000.0
 20
0.0
 10
10000.0
 20
1800.0
 10
6800.0
 20
1800.0
 10
6800.0
 20
0.0
  0
TEXT
  5
43
330
17
100
AcDbEntity
  8
SHEET_BORDER
 62
1
100
AcDbText
 10
6810.0
 20
1770.0
 30
0.0
 40
50.0
  1
Sheet_3
100
AcDbText
  0
LWPOLYLINE
  5
44
330
17
100
AcDbEntity
  8
SPEC_PLATES
100
AcDbPolyline
 90
7
 70
0
 10
9241.575000000026
 20
1203.3250000000044
 10
6800.0
 20
1203.3250000000044
 10
6800.0
 20
555.625
 10
8593.875000000015
 20
555.625
 10
8593.875000000015
 20
0.0
 10
9241.575000000026
 20
0.0
 10
9241.575000000026
 20
1203.3250000000044
  0
TEXT
  5
45
330
17
100
AcDbEntity
  8
PLATE_NUMBERS
100
AcDbText
 10
8187.062989936456
 20
767.9379899364424
 30
0.0
 40
35.0
  1
220-A
100
AcDbText
  0
LWPOLYLINE
  5
46
330
17
100
AcDbEntity
  8
SPEC_PLATES
100
AcDbPolyline
 90
5
 70
0
 10
9250.0
 20
0.0
 10
9250.0
 20
1716.0869999999995
 10
9900.875
 20
1716.0869999999995
 10
9900.875
 20
0.0
 10
9250.0
 20
0.0
  0
TEXT
  5
47
330
17
100
AcDbEntity
  8
PLATE_NUMBERS
100
AcDbText
 10
9575.4375
 20
858.0434999999998
 30
0.0
 40
35.0
  1
207-B
100
AcDbText
  0
LWPOLYLINE
  5
48
330
17
100
AcDbEntity
  8
SPEC_PLATES
100
AcDbPolyline
 90
5
 70
0
 10
6800.0
 20
552.4500000000116
 10
7454.049999999988
 20
552.4500000000116
 10
7454.049999999988
 20
0.0
 10
6800.0
 20
0.0
 10
6800.0
 20
552.4500000000116
  0
TEXT
  5
49
330
17
100
AcDbEntity
  8
PLATE_NUMBERS
100
AcDbText
 10
7127.024999999994
 20
276.2250000000058
 30
0.0
 40
35.0
  1
205-C
100
AcDbText
  0
LWPOLYLINE
  5
4A
330
17
100
AcDbEntity
  8
SPEC_PLATES
100
AcDbPolyline
 90
5
 70
0
 10
7500.0
 20
552.4499999999898
 10
8147.699999999997
 20
552.4499999999898
 10
8147.699999999997
 20
0.0
 10
7500.0
 20
0.0
 10
7500.0
 20
552.4499999999898
  0
TEXT
  5
4B
330
17
100
AcDbEntity
  8
PLATE_NUMBERS
100
AcDbText
 10
7823.8499999999985
 20
276.22499999999496
 30
0.0
 40
35.0
  1
219-D
100
AcDbText
  0
LWPOLYLINE
  5
4C
330
17
100
AcDbEntity
  8
SPEC_PLATES
100
AcDbPolyline
 90
5
 70
0
 10
6800.0
 20
1250.0
 10
6800.0
 20
1751.75
 10
7450.875000000007
 20
1751.75
 10
7450.875000000007
 20
1250.0
 10
6800.0
 20
1250.0
  0
TEXT
  5
4D
330
17
100
AcDbEntity
  8
PLATE_NUMBERS
100
AcDbText
 10
7125.437500000004
 20
1500.875
 30
0.0
 40
35.0
  1
201-A
100
AcDbText
  0
LWPOLYLINE
  5
4E
330
17
100
AcDbEntity
  8
SPEC_PLATES
100
AcDbPolyline
 90
5
 70
0
 10
7500.0
 20
1250.0
 10
7500.0
 20
1751.650000000016
 10
8147.700000000004
 20
1751.650000000016
 10
8147.700000000004
 20
1250.0
 10
7500.0
 20
1250.0
  0
TEXT
  5
4F
330
17
100
AcDbEntity
  8
PLATE_NUMBERS
100
AcDbText
 10
7823.850000000002
 20
1500.8250000000078
 30
0.0
 40
35.0
  1
223-B
100
AcDbText
  0
LWPOLYLINE
  5
50
330
17
100
AcDbEntity
  8
SPEC_PLATES
100
AcDbPolyline
 90
5
 70
0
 10
8150.0
 20
1702.4375
 10
8797.700000000012
 20
1702.4375
 10
8797.700000000012
 20
1250.0
 10
8150.0
 20
1250.0
 10
8150.0
 20
1702.4375
  0
TEXT
  5
51
330
17
100
AcDbEntity
  8
PLATE_NUMBERS
100
AcDbText
 10
8473.850000000006
 20
1476.21875
 30
0.0
 40
35.0
  1
220-D
100
AcDbText
  0
LWPOLYLINE
  5
52
330
17
100
AcDbEntity
  8
SHEET_BORDER
 62
1
100
AcDbPolyline
 90
5
 70
0
 10
10200.0
 20
0.0
 10
13400.0
 20
0.0
 10
13400.0
 20
1800.0
 10
10200.0
 20
1800.0
 10
10200.0
 20
0.0
  0
TEXT
  5
53
330
17
100
AcDbEntity
  8
SHEET_BORDER
 62
1
100
AcDbText
 10
10210.0
 20
1770.0
 30
0.0
 40
50.0
  1
Sheet_4
100
AcDbText
  0
LWPOLYLINE
  5
54
330
17
100
AcDbEntity
  8
SPEC_PLATES
100
AcDbPolyline
 90
7
 70
0
 10
12632.049999999988
 20
1203.3250000000044
 10
10200.0
 20
1203.3250000000044
 10
10200.0
 20
0.0
 10
10847.699999999997
 20
0.0
 10
10847.699999999997
 20
555.6249999999927
 10
12632.049999999988
 20
555.6249999999927
 10
12632.049999999988
 20
1203.3250000000044
  0
TEXT
  5
55
330
17
100
AcDbEntity
  8
PLATE_NUMBERS
100
AcDbText
 10
11250.105100956429
 20
767.5823990435717
 30
0.0
 40
35.0
  1
204-A
100
AcDbText
  0
LWPOLYLINE
  5
56
330
17
100
AcDbEntity
  8
SPEC_PLATES
100
AcDbPolyline
 90
5
 70
0
 10
12650.0
 20
0.0
 10
12650.0
 20
1692.2750000000087
 10
13240.549999999988
 20
1692.2750000000087
 10
13240.549999999988
 20
0.0
 10
12650.0
 20
0.0
  0
TEXT
  5
57
330
17
100
AcDbEntity
  8
PLATE_NUMBERS
100
AcDbText
 10
12945.274999999994
 20
846.1375000000044
 30
0.0
 40
35.0
  1
207-E
100
AcDbText
  0
LWPOLYLINE
  5
58
330
17
100
AcDbEntity
  8
SPEC_PLATES
100
AcDbPolyline
 90
5
 70
0
 10
10200.0
 20
1700.8499999999913
 10
10847.699999999997
 20
1700.8499999999913
 10
10847.699999999997
 20
1250.0
 10
10200.0
 20
1250.0
 10
10200.0
 20
1700.8499999999913
  0
TEXT
  5
59
330
17
100
AcDbEntity
  8
PLATE_NUMBERS
100
AcDbText
 10
10523.849999999999
 20
1475.4249999999956
 30
0.0
 40
35.0
  1
204-C
100
AcDbText
  0
LWPOLYLINE
  5
5A
330
17
100
AcDbEntity
  8
SHEET_BORDER
 62
1
100
AcDbPolyline
 90
5
 70
0
 10
13600.0
 20
0.0
 10
16800.0
 20
0.0
 10
16800.0
 20
1800.0
 10
13600.0
 20
1800.0
 10
13600.0
 20
0.0
  0
TEXT
  5
5B
330
17
100
AcDbEntity
  8
SHEET_BORDER
 62
1
100
AcDbText
 10
13610.0
 20
1770.0
 30
0.0
 40
50.0
  1
Sheet_5
100
AcDbText
  0
LWPOLYLINE
  5
5C
330
17
100
AcDbEntity
  8
SPEC_PLATES
100
AcDbPolyline
 90
5
 70
0
 10
13600.0
 20
952.3000000000029
 10
15492.300000000017
 20
952.3000000000029
 10
15492.300000000017
 20
0.0
 10
13600.0
 20
0.0
 10
13600.0
 20
952.3000000000029
  0
TEXT
  5
5D
330
17
100
AcDbEntity
  8
PLATE_NUMBERS
100
AcDbText
 10
14546.150000000009
 20
476.1500000000014
 30
0.0
 40
35.0
  1
222-D
100
AcDbText
  0
LWPOLYLINE
  5
5E
330
17
100
AcDbEntity
  8
SPEC_PLATES
100
AcDbPolyline
 90
5
 70
0
 10
15500.0
 20
0.0
 10
15500.0
 20
1790.699999999997
 10
16452.299999999996
 20
1790.699999999997
 10
16452.299999999996
 20
0.0
 10
15500.0
 20
0.0
  0
TEXT
  5
5F
330
17
100
AcDbEntity
  8
PLATE_NUMBERS
100
AcDbText
 10
15976.149999999998
 20
895.3499999999988
 30
0.0
 40
35.0
  1
220-C
100
AcDbText
  0
LWPOLYLINE
  5
60
330
17
100
AcDbEntity
  8
SPEC_PLATES
100
AcDbPolyline
 90
5
 70
0
 10
13600.0
 20
1650.875
 10
15468.487999999998
 20
1650.875
 10
15468.487999999998
 20
1000.0
 10
13600.0
 20
1000.0
 10
13600.0
 20
1650.875
  0
TEXT
  5
61
330
17
100
AcDbEntity
  8
PLATE_NUMBERS
100
AcDbText
 10
14534.243999999999
 20
1325.4375000000002
 30
0.0
 40
35.0
  1
217-B
100
AcDbText
  0
LWPOLYLINE
  5
62
330
17
100
AcDbEntity
  8
SHEET_BORDER
 62
1
100
AcDbPolyline
 90
5
 70
0
 10
17000.0
 20
0.0
 10
20200.0
 20
0.0
 10
20200.0
 20
1800.0
 10
17000.0
 20
1800.0
 10
17000.0
 20
0.0
  0
TEXT
  5
63
330
17
100
AcDbEntity
  8
SHEET_BORDER
 62
1
100
AcDbText
 10
17010.0
 20
1770.0
 30
0.0
 40
50.0
  1
Sheet_6
100
AcDbText
  0
LWPOLYLINE
  5
64
330
17
100
AcDbEntity
  8
SPEC_PLATES
100
AcDbPolyline
 90
5
 70
0
 10
17000.0
 20
952.3000000000029
 10
18892.30000000001
 20
952.3000000000029
 10
18892.30000000001
 20
0.0
 10
17000.0
 20
0.0
 10
17000.0
 20
952.3000000000029
  0
TEXT
  5
65
330
17
100
AcDbEntity
  8
PLATE_NUMBERS
100
AcDbText
 10
17946.150000000005
 20
476.1500000000015
 30
0.0
 40
35.0
  1
221-D
100
AcDbText
  0
LWPOLYLINE
  5
66
330
17
100
AcDbEntity
  8
SPEC_PLATES
100
AcDbPolyline
 90
5
 70
0
 10
18900.0
 20
1790.699999999997
 10
18900.0
 20
0.0
 10
19852.299999999996
 20
0.0
 10
19852.299999999996
 20
1790.699999999997
 10
18900.0
 20
1790.699999999997
  0
TEXT
  5
67
330
17
100
AcDbEntity
  8
PLATE_NUMBERS
100
AcDbText
 10
19376.149999999998
 20
895.3499999999988
 30
0.0
 40
35.0
  1
204-D
100
AcDbText
  0
LWPOLYLINE
  5
68
330
17
100
AcDbEntity
  8
SPEC_PLATES
100
AcDbPolyline
 90
5
 70
0
 10
17000.0
 20
1650.8750000000073
 10
18865.31300000001
 20
1650.8750000000073
 10
18865.31300000001
 20
1000.0
 10
17000.0
 20
1000.0
 10
17000.0
 20
1650.8750000000073
  0
TEXT
  5
69
330
17
100
AcDbEntity
  8
PLATE_NUMBERS
100
AcDbText
 10
17932.656500000005
 20
1325.4375000000036
 30
0.0
 40
35.0
  1
215-A
100
AcDbText
  0
LWPOLYLINE
  5
6A
330
17
100
AcDbEntity
  8
SHEET_BORDER
 62
1
100
AcDbPolyline
 90
5
 70
0
 10
0.0
 20
2000.0
 10
3200.0
 20
2000.0
 10
3200.0
 20
3800.0
 10
0.0
 20
3800.0
 10
0.0
 20
2000.0
  0
TEXT
  5
6B
330
17
100
AcDbEntity
  8
SHEET_BORDER
 62
1
100
AcDbText
 10
10.0
 20
3770.0
 30
0.0
 40
50.0
  1
Sheet_7
100
AcDbText
  0
LWPOLYLINE
  5
6C
330
17
100
AcDbEntity
  8
SPEC_PLATES
100
AcDbPolyline
 90
5
 70
0
 10
0.0
 20
2952.300000000003
 10
1892.2999999999956
 20
2952.300000000003
 10
1892.2999999999956
 20
2000.0
 10
0.0
 20
2000.0
 10
0.0
 20
2952.300000000003
  0
TEXT
  5
6D
330
17
100
AcDbEntity
  8
PLATE_NUMBERS
100
AcDbText
 10
946.1499999999978
 20
2476.1500000000015
 30
0.0
 40
35.0
  1
223-C
100
AcDbText
  0
LWPOLYLINE
  5
6E
330
17
100
AcDbEntity
  8
SPEC_PLATES
100
AcDbPolyline
 90
5
 70
0
 10
1900.0
 20
2000.0
 10
1900.0
 20
3790.7000000000116
 10
2849.1250000000146
 20
3790.7000000000116
 10
2849.1250000000146
 20
2000.0
 10
1900.0
 20
2000.0
  0
TEXT
  5
6F
330
17
100
AcDbEntity
  8
PLATE_NUMBERS
100
AcDbText
 10
2374.562500000007
 20
2895.350000000006
 30
0.0
 40
35.0
  1
209-D
100
AcDbText
  0
LWPOLYLINE
  5
70
330
17
100
AcDbEntity
  8
SPEC_PLATES
100
AcDbPolyline
 90
5
 70
0
 10
0.0
 20
3650.875
 10
1865.3129999999946
 20
3650.875
 10
1865.3129999999946
 20
3000.0
 10
0.0
 20
3000.0
 10
0.0
 20
3650.875
  0
TEXT
  5
71
330
17
100
AcDbEntity
  8
PLATE_NUMBERS
100
AcDbText
 10
932.6564999999973
 20
3325.4375
 30
0.0
 40
35.0
  1
218-A
100
AcDbText
  0
LWPOLYLINE
  5
72
330
17
100
AcDbEntity
  8
SHEET_BORDER
 62
1
100
AcDbPolyline
 90
5
 70
0
 10
3400.0
 20
2000.0
 10
6600.0
 20
2000.0
 10
6600.0
 20
3800.0
 10
3400.0
 20
3800.0
 10
3400.0
 20
2000.0
  0
TEXT
  5
73
330
17
100
AcDbEntity
  8
SHEET_BORDER
 62
1
100
AcDbText
 10
3410.0
 20
3770.0
 30
0.0
 40
50.0
  1
Sheet_8
100
AcDbText
  0
LWPOLYLINE
  5
74
330
17
100
AcDbEntity
  8
SPEC_PLATES
100
AcDbPolyline
 90
5
 70
0
 10
3400.0
 20
2952.2999999999956
 10
5292.300000000003
 20
2952.2999999999956
 10
5292.300000000003
 20
2000.0
 10
3400.0
 20
2000.0
 10
3400.0
 20
2952.2999999999956
  0
TEXT
  5
75
330
17
100
AcDbEntity
  8
PLATE_NUMBERS
100
AcDbText
 10
4346.1500000000015
 20
2476.149999999998
 30
0.0
 40
35.0
  1
219-C
100
AcDbText
  0
LWPOLYLINE
  5
76
330
17
100
AcDbEntity
  8
SPEC_PLATES
100
AcDbPolyline
 90
5
 70
0
 10
5300.0
 20
2000.0
 10
5300.0
 20
3790.699999999997
 10
6249.125000000015
 20
3790.699999999997
 10
6249.125000000015
 20
2000.0
 10
5300.0
 20
2000.0
  0
TEXT
  5
77
330
17
100
AcDbEntity
  8
PLATE_NUMBERS
100
AcDbText
 10
5774.562500000007
 20
2895.3499999999985
 30
0.0
 40
35.0
  1
210-C
100
AcDbText
  0
LWPOLYLINE
  5
78
330
17
100
AcDbEntity
  8
SPEC_PLATES
100
AcDbPolyline
 90
5
 70
0
 10
3400.0
 20
3650.8750000000073
 10
5260.550000000032
 20
3650.8750000000073
 10
5260.550000000032
 20
3000.0
 10
3400.0
 20
3000.0
 10
3400.0
 20
3650.8750000000073
  0
TEXT
  5
79
330
17
100
AcDbEntity
  8
PLATE_NUMBERS
100
AcDbText
 10
4330.275000000016
 20
3325.4375000000036
 30
0.0
 40
35.0
  1
216-B
100
AcDbText
  0
LWPOLYLINE
  5
7A
330
17
100
AcDbEntity
  8
SHEET_BORDER
 62
1
100
AcDbPolyline
 90
5
 70
0
 10
6800.0
 20
2000.0
 10
10000.0
 20
2000.0
 10
10000.0
 20
3800.0
 10
6800.0
 20
3800.0
 10
6800.0
 20
2000.0
  0
TEXT
  5
7B
330
17
100
AcDbEntity
  8
SHEET_BORDER
 62
1
100
AcDbText
 10
6810.0
 20
3770.0
 30
0.0
 40
50.0
  1
Sheet_9
100
AcDbText
  0
LWPOLYLINE
  5
7C
330
17
100
AcDbEntity
  8
SPEC_PLATES
100
AcDbPolyline
 90
5
 70
0
 10
6800.0
 20
2949.1250000000146
 10
8692.300000000003
 20
2949.1250000000146
 10
8692.300000000003
 20
2000.0
 10
6800.0
 20
2000.0
 10
6800.0
 20
2949.1250000000146
  0
TEXT
  5
7D
330
17
100
AcDbEntity
  8
PLATE_NUMBERS
100
AcDbText
 10
7746.1500000000015
 20
2474.5625000000073
 30
0.0
 40
35.0
  1
202-D
100
AcDbText
  0
LWPOLYLINE
  5
7E
330
17
100
AcDbEntity
  8
SPEC_PLATES
100
AcDbPolyline
 90
5
 70
0
 10
8700.0
 20
2000.0
 10
8700.0
 20
3790.7000000000116
 10
9649.125
 20
3790.7000000000116
 10
9649.125
 20
2000.0
 10
8700.0
 20
2000.0
  0
TEXT
  5
7F
330
17
100
AcDbEntity
  8
PLATE_NUMBERS
100
AcDbText
 10
9174.5625
 20
2895.350000000006
 30
0.0
 40
35.0
  1
211-C
100
AcDbText
  0
LWPOLYLINE
  5
80
330
17
100
AcDbEntity
  8
SPEC_PLATES
100
AcDbPolyline
 90
5
 70
0
 10
6800.0
 20
3600.875
 10
8660.549999999974
 20
3600.875
 10
8660.549999999974
 20
2950.0
 10
6800.0
 20
2950.0
 10
6800.0
 20
3600.875
  0
TEXT
  5
81
330
17
100
AcDbEntity
  8
PLATE_NUMBERS
100
AcDbText
 10
7730.274999999987
 20
3275.4375
 30
0.0
 40
35.0
  1
210-A
100
AcDbText
  0
LWPOLYLINE
  5
82
330
17
100
AcDbEntity
  8
SHEET_BORDER
 62
1
100
AcDbPolyline
 90
5
 70
0
 10
10200.0
 20
2000.0
 10
13400.0
 20
2000.0
 10
13400.0
 20
3800.0
 10
10200.0
 20
3800.0
 10
10200.0
 20
2000.0
  0
TEXT
  5
83
330
17
100
AcDbEntity
  8
SHEET_BORDER
 62
1
100
AcDbText
 10
10210.0
 20
3770.0
 30
0.0
 40
50.0
  1
Sheet_10
100
AcDbText
  0
LWPOLYLINE
  5
84
330
17
100
AcDbEntity
  8
SPEC_PLATES
100
AcDbPolyline
 90
5
 70
0
 10
10200.0
 20
2949.1250000000073
 10
12092.300000000003
 20
2949.1250000000073
 10
12092.300000000003
 20
2000.0
 10
10200.0
 20
2000.0
 10
10200.0
 20
2949.1250000000073
  0
TEXT
  5
85
330
17
100
AcDbEntity
  8
PLATE_NUMBERS
100
AcDbText
 10
11146.150000000001
 20
2474.5625000000036
 30
0.0
 40
35.0
  1
201-C
100
AcDbText
  0
LWPOLYLINE
  5
86
330
17
100
AcDbEntity
  8
SPEC_PLATES
100
AcDbPolyline
 90
5
 70
0
 10
12100.0
 20
2000.0
 10
12100.0
 20
3790.7000000000116
 10
13049.125
 20
3790.7000000000116
 10
13049.125
 20
2000.0
 10
12100.0
 20
2000.0
  0
TEXT
  5
87
330
17
100
AcDbEntity
  8
PLATE_NUMBERS
100
AcDbText
 10
12574.5625
 20
2895.350000000006
 30
0.0
 40
35.0
  1
216-C
100
AcDbText
  0
LWPOLYLINE
  5
88
330
17
100
AcDbEntity
  8
SPEC_PLATES
100
AcDbPolyline
 90
5
 70
0
 10
10200.0
 20
3600.8750000000146
 10
12058.962499999994
 20
3600.8750000000146
 10
12058.962499999994
 20
2950.0
 10
10200.0
 20
2950.0
 10
10200.0
 20
3600.8750000000146
  0
TEXT
  5
89
330
17
100
AcDbEntity
  8
PLATE_NUMBERS
100
AcDbText
 10
11129.481249999997
 20
3275.4375000000073
 30
0.0
 40
35.0
  1
212-B
100
AcDbText
  0
LWPOLYLINE
  5
8A
330
17
100
AcDbEntity
  8
SHEET_BORDER
 62
1
100
AcDbPolyline
 90
5
 70
0
 10
13600.0
 20
2000.0
 10
16800.0
 20
2000.0
 10
16800.0
 20
3800.0
 10
13600.0
 20
3800.0
 10
13600.0
 20
2000.0
  0
TEXT
  5
8B
330
17
100
AcDbEntity
  8
SHEET_BORDER
 62
1
100
AcDbText
 10
13610.0
 20
3770.0
 30
0.0
 40
50.0
  1
Sheet_11
100
AcDbText
  0
LWPOLYLINE
  5
8C
330
17
100
AcDbEntity
  8
SPEC_PLATES
100
AcDbPolyline
 90
5
 70
0
 10
13600.0
 20
2949.1250000000073
 10
15492.299999999988
 20
2949.1250000000073
 10
15492.299999999988
 20
2000.0
 10
13600.0
 20
2000.0
 10
13600.0
 20
2949.1250000000073
  0
TEXT
  5
8D
330
17
100
AcDbEntity
  8
PLATE_NUMBERS
100
AcDbText
 10
14546.149999999994
 20
2474.5625000000036
 30
0.0
 40
35.0
  1
203-D
100
AcDbText
  0
LWPOLYLINE
  5
8E
330
17
100
AcDbEntity
  8
SPEC_PLATES
100
AcDbPolyline
 90
5
 70
0
 10
15500.0
 20
2000.0
 10
15500.0
 20
3790.699999999997
 10
16449.125000000007
 20
3790.699999999997
 10
16449.125000000007
 20
2000.0
 10
15500.0
 20
2000.0
  0
TEXT
  5
8F
330
17
100
AcDbEntity
  8
PLATE_NUMBERS
100
AcDbText
 10
15974.562500000004
 20
2895.3499999999985
 30
0.0
 40
35.0
  1
207-D
100
AcDbText
  0
LWPOLYLINE
  5
90
330
17
100
AcDbEntity
  8
SPEC_PLATES
100
AcDbPolyline
 90
5
 70
0
 10
13600.0
 20
2950.0
 10
15458.962500000009
 20
2950.0
 10
15458.962500000009
 20
3600.8750000000073
 10
13600.0
 20
3600.8750000000073
 10
13600.0
 20
2950.0
  0
TEXT
  5
91
330
17
100
AcDbEntity
  8
PLATE_NUMBERS
100
AcDbText
 10
14529.481250000004
 20
3275.4375000000036
 30
0.0
 40
35.0
  1
208-A
100
AcDbText
  0
LWPOLYLINE
  5
92
330
17
100
AcDbEntity
  8
SHEET_BORDER
 62
1
100
AcDbPolyline
 90
5
 70
0
 10
17000.0
 20
2000.0
 10
20200.0
 20
2000.0
 10
20200.0
 20
3800.0
 10
17000.0
 20
3800.0
 10
17000.0
 20
2000.0
  0
TEXT
  5
93
330
17
100
AcDbEntity
  8
SHEET_BORDER
 62
1
100
AcDbText
 10
17010.0
 20
3770.0
 30
0.0
 40
50.0
  1
Sheet_12
100
AcDbText
  0
LWPOLYLINE
  5
94
330
17
100
AcDbEntity
  8
SPEC_PLATES
100
AcDbPolyline
 90
5
 70
0
 10
17000.0
 20
2945.949999999997
 10
18892.300000000105
 20
2945.949999999997
 10
18892.300000000105
 20
2000.0
 10
17000.0
 20
2000.0
 10
17000.0
 20
2945.949999999997
  0
TEXT
  5
95
330
17
100
AcDbEntity
  8
PLATE_NUMBERS
100
AcDbText
 10
17946.150000000052
 20
2472.9749999999985
 30
0.0
 40
35.0
  1
205-D
100
AcDbText
  0
LWPOLYLINE
  5
96
330
17
100
AcDbEntity
  8
SPEC_PLATES
100
AcDbPolyline
 90
5
 70
0
 10
18900.0
 20
2000.0
 10
18900.0
 20
3790.699999999997
 10
19849.125
 20
3790.699999999997
 10
19849.125
 20
2000.0
 10
18900.0
 20
2000.0
  0
TEXT
  5
97
330
17
100
AcDbEntity
  8
PLATE_NUMBERS
100
AcDbText
 10
19374.5625
 20
2895.3499999999985
 30
0.0
 40
35.0
  1
206-C
100
AcDbText
  0
LWPOLYLINE
  5
98
330
17
100
AcDbEntity
  8
SPEC_PLATES
100
AcDbPolyline
 90
5
 70
0
 10
17000.0
 20
3600.8750000000073
 10
18857.375
 20
3600.8750000000073
 10
18857.375
 20
2950.0
 10
17000.0
 20
2950.0
 10
17000.0
 20
3600.8750000000073
  0
TEXT
  5
99
330
17
100
AcDbEntity
  8
PLATE_NUMBERS
100
AcDbText
 10
17928.6875
 20
3275.4375000000036
 30
0.0
 40
35.0
  1
206-B
100
AcDbText
  0
LWPOLYLINE
  5
9A
330
17
100
AcDbEntity
  8
SHEET_BORDER
 62
1
100
AcDbPolyline
 90
5
 70
0
 10
0.0
 20
4000.0
 10
3200.0
 20
4000.0
 10
3200.0
 20
5800.0
 10
0.0
 20
5800.0
 10
0.0
 20
4000.0
  0
TEXT
  5
9B
330
17
100
AcDbEntity
  8
SHEET_BORDER
 62
1
100
AcDbText
 10
10.0
 20
5770.0
 30
0.0
 40
50.0
  1
Sheet_13
100
AcDbText
  0
LWPOLYLINE
  5
9C
330
17
100
AcDbEntity
  8
SPEC_PLATES
100
AcDbPolyline
 90
5
 70
0
 10
0.0
 20
4949.125
 10
1790.699999999997
 20
4949.125
 10
1790.699999999997
 20
4000.0
 10
0.0
 20
4000.0
 10
0.0
 20
4949.125
  0
TEXT
  5
9D
330
17
100
AcDbEntity
  8
PLATE_NUMBERS
100
AcDbText
 10
895.3499999999985
 20
4474.5625
 30
0.0
 40
35.0
  1
215-C
100
AcDbText
  0
LWPOLYLINE
  5
9E
330
17
100
AcDbEntity
  8
SPEC_PLATES
100
AcDbPolyline
 90
5
 70
0
 10
1800.0
 20
4000.0
 10
1800.0
 20
5790.699999999997
 10
2749.125
 20
5790.699999999997
 10
2749.125
 20
4000.0
 10
1800.0
 20
4000.0
  0
TEXT
  5
9F
330
17
100
AcDbEntity
  8
PLATE_NUMBERS
100
AcDbText
 10
2274.5625
 20
4895.3499999999985
 30
0.0
 40
35.0
  1
217-C
100
AcDbText
  0
LWPOLYLINE
  5
A0
330
17
100
AcDbEntity
  8
SPEC_PLATES
100
AcDbPolyline
 90
5
 70
0
 10
0.0
 20
5540.549999999996
 10
1676.3999999999942
 20
5540.549999999996
 10
1676.3999999999942
 20
4950.0
 10
0.0
 20
4950.0
 10
0.0
 20
5540.549999999996
  0
TEXT
  5
A1
330
17
100
AcDbEntity
  8
PLATE_NUMBERS
100
AcDbText
 10
838.1999999999971
 20
5245.274999999998
 30
0.0
 40
35.0
  1
202-E
100
AcDbText
  0
LWPOLYLINE
  5
A2
330
17
100
AcDbEntity
  8
SHEET_BORDER
 62
1
100
AcDbPolyline
 90
5
 70
0
 10
3400.0
 20
4000.0
 10
6600.0
 20
4000.0
 10
6600.0
 20
5800.0
 10
3400.0
 20
5800.0
 10
3400.0
 20
4000.0
  0
TEXT
  5
A3
330
17
100
AcDbEntity
  8
SHEET_BORDER
 62
1
100
AcDbText
 10
3410.0
 20
5770.0
 30
0.0
 40
50.0
  1
Sheet_14
100
AcDbText
  0
LWPOLYLINE
  5
A4
330
17
100
AcDbEntity
  8
SPEC_PLATES
100
AcDbPolyline
 90
5
 70
0
 10
3400.0
 20
4949.125
 10
5190.699999999997
 20
4949.125
 10
5190.699999999997
 20
4000.0
 10
3400.0
 20
4000.0
 10
3400.0
 20
4949.125
  0
TEXT
  5
A5
330
17
100
AcDbEntity
  8
PLATE_NUMBERS
100
AcDbText
 10
4295.3499999999985
 20
4474.5625
 30
0.0
 40
35.0
  1
218-C
100
AcDbText
  0
LWPOLYLINE
  5
A6
330
17
100
AcDbEntity
  8
SPEC_PLATES
100
AcDbPolyline
 90
5
 70
0
 10
5200.0
 20
4000.0
 10
5200.0
 20
5790.6999999999825
 10
6149.125
 20
5790.6999999999825
 10
6149.125
 20
4000.0
 10
5200.0
 20
4000.0
  0
TEXT
  5
A7
330
17
100
AcDbEntity
  8
PLATE_NUMBERS
100
AcDbText
 10
5674.5625
 20
4895.349999999991
 30
0.0
 40
35.0
  1
212-C
100
AcDbText
  0
LWPOLYLINE
  5
A8
330
17
100
AcDbEntity
  8
SPEC_PLATES
100
AcDbPolyline
 90
5
 70
0
 10
3400.0
 20
5540.55000000001
 10
5070.050000000003
 20
5540.55000000001
 10
5070.050000000003
 20
4950.0
 10
3400.0
 20
4950.0
 10
3400.0
 20
5540.55000000001
  0
TEXT
  5
A9
330
17
100
AcDbEntity
  8
PLATE_NUMBERS
100
AcDbText
 10
4235.0250000000015
 20
5245.275000000005
 30
0.0
 40
35.0
  1
222-E
100
AcDbText
  0
LWPOLYLINE
  5
AA
330
17
100
AcDbEntity
  8
SHEET_BORDER
 62
1
100
AcDbPolyline
 90
5
 70
0
 10
6800.0
 20
4000.0
 10
10000.0
 20
4000.0
 10
10000.0
 20
5800.0
 10
6800.0
 20
5800.0
 10
6800.0
 20
4000.0
  0
TEXT
  5
AB
330
17
100
AcDbEntity
  8
SHEET_BORDER
 62
1
100
AcDbText
 10
6810.0
 20
5770.0
 30
0.0
 40
50.0
  1
Sheet_15
100
AcDbText
  0
LWPOLYLINE
  5
AC
330
17
100
AcDbEntity
  8
SPEC_PLATES
100
AcDbPolyline
 90
5
 70
0
 10
6800.0
 20
4949.125
 10
8590.699999999983
 20
4949.125
 10
8590.699999999983
 20
4000.0
 10
6800.0
 20
4000.0
 10
6800.0
 20
4949.125
  0
TEXT
  5
AD
330
17
100
AcDbEntity
  8
PLATE_NUMBERS
100
AcDbText
 10
7695.349999999991
 20
4474.5625
 30
0.0
 40
35.0
  1
213-C
100
AcDbText
  0
LWPOLYLINE
  5
AE
330
17
100
AcDbEntity
  8
SPEC_PLATES
100
AcDbPolyline
 90
5
 70
0
 10
8600.0
 20
4000.0
 10
8600.0
 20
5790.699999999997
 10
9549.124999999985
 20
5790.699999999997
 10
9549.124999999985
 20
4000.0
 10
8600.0
 20
4000.0
  0
TEXT
  5
AF
330
17
100
AcDbEntity
  8
PLATE_NUMBERS
100
AcDbText
 10
9074.562499999993
 20
4895.3499999999985
 30
0.0
 40
35.0
  1
214-C
100
AcDbText
  0
LWPOLYLINE
  5
B0
330
17
100
AcDbEntity
  8
SPEC_PLATES
100
AcDbPolyline
 90
5
 70
0
 10
6800.0
 20
5537.375
 10
8476.400000000009
 20
5537.375
 10
8476.400000000009
 20
4950.0
 10
6800.0
 20
4950.0
 10
6800.0
 20
5537.375
  0
TEXT
  5
B1
330
17
100
AcDbEntity
  8
PLATE_NUMBERS
100
AcDbText
 10
7638.200000000004
 20
5243.6875
 30
0.0
 40
35.0
  1
220-E
100
AcDbText
  0
LWPOLYLINE
  5
B2
330
17
100
AcDbEntity
  8
SHEET_BORDER
 62
1
100
AcDbPolyline
 90
5
 70
0
 10
10200.0
 20
4000.0
 10
13400.0
 20
4000.0
 10
13400.0
 20
5800.0
 10
10200.0
 20
5800.0
 10
10200.0
 20
4000.0
  0
TEXT
  5
B3
330
17
100
AcDbEntity
  8
SHEET_BORDER
 62
1
100
AcDbText
 10
10210.0
 20
5770.0
 30
0.0
 40
50.0
  1
Sheet_16
100
AcDbText
  0
LWPOLYLINE
  5
B4
330
17
100
AcDbEntity
  8
SPEC_PLATES
100
AcDbPolyline
 90
5
 70
0
 10
10200.0
 20
4949.125
 10
11990.699999999895
 20
4949.125
 10
11990.699999999895
 20
4000.0
 10
10200.0
 20
4000.0
 10
10200.0
 20
4949.125
  0
TEXT
  5
B5
330
17
100
AcDbEntity
  8
PLATE_NUMBERS
100
AcDbText
 10
11095.349999999948
 20
4474.5625
 30
0.0
 40
35.0
  1
208-C
100
AcDbText
  0
LWPOLYLINE
  5
B6
330
17
100
AcDbEntity
  8
SPEC_PLATES
100
AcDbPolyline
 90
5
 70
0
 10
10200.0
 20
5600.875
 10
12146.274999999994
 20
5600.875
 10
12146.274999999994
 20
4950.0
 10
10200.0
 20
4950.0
 10
10200.0
 20
5600.875
  0
TEXT
  5
B7
330
17
100
AcDbEntity
  8
PLATE_NUMBERS
100
AcDbText
 10
11173.137499999997
 20
5275.4375
 30
0.0
 40
35.0
  1
203-B
100
AcDbText
  0
LWPOLYLINE
  5
B8
330
17
100
AcDbEntity
  8
SPEC_PLATES
100
AcDbPolyline
 90
7
 70
0
 10
13053.287500000006
 20
5298.57499999999
 10
12150.0
 20
5298.57499999999
 10
12150.0
 20
4000.0
 10
12800.875
 20
4000.0
 10
12800.875
 20
4647.69999999999
 10
13053.287500000006
 20
4647.69999999999
 10
13053.287500000006
 20
5298.57499999999
  0
TEXT
  5
B9
330
17
100
AcDbEntity
  8
PLATE_NUMBERS
100
AcDbText
 10
12548.939399948826
 20
4701.991850051172
 30
0.0
 40
35.0
  1
209-A
100
AcDbText
  0
LWPOLYLINE
  5
BA
330
17
100
AcDbEntity
  8
SHEET_BORDER
 62
1
100
AcDbPolyline
 90
5
 70
0
 10
13600.0
 20
4000.0
 10
16800.0
 20
4000.0
 10
16800.0
 20
5800.0
 10
13600.0
 20
5800.0
 10
13600.0
 20
4000.0
  0
TEXT
  5
BB
330
17
100
AcDbEntity
  8
SHEET_BORDER
 62
1
100
AcDbText
 10
13610.0
 20
5770.0
 30
0.0
 40
50.0
  1
Sheet_17
100
AcDbText
  0
LWPOLYLINE
  5
BC
330
17
100
AcDbEntity
  8
SPEC_PLATES
100
AcDbPolyline
 90
5
 70
0
 10
13600.0
 20
4650.874999999985
 10
15539.925000000003
 20
4650.874999999985
 10
15539.925000000003
 20
4000.0
 10
13600.0
 20
4000.0
 10
13600.0
 20
4650.874999999985
  0
TEXT
  5
BD
330
17
100
AcDbEntity
  8
PLATE_NUMBERS
100
AcDbText
 10
14569.962500000001
 20
4325.437499999993
 30
0.0
 40
35.0
  1
202-B
100
AcDbText
  0
LWPOLYLINE
  5
BE
330
17
100
AcDbEntity
  8
SPEC_PLATES
100
AcDbPolyline
 90
5
 70
0
 10
13600.0
 20
5347.700000000004
 10
15544.6875
 20
5347.700000000004
 10
15544.6875
 20
4700.0
 10
13600.0
 20
4700.0
 10
13600.0
 20
5347.700000000004
  0
TEXT
  5
BF
330
17
100
AcDbEntity
  8
PLATE_NUMBERS
100
AcDbText
 10
14572.34375
 20
5023.850000000002
 30
0.0
 40
35.0
  1
221-A
100
AcDbText
  0
LWPOLYLINE
  5
C0
330
17
100
AcDbEntity
  8
SPEC_PLATES
100
AcDbPolyline
 90
7
 70
0
 10
16450.113000000012
 20
5300.1630000000005
 10
15550.0
 20
5300.1630000000005
 10
15550.0
 20
4649.2880000000005
 10
15799.238000000027
 20
4649.2880000000005
 10
15799.238000000027
 20
4000.0
 10
16450.113000000012
 20
4000.0
 10
16450.113000000012
 20
5300.1630000000005
  0
TEXT
  5
C1
330
17
100
AcDbEntity
  8
PLATE_NUMBERS
100
AcDbText
 10
16052.279017780753
 20
4702.304017780748
 30
0.0
 40
35.0
  1
218-B
100
AcDbText
  0
LWPOLYLINE
  5
C2
330
17
100
AcDbEntity
  8
SHEET_BORDER
 62
1
100
AcDbPolyline
 90
5
 70
0
 10
17000.0
 20
4000.0
 10
20200.0
 20
4000.0
 10
20200.0
 20
5800.0
 10
17000.0
 20
5800.0
 10
17000.0
 20
4000.0
  0
TEXT
  5
C3
330
17
100
AcDbEntity
  8
SHEET_BORDER
 62
1
100
AcDbText
 10
17010.0
 20
5770.0
 30
0.0
 40
50.0
  1
Sheet_18
100
AcDbText
  0
LWPOLYLINE
  5
C4
330
17
100
AcDbEntity
  8
SPEC_PLATES
100
AcDbPolyline
 90
5
 70
0
 10
17000.0
 20
4647.699999999997
 10
18938.337500000023
 20
4647.699999999997
 10
18938.337500000023
 20
4000.0
 10
17000.0
 20
4000.0
 10
17000.0
 20
4647.699999999997
  0
TEXT
  5
C5
330
17
100
AcDbEntity
  8
PLATE_NUMBERS
100
AcDbText
 10
17969.16875000001
 20
4323.8499999999985
 30
0.0
 40
35.0
  1
222-A
100
AcDbText
  0
LWPOLYLINE
  5
C6
330
17
100
AcDbEntity
  8
SPEC_PLATES
100
AcDbPolyline
 90
5
 70
0
 10
17000.0
 20
5300.875
 10
18852.612500000003
 20
5300.875
 10
18852.612500000003
 20
4650.0
 10
17000.0
 20
4650.0
 10
17000.0
 20
5300.875
  0
TEXT
  5
C7
330
17
100
AcDbEntity
  8
PLATE_NUMBERS
100
AcDbText
 10
17926.30625
 20
4975.4375
 30
0.0
 40
35.0
  1
211-A
100
AcDbText
  0
LWPOLYLINE
  5
C8
330
17
100
AcDbEntity
  8
SPEC_PLATES
100
AcDbPolyline
 90
7
 70
0
 10
19850.112999999998
 20
5300.162999999986
 10
18950.0
 20
5300.162999999986
 10
18950.0
 20
4000.0
 10
19600.875
 20
4000.0
 10
19600.875
 20
4649.287999999986
 10
19850.112999999998
 20
4649.287999999986
 10
19850.112999999998
 20
5300.162999999986
  0
TEXT
  5
C9
330
17
100
AcDbEntity
  8
PLATE_NUMBERS
100
AcDbText
 10
19347.833982219257
 20
4702.304017780734
 30
0.0
 40
35.0
  1
217-A
100
AcDbText
  0
LWPOLYLINE
  5
CA
330
17
100
AcDbEntity
  8
SHEET_BORDER
 62
1
100
AcDbPolyline
 90
5
 70
0
 10
0.0
 20
6000.0
 10
3200.0
 20
6000.0
 10
3200.0
 20
7800.0
 10
0.0
 20
7800.0
 10
0.0
 20
6000.0
  0
TEXT
  5
CB
330
17
100
AcDbEntity
  8
SHEET_BORDER
 62
1
100
AcDbText
 10
10.0
 20
7770.0
 30
0.0
 40
50.0
  1
Sheet_19
100
AcDbText
  0
LWPOLYLINE
  5
CC
330
17
100
AcDbEntity
  8
SPEC_PLATES
100
AcDbPolyline
 90
5
 70
0
 10
0.0
 20
6650.875
 10
1851.0250000000087
 20
6650.875
 10
1851.0250000000087
 20
6000.0
 10
0.0
 20
6000.0
 10
0.0
 20
6650.875
  0
TEXT
  5
CD
330
17
100
AcDbEntity
  8
PLATE_NUMBERS
100
AcDbText
 10
925.5125000000043
 20
6325.4375
 30
0.0
 40
35.0
  1
214-B
100
AcDbText
  0
LWPOLYLINE
  5
CE
330
17
100
AcDbEntity
  8
SPEC_PLATES
100
AcDbPolyline
 90
5
 70
0
 10
0.0
 20
7350.875
 10
1844.675000000032
 20
7350.875
 10
1844.675000000032
 20
6700.0
 10
0.0
 20
6700.0
 10
0.0
 20
7350.875
  0
TEXT
  5
CF
330
17
100
AcDbEntity
  8
PLATE_NUMBERS
100
AcDbText
 10
922.337500000016
 20
7025.4375
 30
0.0
 40
35.0
  1
213-B
100
AcDbText
  0
LWPOLYLINE
  5
D0
330
17
100
AcDbEntity
  8
SPEC_PLATES
100
AcDbPolyline
 90
7
 70
0
 10
2550.875
 20
6647.700000000012
 10
2801.699999999997
 20
6647.700000000012
 10
2801.699999999997
 20
7298.574999999997
 10
1900.0
 20
7298.574999999997
 10
1900.0
 20
6000.0
 10
2550.875
 20
6000.0
 10
2550.875
 20
6647.700000000012
  0
TEXT
  5
D1
330
17
100
AcDbEntity
  8
PLATE_NUMBERS
100
AcDbText
 10
2298.423463114752
 20
6701.714036885244
 30
0.0
 40
35.0
  1
206-A
100
AcDbText
  0
LWPOLYLINE
  5
D2
330
17
100
AcDbEntity
  8
SHEET_BORDER
 62
1
100
AcDbPolyline
 90
5
 70
0
 10
3400.0
 20
6000.0
 10
6600.0
 20
6000.0
 10
6600.0
 20
7800.0
 10
3400.0
 20
7800.0
 10
3400.0
 20
6000.0
  0
TEXT
  5
D3
330
17
100
AcDbEntity
  8
SHEET_BORDER
 62
1
100
AcDbText
 10
3410.0
 20
7770.0
 30
0.0
 40
50.0
  1
Sheet_20
100
AcDbText
  0
LWPOLYLINE
  5
D4
330
17
100
AcDbEntity
  8
SPEC_PLATES
100
AcDbPolyline
 90
5
 70
0
 10
3400.0
 20
6650.875
 10
5244.674999999988
 20
6650.875
 10
5244.674999999988
 20
6000.0
 10
3400.0
 20
6000.0
 10
3400.0
 20
6650.875
  0
TEXT
  5
D5
330
17
100
AcDbEntity
  8
PLATE_NUMBERS
100
AcDbText
 10
4322.337499999994
 20
6325.4375
 30
0.0
 40
35.0
  1
209-B
100
AcDbText
  0
LWPOLYLINE
  5
D6
330
17
100
AcDbEntity
  8
SPEC_PLATES
100
AcDbPolyline
 90
7
 70
0
 10
6150.112999999983
 20
7298.575000000004
 10
5250.0
 20
7298.575000000004
 10
5250.0
 20
6000.0
 10
5900.874999999985
 20
6000.0
 10
5900.874999999985
 20
6647.700000000004
 10
6150.112999999983
 20
6647.700000000004
 10
6150.112999999983
 20
7298.575000000004
  0
TEXT
  5
D7
330
17
100
AcDbEntity
  8
PLATE_NUMBERS
100
AcDbText
 10
5647.908258384241
 20
6701.435741615754
 30
0.0
 40
35.0
  1
216-A
100
AcDbText
  0
LWPOLYLINE
  5
D8
330
17
100
AcDbEntity
  8
SPEC_PLATES
100
AcDbPolyline
 90
7
 70
0
 10
3400.0
 20
7603.287500000006
 10
3400.0
 20
6700.0
 10
4050.875
 20
6700.0
 10
4050.875
 20
6952.412500000006
 10
4695.400000000009
 20
6952.412500000006
 10
4695.400000000009
 20
7603.287500000006
 10
3400.0
 20
7603.287500000006
  0
TEXT
  5
D9
330
17
100
AcDbEntity
  8
PLATE_NUMBERS
100
AcDbText
 10
3995.146423076926
 20
7204.197326923081
 30
0.0
 40
35.0
  1
208-B
100
AcDbText
  0
LWPOLYLINE
  5
DA
330
17
100
AcDbEntity
  8
SHEET_BORDER
 62
1
100
AcDbPolyline
 90
5
 70
0
 10
6800.0
 20
6000.0
 10
10000.0
 20
6000.0
 10
10000.0
 20
7800.0
 10
6800.0
 20
7800.0
 10
6800.0
 20
6000.0
  0
TEXT
  5
DB
330
17
100
AcDbEntity
  8
SHEET_BORDER
 62
1
100
AcDbText
 10
6810.0
 20
7770.0
 30
0.0
 40
50.0
  1
Sheet_21
100
AcDbText
  0
LWPOLYLINE
  5
DC
330
17
100
AcDbEntity
  8
SPEC_PLATES
100
AcDbPolyline
 90
7
 70
0
 10
7701.700000000012
 20
7296.986000000004
 10
6800.0
 20
7296.986000000004
 10
6800.0
 20
6646.111000000004
 10
7050.824999999997
 20
6646.111000000004
 10
7050.824999999997
 20
6000.0
 10
7701.700000000012
 20
6000.0
 10
7701.700000000012
 20
7296.986000000004
  0
TEXT
  5
DD
330
17
100
AcDbEntity
  8
PLATE_NUMBERS
100
AcDbText
 10
7303.201608683172
 20
6700.844608683167
 30
0.0
 40
35.0
  1
215-B
100
AcDbText
  0
LWPOLYLINE
  5
DE
330
17
100
AcDbEntity
  8
SPEC_PLATES
100
AcDbPolyline
 90
5
 70
0
 10
7750.0
 20
6593.7249999999985
 10
9407.349999999991
 20
6593.7249999999985
 10
9407.349999999991
 20
6000.0
 10
7750.0
 20
6000.0
 10
7750.0
 20
6593.7249999999985
  0
TEXT
  5
DF
330
17
100
AcDbEntity
  8
PLATE_NUMBERS
100
AcDbText
 10
8578.674999999996
 20
6296.862499999999
 30
0.0
 40
35.0
  1
208-D
100
AcDbText
  0
LWPOLYLINE
  5
E0
330
17
100
AcDbEntity
  8
SPEC_PLATES
100
AcDbPolyline
 90
5
 70
0
 10
7750.0
 20
7187.375000000007
 10
9413.699999999997
 20
7187.375000000007
 10
9413.699999999997
 20
6600.0
 10
7750.0
 20
6600.0
 10
7750.0
 20
7187.375000000007
  0
TEXT
  5
E1
330
17
100
AcDbEntity
  8
PLATE_NUMBERS
100
AcDbText
 10
8581.849999999999
 20
6893.687500000004
 30
0.0
 40
35.0
  1
217-D
100
AcDbText
  0
LWPOLYLINE
  5
E2
330
17
100
AcDbEntity
  8
SPEC_PLATES
100
AcDbPolyline
 90
5
 70
0
 10
7750.0
 20
7787.375
 10
9407.350000000006
 20
7787.375
 10
9407.350000000006
 20
7200.0
 10
7750.0
 20
7200.0
 10
7750.0
 20
7787.375
  0
TEXT
  5
E3
330
17
100
AcDbEntity
  8
PLATE_NUMBERS
100
AcDbText
 10
8578.675000000003
 20
7493.6875
 30
0.0
 40
35.0
  1
216-D
100
AcDbText
  0
LWPOLYLINE
  5
E4
330
17
100
AcDbEntity
  8
SHEET_BORDER
 62
1
100
AcDbPolyline
 90
5
 70
0
 10
10200.0
 20
6000.0
 10
13400.0
 20
6000.0
 10
13400.0
 20
7800.0
 10
10200.0
 20
7800.0
 10
10200.0
 20
6000.0
  0
TEXT
  5
E5
330
17
100
AcDbEntity
  8
SHEET_BORDER
 62
1
100
AcDbText
 10
10210.0
 20
7770.0
 30
0.0
 40
50.0
  1
Sheet_22
100
AcDbText
  0
LWPOLYLINE
  5
E6
330
17
100
AcDbEntity
  8
SPEC_PLATES
100
AcDbPolyline
 90
7
 70
0
 10
11103.287500000006
 20
7247.7750000000015
 10
10200.0
 20
7247.7750000000015
 10
10200.0
 20
6000.0
 10
10850.875
 20
6000.0
 10
10850.875
 20
6596.900000000016
 10
11103.287500000006
 20
6596.900000000016
 10
11103.287500000006
 20
7247.7750000000015
  0
TEXT
  5
E7
330
17
100
AcDbEntity
  8
PLATE_NUMBERS
100
AcDbText
 10
10601.428353174604
 20
6674.102896825399
 30
0.0
 40
35.0
  1
207-A
100
AcDbText
  0
LWPOLYLINE
  5
E8
330
17
100
AcDbEntity
  8
SPEC_PLATES
100
AcDbPolyline
 90
7
 70
0
 10
12051.699999999997
 20
7249.362500000003
 10
11150.0
 20
7249.362500000003
 10
11150.0
 20
6000.0
 10
11800.874999999985
 20
6000.0
 10
11800.874999999985
 20
6598.487499999988
 10
12051.699999999997
 20
6598.487499999988
 10
12051.699999999997
 20
7249.362500000003
  0
TEXT
  5
E9
330
17
100
AcDbEntity
  8
PLATE_NUMBERS
100
AcDbText
 10
11550.81771164021
 20
6674.713538359792
 30
0.0
 40
35.0
  1
212-A
100
AcDbText
  0
LWPOLYLINE
  5
EA
330
17
100
AcDbEntity
  8
SPEC_PLATES
100
AcDbPolyline
 90
7
 70
0
 10
13001.700000000012
 20
7249.362000000001
 10
12100.0
 20
7249.362000000001
 10
12100.0
 20
6598.487000000001
 10
12350.825000000012
 20
6598.487000000001
 10
12350.825000000012
 20
6000.0
 10
13001.700000000012
 20
6000.0
 10
13001.700000000012
 20
7249.362000000001
  0
TEXT
  5
EB
330
17
100
AcDbEntity
  8
PLATE_NUMBERS
100
AcDbText
 10
12600.882263236192
 20
6674.713263236185
 30
0.0
 40
35.0
  1
210-B
100
AcDbText
  0
LWPOLYLINE
  5
EC
330
17
100
AcDbEntity
  8
SHEET_BORDER
 62
1
100
AcDbPolyline
 90
5
 70
0
 10
13600.0
 20
6000.0
 10
16800.0
 20
6000.0
 10
16800.0
 20
7800.0
 10
13600.0
 20
7800.0
 10
13600.0
 20
6000.0
  0
TEXT
  5
ED
330
17
100
AcDbEntity
  8
SHEET_BORDER
 62
1
100
AcDbText
 10
13610.0
 20
7770.0
 30
0.0
 40
50.0
  1
Sheet_23
100
AcDbText
  0
LWPOLYLINE
  5
EE
330
17
100
AcDbEntity
  8
SPEC_PLATES
100
AcDbPolyline
 90
7
 70
0
 10
14250.874999999985
 20
6598.487499999996
 10
14500.112499999988
 20
6598.487499999996
 10
14500.112499999988
 20
7249.362499999996
 10
13600.0
 20
7249.362499999996
 10
13600.0
 20
6000.0
 10
14250.874999999985
 20
6000.0
 10
14250.874999999985
 20
6598.487499999996
  0
TEXT
  5
EF
330
17
100
AcDbEntity
  8
PLATE_NUMBERS
100
AcDbText
 10
14000.28795683262
 20
6674.449543167372
 30
0.0
 40
35.0
  1
213-A
100
AcDbText
  0
LWPOLYLINE
  5
F0
330
17
100
AcDbEntity
  8
SPEC_PLATES
100
AcDbPolyline
 90
7
 70
0
 10
15448.525000000009
 20
7250.950000000004
 10
14550.0
 20
7250.950000000004
 10
14550.0
 20
6000.0
 10
15200.375000000015
 20
6000.0
 10
15200.375000000015
 20
6600.075000000004
 10
15448.525000000009
 20
6600.075000000004
 10
15448.525000000009
 20
7250.950000000004
  0
TEXT
  5
F1
330
17
100
AcDbEntity
  8
PLATE_NUMBERS
100
AcDbText
 10
14949.602816309101
 20
6675.1728614219755
 30
0.0
 40
35.0
  1
214-A
100
AcDbText
  0
LWPOLYLINE
  5
F2
330
17
100
AcDbEntity
  8
SPEC_PLATES
100
AcDbPolyline
 90
5
 70
0
 10
15450.0
 20
6000.0
 10
15450.0
 20
7657.350000000006
 10
16037.375
 20
7657.350000000006
 10
16037.375
 20
6000.0
 10
15450.0
 20
6000.0
  0
TEXT
  5
F3
330
17
100
AcDbEntity
  8
PLATE_NUMBERS
100
AcDbText
 10
15743.6875
 20
6828.675000000003
 30
0.0
 40
35.0
  1
215-D
100
AcDbText
  0
LWPOLYLINE
  5
F4
330
17
100
AcDbEntity
  8
SPEC_PLATES
100
AcDbPolyline
 90
5
 70
0
 10
16050.0
 20
6000.0
 10
16050.0
 20
7657.349999999991
 10
16637.375
 20
7657.349999999991
 10
16637.375
 20
6000.0
 10
16050.0
 20
6000.0
  0
TEXT
  5
F5
330
17
100
AcDbEntity
  8
PLATE_NUMBERS
100
AcDbText
 10
16343.6875
 20
6828.674999999996
 30
0.0
 40
35.0
  1
209-C
100
AcDbText
  0
LWPOLYLINE
  5
F6
330
17
100
AcDbEntity
  8
SHEET_BORDER
 62
1
100
AcDbPolyline
 90
5
 70
0
 10
17000.0
 20
6000.0
 10
20200.0
 20
6000.0
 10
20200.0
 20
7800.0
 10
17000.0
 20
7800.0
 10
17000.0
 20
6000.0
  0
TEXT
  5
F7
330
17
100
AcDbEntity
  8
SHEET_BORDER
 62
1
100
AcDbText
 10
17010.0
 20
7770.0
 30
0.0
 40
50.0
  1
Sheet_24
100
AcDbText
  0
LWPOLYLINE
  5
F8
330
17
100
AcDbEntity
  8
SPEC_PLATES
100
AcDbPolyline
 90
7
 70
0
 10
17898.524999999994
 20
7247.775000000009
 10
17000.0
 20
7247.775000000009
 10
17000.0
 20
6596.900000000009
 10
17247.649999999994
 20
6596.900000000009
 10
17247.649999999994
 20
6000.0
 10
17898.524999999994
 20
6000.0
 10
17898.524999999994
 20
7247.775000000009
  0
TEXT
  5
F9
330
17
100
AcDbEntity
  8
PLATE_NUMBERS
100
AcDbText
 10
17498.68734076433
 20
6673.312340764335
 30
0.0
 40
35.0
  1
211-B
100
AcDbText
  0
LWPOLYLINE
  5
FA
330
17
100
AcDbEntity
  8
SPEC_PLATES
100
AcDbPolyline
 90
5
 70
0
 10
17900.0
 20
6584.200000000012
 10
19563.699999999997
 20
6584.200000000012
 10
19563.699999999997
 20
6000.0
 10
17900.0
 20
6000.0
 10
17900.0
 20
6584.200000000012
  0
TEXT
  5
FB
330
17
100
AcDbEntity
  8
PLATE_NUMBERS
100
AcDbText
 10
18731.85
 20
6292.100000000006
 30
0.0
 40
35.0
  1
210-D
100
AcDbText
  0
LWPOLYLINE
  5
FC
330
17
100
AcDbEntity
  8
SPEC_PLATES
100
AcDbPolyline
 90
5
 70
0
 10
17900.0
 20
7184.200000000004
 10
19563.699999999983
 20
7184.200000000004
 10
19563.699999999983
 20
6600.0
 10
17900.0
 20
6600.0
 10
17900.0
 20
7184.200000000004
  0
TEXT
  5
FD
330
17
100
AcDbEntity
  8
PLATE_NUMBERS
100
AcDbText
 10
18731.84999999999
 20
6892.100000000002
 30
0.0
 40
35.0
  1
213-D
100
AcDbText
  0
LWPOLYLINE
  5
FE
330
17
100
AcDbEntity
  8
SPEC_PLATES
100
AcDbPolyline
 90
5
 70
0
 10
17900.0
 20
7784.199999999997
 10
19563.699999999997
 20
7784.199999999997
 10
19563.699999999997
 20
7200.0
 10
17900.0
 20
7200.0
 10
17900.0
 20
7784.199999999997
  0
TEXT
  5
FF
330
17
100
AcDbEntity
  8
PLATE_NUMBERS
100
AcDbText
 10
18731.85
 20
7492.0999999999985
 30
0.0
 40
35.0
  1
214-D
100
AcDbText
  0
LWPOLYLINE
  5
100
330
17
100
AcDbEntity
  8
SPEC_PLATES
100
AcDbPolyline
 90
5
 70
0
 10
19600.0
 20
6000.0
 10
19600.0
 20
7654.174999999988
 10
20187.375000000007
 20
7654.174999999988
 10
20187.375000000007
 20
6000.0
 10
19600.0
 20
6000.0
  0
TEXT
  5
101
330
17
100
AcDbEntity
  8
PLATE_NUMBERS
100
AcDbText
 10
19893.687500000004
 20
6827.087499999994
 30
0.0
 40
35.0
  1
212-D
100
AcDbText
  0
LWPOLYLINE
  5
102
330
17
100
AcDbEntity
  8
SHEET_BORDER
 62
1
100
AcDbPolyline
 90
5
 70
0
 10
0.0
 20
8000.0
 10
3200.0
 20
8000.0
 10
3200.0
 20
9800.0
 10
0.0
 20
9800.0
 10
0.0
 20
8000.0
  0
TEXT
  5
103
330
17
100
AcDbEntity
  8
SHEET_BORDER
 62
1
100
AcDbText
 10
10.0
 20
9770.0
 30
0.0
 40
50.0
  1
Sheet_25
100
AcDbText
  0
LWPOLYLINE
  5
104
330
17
100
AcDbEntity
  8
SPEC_PLATES
100
AcDbPolyline
 90
5
 70
0
 10
0.0
 20
8587.374999999993
 10
1654.175000000003
 20
8587.374999999993
 10
1654.175000000003
 20
8000.0
 10
0.0
 20
8000.0
 10
0.0
 20
8587.374999999993
  0
TEXT
  5
105
330
17
100
AcDbEntity
  8
PLATE_NUMBERS
100
AcDbText
 10
827.0875000000015
 20
8293.687499999996
 30
0.0
 40
35.0
  1
218-D
100
AcDbText
  0
LWPOLYLINE
  5
106
330
17
100
AcDbEntity
  8
SPEC_PLATES
100
AcDbPolyline
 90
5
 70
0
 10
0.0
 20
9184.199999999997
 10
1657.3500000000058
 20
9184.199999999997
 10
1657.3500000000058
 20
8600.0
 10
0.0
 20
8600.0
 10
0.0
 20
9184.199999999997
  0
TEXT
  5
107
330
17
100
AcDbEntity
  8
PLATE_NUMBERS
100
AcDbText
 10
828.6750000000028
 20
8892.099999999999
 30
0.0
 40
35.0
  1
206-D
100
AcDbText
  0
LWPOLYLINE
  5
108
330
17
100
AcDbEntity
  8
SPEC_PLATES
100
AcDbPolyline
 90
5
 70
0
 10
0.0
 20
9784.200000000004
 10
1657.3499999999767
 20
9784.200000000004
 10
1657.3499999999767
 20
9200.0
 10
0.0
 20
9200.0
 10
0.0
 20
9784.200000000004
  0
TEXT
  5
109
330
17
100
AcDbEntity
  8
PLATE_NUMBERS
100
AcDbText
 10
828.6749999999884
 20
9492.100000000002
 30
0.0
 40
35.0
  1
211-D
100
AcDbText
  0
LWPOLYLINE
  5
10A
330
17
100
AcDbEntity
  8
SPEC_PLATES
100
AcDbPolyline
 90
5
 70
0
 10
1700.0
 20
8000.0
 10
1700.0
 20
9512.887499999997
 10
2287.3750000000146
 20
9512.887499999997
 10
2287.3750000000146
 20
8000.0
 10
1700.0
 20
8000.0
  0
TEXT
  5
10B
330
17
100
AcDbEntity
  8
PLATE_NUMBERS
100
AcDbText
 10
1993.6875000000075
 20
8756.443749999999
 30
0.0
 40
35.0
  1
221-E
100
AcDbText
  0
LWPOLYLINE
  5
10C
330
17
100
AcDbEntity
  8
SPEC_PLATES
100
AcDbPolyline
 90
5
 70
0
 10
2300.0
 20
8000.0
 10
2300.0
 20
9504.949999999997
 10
2887.375
 20
9504.949999999997
 10
2887.375
 20
8000.0
 10
2300.0
 20
8000.0
  0
TEXT
  5
10D
330
17
100
AcDbEntity
  8
PLATE_NUMBERS
100
AcDbText
 10
2593.6875
 20
8752.474999999999
 30
0.0
 40
35.0
  1
203-C
100
AcDbText
  0
LWPOLYLINE
  5
10E
330
17
100
AcDbEntity
  8
SHEET_BORDER
 62
1
100
AcDbPolyline
 90
5
 70
0
 10
3400.0
 20
8000.0
 10
6600.0
 20
8000.0
 10
6600.0
 20
9800.0
 10
3400.0
 20
9800.0
 10
3400.0
 20
8000.0
  0
TEXT
  5
10F
330
17
100
AcDbEntity
  8
SHEET_BORDER
 62
1
100
AcDbText
 10
3410.0
 20
9770.0
 30
0.0
 40
50.0
  1
Sheet_26
100
AcDbText
  0
LWPOLYLINE
  5
110
330
17
100
AcDbEntity
  8
SPEC_PLATES
100
AcDbPolyline
 90
5
 70
0
 10
3400.0
 20
8590.549999999996
 10
4873.1999999999825
 20
8590.549999999996
 10
4873.1999999999825
 20
8000.0
 10
3400.0
 20
8000.0
 10
3400.0
 20
8590.549999999996
  0
TEXT
  5
111
330
17
100
AcDbEntity
  8
PLATE_NUMBERS
100
AcDbText
 10
4136.599999999991
 20
8295.274999999998
 30
0.0
 40
35.0
  1
222-C
100
AcDbText
  0
LWPOLYLINE
  5
112
330
17
100
AcDbEntity
  8
SPEC_PLATES
100
AcDbPolyline
 90
5
 70
0
 10
3400.0
 20
9190.549999999988
 10
4873.199999999997
 20
9190.549999999988
 10
4873.199999999997
 20
8600.0
 10
3400.0
 20
8600.0
 10
3400.0
 20
9190.549999999988
  0
TEXT
  5
113
330
17
100
AcDbEntity
  8
PLATE_NUMBERS
100
AcDbText
 10
4136.5999999999985
 20
8895.274999999994
 30
0.0
 40
35.0
  1
202-C
100
AcDbText
  0
LWPOLYLINE
  5
114
330
17
100
AcDbEntity
  8
SPEC_PLATES
100
AcDbPolyline
 90
5
 70
0
 10
3400.0
 20
9784.200000000004
 10
4860.5
 20
9784.200000000004
 10
4860.5
 20
9200.0
 10
3400.0
 20
9200.0
 10
3400.0
 20
9784.200000000004
  0
TEXT
  5
115
330
17
100
AcDbEntity
  8
PLATE_NUMBERS
100
AcDbText
 10
4130.25
 20
9492.100000000002
 30
0.0
 40
35.0
  1
205-E
100
AcDbText
  0
LWPOLYLINE
  5
116
330
17
100
AcDbEntity
  8
SPEC_PLATES
100
AcDbPolyline
 90
5
 70
0
 10
4900.0
 20
8584.19999999999
 10
6360.499999999993
 20
8584.19999999999
 10
6360.499999999993
 20
8000.0
 10
4900.0
 20
8000.0
 10
4900.0
 20
8584.19999999999
  0
TEXT
  5
117
330
17
100
AcDbEntity
  8
PLATE_NUMBERS
100
AcDbText
 10
5630.249999999996
 20
8292.099999999995
 30
0.0
 40
35.0
  1
221-C
100
AcDbText
  0
LWPOLYLINE
  5
118
330
17
100
AcDbEntity
  8
SPEC_PLATES
100
AcDbPolyline
 90
5
 70
0
 10
4900.0
 20
9184.199999999997
 10
6357.324999999997
 20
9184.199999999997
 10
6357.324999999997
 20
8600.0
 10
4900.0
 20
8600.0
 10
4900.0
 20
9184.199999999997
  0
TEXT
  5
119
330
17
100
AcDbEntity
  8
PLATE_NUMBERS
100
AcDbText
 10
5628.6624999999985
 20
8892.099999999999
 30
0.0
 40
35.0
  1
219-E
100
AcDbText
  0
LWPOLYLINE
  5
11A
330
17
100
AcDbEntity
  8
SPEC_PLATES
100
AcDbPolyline
 90
5
 70
0
 10
6350.975000000006
 20
9784.200000000012
 10
4900.0
 20
9784.200000000012
 10
4900.0
 20
9200.0
 10
6350.975000000006
 20
9200.0
 10
6350.975000000006
 20
9784.200000000012
  0
TEXT
  5
11B
330
17
100
AcDbEntity
  8
PLATE_NUMBERS
100
AcDbText
 10
5625.487500000003
 20
9492.100000000006
 30
0.0
 40
35.0
  1
203-E
100
AcDbText
  0
LWPOLYLINE
  5
11C
330
17
100
AcDbEntity
  8
SHEET_BORDER
 62
1
100
AcDbPolyline
 90
5
 70
0
 10
6800.0
 20
8000.0
 10
10000.0
 20
8000.0
 10
10000.0
 20
9800.0
 10
6800.0
 20
9800.0
 10
6800.0
 20
8000.0
  0
TEXT
  5
11D
330
17
100
AcDbEntity
  8
SHEET_BORDER
 62
1
100
AcDbText
 10
6810.0
 20
9770.0
 30
0.0
 40
50.0
  1
Sheet_27
100
AcDbText
  0
LWPOLYLINE
  5
11E
330
17
100
AcDbEntity
  8
SPEC_PLATES
100
AcDbPolyline
 90
5
 70
0
 10
6800.0
 20
8590.55000000001
 10
8057.300000000003
 20
8590.55000000001
 10
8057.300000000003
 20
8000.0
 10
6800.0
 20
8000.0
 10
6800.0
 20
8590.55000000001
  0
TEXT
  5
11F
330
17
100
AcDbEntity
  8
PLATE_NUMBERS
100
AcDbText
 10
7428.6500000000015
 20
8295.275000000005
 30
0.0
 40
35.0
  1
207-C
100
AcDbText
  0
LWPOLYLINE
  5
120
330
17
100
AcDbEntity
  8
SPEC_PLATES
100
AcDbPolyline
 90
5
 70
0
 10
6800.0
 20
9190.55000000001
 10
8054.125000000007
 20
9190.55000000001
 10
8054.125000000007
 20
8600.0
 10
6800.0
 20
8600.0
 10
6800.0
 20
9190.55000000001
  0
TEXT
  5
121
330
17
100
AcDbEntity
  8
PLATE_NUMBERS
100
AcDbText
 10
7427.062500000004
 20
8895.275000000005
 30
0.0
 40
35.0
  1
220-B
100
AcDbText
  0
LWPOLYLINE
  5
122
330
17
100
AcDbEntity
  8
SPEC_PLATES
100
AcDbPolyline
 90
5
 70
0
 10
6800.0
 20
9787.375000000015
 10
8060.475000000006
 20
9787.375000000015
 10
8060.475000000006
 20
9200.0
 10
6800.0
 20
9200.0
 10
6800.0
 20
9787.375000000015
  0
TEXT
  5
123
330
17
100
AcDbEntity
  8
PLATE_NUMBERS
100
AcDbText
 10
7430.237500000003
 20
9493.687500000007
 30
0.0
 40
35.0
  1
204-B
100
AcDbText
  0
LWPOLYLINE
  5
124
330
17
100
AcDbEntity
  8
SPEC_PLATES
100
AcDbPolyline
 90
5
 70
0
 10
8100.0
 20
8000.0
 10
8100.0
 20
8590.550000000003
 10
9258.875
 20
8590.550000000003
 10
9258.875
 20
8000.0
 10
8100.0
 20
8000.0
  0
TEXT
  5
125
330
17
100
AcDbEntity
  8
PLATE_NUMBERS
100
AcDbText
 10
8679.4375
 20
8295.275000000001
 30
0.0
 40
35.0
  1
219-B
100
AcDbText
  0
LWPOLYLINE
  5
126
330
17
100
AcDbEntity
  8
SPEC_PLATES
100
AcDbPolyline
 90
5
 70
0
 10
8100.0
 20
9187.375
 10
9258.875
 20
9187.375
 10
9258.875
 20
8600.0
 10
8100.0
 20
8600.0
 10
8100.0
 20
9187.375
  0
TEXT
  5
127
330
17
100
AcDbEntity
  8
PLATE_NUMBERS
100
AcDbText
 10
8679.4375
 20
8893.6875
 30
0.0
 40
35.0
  1
201-D
100
AcDbText
  0
LWPOLYLINE
  5
128
330
17
100
AcDbEntity
  8
SPEC_PLATES
100
AcDbPolyline
 90
5
 70
0
 10
8100.0
 20
9787.375000000007
 10
9255.699999999997
 20
9787.375000000007
 10
9255.699999999997
 20
9200.0
 10
8100.0
 20
9200.0
 10
8100.0
 20
9787.375000000007
  0
TEXT
  5
129
330
17
100
AcDbEntity
  8
PLATE_NUMBERS
100
AcDbText
 10
8677.849999999999
 20
9493.687500000004
 30
0.0
 40
35.0
  1
223-D
100
AcDbText
  0
LWPOLYLINE
  5
12A
330
17
100
AcDbEntity
  8
SPEC_PLATES
100
AcDbPolyline
 90
5
 70
0
 10
9300.0
 20
8000.0
 10
9300.0
 20
9155.699999999997
 10
9887.375
 20
9155.699999999997
 10
9887.375
 20
8000.0
 10
9300.0
 20
8000.0
  0
TEXT
  5
12B
330
17
100
AcDbEntity
  8
PLATE_NUMBERS
100
AcDbText
 10
9593.6875
 20
8577.849999999999
 30
0.0
 40
35.0
  1
205-B
100
AcDbText
  0
LWPOLYLINE
  5
12C
330
17
100
AcDbEntity
  8
SHEET_BORDER
 62
1
100
AcDbPolyline
 90
5
 70
0
 10
10200.0
 20
8000.0
 10
13400.0
 20
8000.0
 10
13400.0
 20
9800.0
 10
10200.0
 20
9800.0
 10
10200.0
 20
8000.0
  0
TEXT
  5
12D
330
17
100
AcDbEntity
  8
SHEET_BORDER
 62
1
100
AcDbText
 10
10210.0
 20
9770.0
 30
0.0
 40
50.0
  1
Sheet_28
100
AcDbText
  0
LWPOLYLINE
  5
12E
330
17
100
AcDbEntity
  8
SPEC_PLATES
100
AcDbPolyline
 90
5
 70
0
 10
10850.875
 20
8650.875
 10
10200.0
 20
8650.875
 10
10200.0
 20
8000.0
 10
10850.875
 20
8000.0
 10
10850.875
 20
8650.875
  0
TEXT
  5
12F
330
17
100
AcDbEntity
  8
PLATE_NUMBERS
100
AcDbText
 10
10525.4375
 20
8325.4375
 30
0.0
 40
35.0
  1
203-A
100
AcDbText
  0
LWPOLYLINE
  5
130
330
17
100
AcDbEntity
  8
SPEC_PLATES
100
AcDbPolyline
 90
5
 70
0
 10
10200.0
 20
9347.700000000004
 10
10852.462500000009
 20
9347.700000000004
 10
10852.462500000009
 20
8700.0
 10
10200.0
 20
8700.0
 10
10200.0
 20
9347.700000000004
  0
TEXT
  5
131
330
17
100
AcDbEntity
  8
PLATE_NUMBERS
100
AcDbText
 10
10526.231250000004
 20
9023.850000000002
 30
0.0
 40
35.0
  1
221-B
100
AcDbText
  0
ENDSEC
  0
SECTION
  2
OBJECTS
  0
DICTIONARY
  5
A
330
0
100
AcDbDictionary
281
1
  3
ACAD_COLOR
350
B
  3
ACAD_GROUP
350
C
  3
ACAD_LAYOUT
350
D
  3
ACAD_MATERIAL
350
E
  3
ACAD_MLEADERSTYLE
350
F
  3
ACAD_MLINESTYLE
350
10
  3
ACAD_PLOTSETTINGS
350
11
  3
ACAD_PLOTSTYLENAME
350
12
  3
ACAD_SCALELIST
350
14
  3
ACAD_TABLESTYLE
350
15
  3
ACAD_VISUALSTYLE
350
16
  3
EZDXF_META
350
2D
  0
DICTIONARY
  5
B
330
A
100
AcDbDictionary
281
1
  0
DICTIONARY
  5
C
330
A
100
AcDbDictionary
281
1
  0
DICTIONARY
  5
D
330
A
100
AcDbDictionary
281
1
  3
Model
350
1A
  3
Layout1
350
1E
  0
DICTIONARY
  5
E
330
A
100
AcDbDictionary
281
1
  3
ByBlock
350
1F
  3
ByLayer
350
20
  3
Global
350
21
  0
DICTIONARY
  5
F
330
A
100
AcDbDictionary
281
1
  3
Standard
350
2C
  0
DICTIONARY
  5
10
330
A
100
AcDbDictionary
281
1
  3
Standard
350
22
  0
DICTIONARY
  5
11
330
A
100
AcDbDictionary
281
1
  0
ACDBDICTIONARYWDFLT
  5
12
330
A
100
AcDbDictionary
281
1
  3
Normal
350
13
100
AcDbDictionaryWithDefault
340
13
  0
ACDBPLACEHOLDER
  5
13
330
12
  0
DICTIONARY
  5
14
330
A
100
AcDbDictionary
281
1
  0
DICTIONARY
  5
15
330
A
100
AcDbDictionary
281
1
  0
DICTIONARY
  5
16
330
A
100
AcDbDictionary
281
1
  0
LAYOUT
  5
1A
330
D
100
AcDbPlotSettings
  1

  4
A3
  6

 40
7.5
 41
20.0
 42
7.5
 43
20.0
 44
420.0
 45
297.0
 46
0.0
 47
0.0
 48
0.0
 49
0.0
140
0.0
141
0.0
142
1.0
143
1.0
 70
1024
 72
1
 73
0
 74
5
  7

 75
16
 76
0
 77
2
 78
300
147
1.0
148
0.0
149
0.0
100
AcDbLayout
  1
Model
 70
1
 71
0
 10
0.0
 20
0.0
 11
420.0
 21
297.0
 12
0.0
 22
0.0
 32
0.0
 14
1e+20
 24
1e+20
 34
1e+20
 15
-1e+20
 25
-1e+20
 35
-1e+20
146
0.0
 13
0.0
 23
0.0
 33
0.0
 16
1.0
 26
0.0
 36
0.0
 17
0.0
 27
1.0
 37
0.0
 76
1
330
17
  0
LAYOUT
  5
1E
330
D
100
AcDbPlotSettings
  1

  4
A3
  6

 40
7.5
 41
20.0
 42
7.5
 43
20.0
 44
420.0
 45
297.0
 46
0.0
 47
0.0
 48
0.0
 49
0.0
140
0.0
141
0.0
142
1.0
143
1.0
 70
0
 72
1
 73
0
 74
5
  7

 75
16
 76
0
 77
2
 78
300
147
1.0
148
0.0
149
0.0
100
AcDbLayout
  1
Layout1
 70
1
 71
1
 10
0.0
 20
0.0
 11
420.0
 21
297.0
 12
0.0
 22
0.0
 32
0.0
 14
1e+20
 24
1e+20
 34
1e+20
 15
-1e+20
 25
-1e+20
 35
-1e+20
146
0.0
 13
0.0
 23
0.0
 33
0.0
 16
1.0
 26
0.0
 36
0.0
 17
0.0
 27
1.0
 37
0.0
 76
1
330
1B
  0
MATERIAL
  5
1F
102
{ACAD_REACTORS
330
E
102
}
330
E
100
AcDbMaterial
  1
ByBlock
  2

 70
0
 40
1.0
 71
1
 41
1.0
 91
-1023410177
 42
1.0
 72
1
  3

 73
1
 74
1
 75
1
 44
0.5
 73
0
 45
1.0
 46
1.0
 77
1
  4

 78
1
 79
1
170
1
 48
1.0
171
1
  6

172
1
173
1
174
1
140
1.0
141
1.0
175
1
  7

176
1
177
1
178
1
143
1.0
179
1
  8

270
1
271
1
272
1
145
1.0
146
1.0
273
1
  9

274
1
275
1
276
1
 42
1.0
 72
1
  3

 73
1
 74
1
 75
1
 94
63
  0
MATERIAL
  5
20
102
{ACAD_REACTORS
330
E
102
}
330
E
100
AcDbMaterial
  1
ByLayer
  2

 70
0
 40
1.0
 71
1
 41
1.0
 91
-1023410177
 42
1.0
 72
1
  3

 73
1
 74
1
 75
1
 44
0.5
 73
0
 45
1.0
 46
1.0
 77
1
  4

 78
1
 79
1
170
1
 48
1.0
171
1
  6

172
1
173
1
174
1
140
1.0
141
1.0
175
1
  7

176
1
177
1
178
1
143
1.0
179
1
  8

270
1
271
1
272
1
145
1.0
146
1.0
273
1
  9

274
1
275
1
276
1
 42
1.0
 72
1
  3

 73
1
 74
1
 75
1
 94
63
  0
MATERIAL
  5
21
102
{ACAD_REACTORS
330
E
102
}
330
E
100
AcDbMaterial
  1
Global
  2

 70
0
 40
1.0
 71
1
 41
1.0
 91
-1023410177
 42
1.0
 72
1
  3

 73
1
 74
1
 75
1
 44
0.5
 73
0
 45
1.0
 46
1.0
 77
1
  4

 78
1
 79
1
170
1
 48
1.0
171
1
  6

172
1
173
1
174
1
140
1.0
141
1.0
175
1
  7

176
1
177
1
178
1
143
1.0
179
1
  8

270
1
271
1
272
1
145
1.0
146
1.0
273
1
  9

274
1
275
1
276
1
 42
1.0
 72
1
  3

 73
1
 74
1
 75
1
 94
63
  0
MLINESTYLE
  5
22
102
{ACAD_REACTORS
330
10
102
}
330
10
100
AcDbMlineStyle
  2
Standard
 70
0
  3

 62
256
 51
90.0
 52
90.0
 71
2
 49
0.5
 62
256
  6
BYLAYER
 49
-0.5
 62
256
  6
BYLAYER
  0
MLEADERSTYLE
  5
2C
102
{ACAD_REACTORS
330
F
102
}
330
F
100
AcDbMLeaderStyle
179
2
170
2
171
1
172
0
 90
2
 40
0.0
 41
0.0
173
1
 91
-1056964608
 92
-2
290
1
 42
2.0
291
1
 43
8.0
  3
Standard
 44
4.0
300

342
29
174
1
175
1
176
0
178
1
 93
-1056964608
 45
4.0
292
0
297
0
 46
4.0
 94
-1056964608
 47
1.0
 49
1.0
140
1.0
294
1
141
0.0
177
0
142
1.0
295
0
296
0
143
3.75
271
0
272
9
273
9
  0
DICTIONARY
  5
2D
330
A
100
AcDbDictionary
280
1
281
1
  3
CREATED_BY_EZDXF
350
2E
  3
WRITTEN_BY_EZDXF
350
134
  0
DICTIONARYVAR
  5
2E
330
2D
100
DictionaryVariables
280
0
  1
1.4.4 @ 2026-08-01T08:47:21.540498+00:00
  0
DICTIONARYVAR
  5
134
330
2D
100
DictionaryVariables
280
0
  1
1.4.4 @ 2026-08-01T08:47:21.549355+00:00
  0
ENDSEC
  0
EOF
